<svg xmlns="http://www.w3.org/2000/svg" width="1921" height="95" viewBox="0 0 1921 95"><defs><style>.a{fill:#2d2d2d;}.b,.c{fill:#f7d64b;}.c{font-size:32px;font-family:SpaceMono-Regular, Space Mono;}</style></defs><path class="a" d="M0,0H1921V95H0Z"/><g transform="translate(304.072 8.072)"><circle class="b" cx="8.5" cy="8.5" r="8.5" transform="translate(53.088 44.308)"/><circle class="b" cx="1.5" cy="1.5" r="1.5" transform="translate(9.088 10.308)"/><circle class="b" cx="5" cy="5" r="5" transform="translate(5.088 60.308)"/><circle class="b" cx="1.5" cy="1.5" r="1.5" transform="translate(16.088 62.308)"/><g transform="matrix(0.208, -0.978, 0.978, 0.208, 0, 59.356)"><path class="b" d="M30.341,0a30.341,30.341,0,0,0-20.6,52.621,1.235,1.235,0,1,0,1.677-1.813,27.871,27.871,0,1,1,18.919,7.4,1.235,1.235,0,1,0,0,2.47A30.341,30.341,0,0,0,30.341,0Z" transform="translate(0)"/></g></g><text class="c" transform="translate(384 56)"><tspan x="0" y="0">Artemis </tspan></text></svg>