<svg xmlns="http://www.w3.org/2000/svg" width="240.404" height="255.781" viewBox="0 0 240.404 255.781"><defs><style>.a{opacity:0.4;mix-blend-mode:multiply;}.a,.bb,.bc,.bh,.bi{isolation:isolate;}.aa,.ab,.ac,.ad,.ae,.af,.ag,.ah,.ai,.aj,.ak,.al,.am,.an,.ao,.ap,.aq,.ar,.as,.at,.au,.av,.aw,.ax,.ay,.az,.b,.ba,.c,.d,.e,.f,.g,.h,.i,.j,.k,.l,.m,.n,.o,.p,.q,.r,.s,.t,.u,.v,.w,.x,.y,.z{fill:#00141d;}.b{opacity:0;}.c{opacity:0.02;}.d{opacity:0.039;}.e{opacity:0.059;}.f{opacity:0.078;}.g{opacity:0.098;}.h{opacity:0.118;}.i{opacity:0.137;}.j{opacity:0.157;}.k{opacity:0.176;}.l{opacity:0.196;}.m{opacity:0.216;}.n{opacity:0.235;}.o{opacity:0.255;}.p{opacity:0.275;}.q{opacity:0.294;}.r{opacity:0.314;}.s{opacity:0.333;}.t{opacity:0.353;}.u{opacity:0.373;}.v{opacity:0.392;}.w{opacity:0.412;}.x{opacity:0.431;}.y{opacity:0.451;}.z{opacity:0.471;}.aa{opacity:0.49;}.ab{opacity:0.51;}.ac{opacity:0.529;}.ad{opacity:0.549;}.ae{opacity:0.569;}.af{opacity:0.588;}.ag{opacity:0.608;}.ah{opacity:0.627;}.ai{opacity:0.647;}.aj{opacity:0.667;}.ak{opacity:0.686;}.al{opacity:0.706;}.am{opacity:0.725;}.an{opacity:0.745;}.ao{opacity:0.765;}.ap{opacity:0.784;}.aq{opacity:0.804;}.ar{opacity:0.824;}.as{opacity:0.843;}.at{opacity:0.863;}.au{opacity:0.882;}.av{opacity:0.902;}.aw{opacity:0.922;}.ax{opacity:0.941;}.ay{opacity:0.961;}.az{opacity:0.98;}.bb,.bc{fill:#f9a322;mix-blend-mode:lighten;}.bb{opacity:0.05;}.bc{opacity:0.1;}.bd{fill:#7178b2;}.be{fill:#7e8c58;}.bf{fill:#fbfcf9;}.bg{fill:#445411;}.bh,.bi{opacity:0.7;}.bh{mix-blend-mode:hard-light;}.bi{mix-blend-mode:color-burn;}</style></defs><g transform="matrix(0.999, 0.052, -0.052, 0.999, 9.396, 0)"><g class="a" transform="translate(33.458 32.658)"><path class="b" d="M1046.952,625.214a56.474,56.474,0,1,1-56.474-56.475A56.474,56.474,0,0,1,1046.952,625.214Z" transform="translate(-842.235 -470.696)"/><path class="c" d="M1045.152,623.291a56.474,56.474,0,1,1-56.473-56.475A56.474,56.474,0,0,1,1045.152,623.291Z" transform="translate(-842.235 -470.696)"/><path class="d" d="M1043.353,621.369A56.474,56.474,0,1,1,986.88,564.9,56.473,56.473,0,0,1,1043.353,621.369Z" transform="translate(-842.235 -470.696)"/><path class="e" d="M1041.554,619.446a56.474,56.474,0,1,1-56.474-56.474A56.474,56.474,0,0,1,1041.554,619.446Z" transform="translate(-842.235 -470.696)"/><path class="f" d="M1039.755,617.524a56.474,56.474,0,1,1-56.474-56.474A56.474,56.474,0,0,1,1039.755,617.524Z" transform="translate(-842.235 -470.696)"/><path class="g" d="M1037.955,615.6a56.474,56.474,0,1,1-56.474-56.475A56.473,56.473,0,0,1,1037.955,615.6Z" transform="translate(-842.235 -470.696)"/><path class="h" d="M1036.155,613.679a56.474,56.474,0,1,1-56.473-56.474A56.474,56.474,0,0,1,1036.155,613.679Z" transform="translate(-842.235 -470.696)"/><path class="i" d="M1034.356,611.757a56.474,56.474,0,1,1-56.473-56.475A56.473,56.473,0,0,1,1034.356,611.757Z" transform="translate(-842.235 -470.696)"/><path class="j" d="M1032.557,609.834a56.475,56.475,0,1,1-56.474-56.474A56.475,56.475,0,0,1,1032.557,609.834Z" transform="translate(-842.235 -470.696)"/><path class="k" d="M1030.758,607.912a56.475,56.475,0,1,1-56.474-56.474A56.474,56.474,0,0,1,1030.758,607.912Z" transform="translate(-842.235 -470.696)"/><path class="l" d="M1028.958,605.989a56.474,56.474,0,1,1-56.474-56.474A56.474,56.474,0,0,1,1028.958,605.989Z" transform="translate(-842.235 -470.696)"/><path class="m" d="M1027.158,604.067a56.473,56.473,0,1,1-56.473-56.474A56.473,56.473,0,0,1,1027.158,604.067Z" transform="translate(-842.235 -470.696)"/><path class="n" d="M1025.359,602.145a56.474,56.474,0,1,1-56.473-56.475A56.473,56.473,0,0,1,1025.359,602.145Z" transform="translate(-842.235 -470.696)"/><path class="o" d="M1023.559,600.222a56.474,56.474,0,1,1-56.473-56.474A56.474,56.474,0,0,1,1023.559,600.222Z" transform="translate(-842.235 -470.696)"/><path class="p" d="M1021.76,598.3a56.474,56.474,0,1,1-56.473-56.475A56.474,56.474,0,0,1,1021.76,598.3Z" transform="translate(-842.235 -470.696)"/><path class="q" d="M1019.961,596.377A56.474,56.474,0,1,1,963.487,539.9,56.474,56.474,0,0,1,1019.961,596.377Z" transform="translate(-842.235 -470.696)"/><path class="r" d="M1018.161,594.455a56.474,56.474,0,1,1-56.473-56.475A56.473,56.473,0,0,1,1018.161,594.455Z" transform="translate(-842.235 -470.696)"/><path class="s" d="M1016.362,592.532a56.474,56.474,0,1,1-56.473-56.474A56.473,56.473,0,0,1,1016.362,592.532Z" transform="translate(-842.235 -470.696)"/><path class="t" d="M1014.563,590.609a56.474,56.474,0,1,1-56.474-56.473A56.475,56.475,0,0,1,1014.563,590.609Z" transform="translate(-842.235 -470.696)"/><path class="u" d="M1012.763,588.688a56.474,56.474,0,1,1-56.473-56.475A56.474,56.474,0,0,1,1012.763,588.688Z" transform="translate(-842.235 -470.696)"/><path class="v" d="M1010.964,586.765a56.473,56.473,0,1,1-56.474-56.474A56.474,56.474,0,0,1,1010.964,586.765Z" transform="translate(-842.235 -470.696)"/><path class="w" d="M1009.164,584.843a56.474,56.474,0,1,1-56.473-56.475A56.473,56.473,0,0,1,1009.164,584.843Z" transform="translate(-842.235 -470.696)"/><path class="x" d="M1007.365,582.92a56.474,56.474,0,1,1-56.473-56.474A56.474,56.474,0,0,1,1007.365,582.92Z" transform="translate(-842.235 -470.696)"/><path class="y" d="M1005.565,581a56.474,56.474,0,1,1-56.473-56.474A56.475,56.475,0,0,1,1005.565,581Z" transform="translate(-842.235 -470.696)"/><path class="z" d="M1003.766,579.075A56.474,56.474,0,1,1,947.293,522.6,56.474,56.474,0,0,1,1003.766,579.075Z" transform="translate(-842.235 -470.696)"/><path class="aa" d="M1001.967,577.152a56.474,56.474,0,1,1-56.474-56.473A56.475,56.475,0,0,1,1001.967,577.152Z" transform="translate(-842.235 -470.696)"/><path class="ab" d="M1000.167,575.23a56.474,56.474,0,1,1-56.473-56.474A56.473,56.473,0,0,1,1000.167,575.23Z" transform="translate(-842.235 -470.696)"/><path class="ac" d="M998.368,573.308a56.473,56.473,0,1,1-56.474-56.474A56.474,56.474,0,0,1,998.368,573.308Z" transform="translate(-842.235 -470.696)"/><path class="ad" d="M996.568,571.386A56.474,56.474,0,1,1,940.1,514.911,56.473,56.473,0,0,1,996.568,571.386Z" transform="translate(-842.235 -470.696)"/><path class="ae" d="M994.768,569.463A56.473,56.473,0,1,1,938.3,512.989,56.475,56.475,0,0,1,994.768,569.463Z" transform="translate(-842.235 -470.696)"/><path class="af" d="M992.97,567.54A56.474,56.474,0,1,1,936.5,511.066,56.476,56.476,0,0,1,992.97,567.54Z" transform="translate(-842.235 -470.696)"/><path class="ag" d="M991.17,565.618A56.473,56.473,0,1,1,934.7,509.145,56.473,56.473,0,0,1,991.17,565.618Z" transform="translate(-842.235 -470.696)"/><path class="ah" d="M989.371,563.7A56.473,56.473,0,1,1,932.9,507.222,56.474,56.474,0,0,1,989.371,563.7Z" transform="translate(-842.235 -470.696)"/><path class="ai" d="M987.571,561.773A56.473,56.473,0,1,1,931.1,505.3,56.473,56.473,0,0,1,987.571,561.773Z" transform="translate(-842.235 -470.696)"/><path class="aj" d="M985.771,559.851A56.473,56.473,0,1,1,929.3,503.377,56.474,56.474,0,0,1,985.771,559.851Z" transform="translate(-842.235 -470.696)"/><path class="ak" d="M983.973,557.928A56.474,56.474,0,1,1,927.5,501.455,56.475,56.475,0,0,1,983.973,557.928Z" transform="translate(-842.235 -470.696)"/><path class="al" d="M982.173,556.006A56.473,56.473,0,1,1,925.7,499.532,56.474,56.474,0,0,1,982.173,556.006Z" transform="translate(-842.235 -470.696)"/><path class="am" d="M980.374,554.083A56.474,56.474,0,1,1,923.9,497.61,56.475,56.475,0,0,1,980.374,554.083Z" transform="translate(-842.235 -470.696)"/><path class="an" d="M978.574,552.161A56.473,56.473,0,1,1,922.1,495.688,56.473,56.473,0,0,1,978.574,552.161Z" transform="translate(-842.235 -470.696)"/><path class="ao" d="M976.774,550.238A56.473,56.473,0,1,1,920.3,493.765,56.474,56.474,0,0,1,976.774,550.238Z" transform="translate(-842.235 -470.696)"/><path class="ap" d="M974.975,548.315A56.473,56.473,0,1,1,918.5,491.842,56.474,56.474,0,0,1,974.975,548.315Z" transform="translate(-842.235 -470.696)"/><path class="aq" d="M973.176,546.394A56.474,56.474,0,1,1,916.7,489.92,56.474,56.474,0,0,1,973.176,546.394Z" transform="translate(-842.235 -470.696)"/><path class="ar" d="M971.376,544.471A56.473,56.473,0,1,1,914.9,488,56.474,56.474,0,0,1,971.376,544.471Z" transform="translate(-842.235 -470.696)"/><path class="as" d="M969.577,542.549A56.473,56.473,0,1,1,913.1,486.075,56.474,56.474,0,0,1,969.577,542.549Z" transform="translate(-842.235 -470.696)"/><path class="at" d="M967.777,540.626A56.473,56.473,0,1,1,911.3,484.153,56.475,56.475,0,0,1,967.777,540.626Z" transform="translate(-842.235 -470.696)"/><path class="au" d="M965.978,538.7a56.474,56.474,0,1,1-56.472-56.474A56.473,56.473,0,0,1,965.978,538.7Z" transform="translate(-842.235 -470.696)"/><path class="av" d="M964.179,536.781a56.474,56.474,0,1,1-56.473-56.473A56.475,56.475,0,0,1,964.179,536.781Z" transform="translate(-842.235 -470.696)"/><path class="aw" d="M962.379,534.858a56.473,56.473,0,1,1-56.473-56.473A56.474,56.474,0,0,1,962.379,534.858Z" transform="translate(-842.235 -470.696)"/><path class="ax" d="M960.58,532.936a56.473,56.473,0,1,1-56.473-56.473A56.474,56.474,0,0,1,960.58,532.936Z" transform="translate(-842.235 -470.696)"/><path class="ay" d="M958.78,531.014a56.473,56.473,0,1,1-56.472-56.473A56.474,56.474,0,0,1,958.78,531.014Z" transform="translate(-842.235 -470.696)"/><path class="az" d="M956.981,529.092a56.473,56.473,0,1,1-56.472-56.474A56.474,56.474,0,0,1,956.981,529.092Z" transform="translate(-842.235 -470.696)"/><path class="ba" d="M955.182,527.169A56.474,56.474,0,1,1,898.709,470.7,56.476,56.476,0,0,1,955.182,527.169Z" transform="translate(-842.235 -470.696)"/></g><path class="bb" d="M988.312,527.806a89.768,89.768,0,1,1-89.766-89.768A89.766,89.766,0,0,1,988.312,527.806Z" transform="translate(-808.777 -438.038)"/><circle class="bc" cx="67.325" cy="67.325" r="67.325" transform="matrix(0.112, -0.994, 0.994, 0.112, 15.336, 149.141)"/><g transform="translate(32.061 32.627)"><path class="bd" d="M954.254,527.372a56.708,56.708,0,1,1-56.708-56.707A56.709,56.709,0,0,1,954.254,527.372Z" transform="translate(-840.838 -470.665)"/><path class="be" d="M954.254,527.324c0,4.932-1.878,8.746-6.812,10.715-4.456,1.779-6.721,1.525-9.393,6.073-1.948,3.313-2.348,5.9-6.37,7.222-4.265,1.405-8.317-.076-12.382-.733a17.939,17.939,0,0,0-12.68,2.757c-4.183,2.631-6.154,8.538-10.312,10.676-8.363,4.3-16.172-7.881-23.419-9.372-5.394-1.11-6.72,1.067-11.016,3.514-15.935,9.07-20.462-20.5-20.462-30.852a56.423,56.423,0,0,1,112.846,0Z" transform="translate(-840.838 -470.665)"/><path class="bf" d="M925.081,506.129c-4.063,2.837-4.253,7.971-4.455,12.528-.39,8.815.459,22.579-11.306,22.293-4.1-.1-7.053-2.942-10.966-2.124-3.953.824-7.183,4.9-8.995,8.2-1.382,2.512-2.637,8.639-5.289,10.01-3.444,1.78-7.221-4.74-11.613-5.643-5.123-1.056-6.383,1.012-10.464,3.336-15.14,8.619-19.442-19.472-19.442-29.312a53.618,53.618,0,0,1,83.285-44.653c4.017,2.676,8.966,6.279,11.587,10.427C939.316,494.183,928.058,504.051,925.081,506.129Z" transform="translate(-840.838 -470.665)"/><path class="bg" d="M891.293,514.857c.7,2.812.7,5.482-.885,7.858-2.033,3.052-6.143,1.974-8.739,4.07-3.046,2.461-3.563,7.926-4,11.494-.325,2.685-.742,7.914-3.56,9.469-2.366,1.3-5.076-.225-7.546.388-1.763.439-3.274,1.9-4.844,2.789-13.616,7.751-17.485-17.511-17.485-26.361a48.627,48.627,0,0,1,25.532-42.555c4.13-2.2,20.82-9.362,24.44-4.8,4.2,5.294-7.239,13.908-8.16,18.733C884.918,501.875,889.768,508.7,891.293,514.857Z" transform="translate(-840.838 -470.665)"/><path class="bd" d="M870.638,517a9.98,9.98,0,0,1-.442,5.817c-1.017,2.26-3.071,1.462-4.37,3.012-1.524,1.822-1.781,5.868-2,8.51-.161,1.986-.369,5.857-1.779,7.009-1.184.965-2.538-.168-3.773.287-.882.325-1.637,1.4-2.422,2.065-6.808,5.736-8.742-12.963-8.742-19.514,0-13.065,4.982-25.346,12.766-31.5,2.065-1.632,10.409-6.931,12.22-3.553,2.1,3.919-3.62,10.3-4.081,13.867C867.45,507.392,869.875,512.449,870.638,517Z" transform="translate(-840.838 -470.665)"/></g><g class="bh" transform="translate(32.044 32.611)"><path class="bd" d="M914.123,581.6a56.708,56.708,0,1,1,37.65-70.809A56.71,56.71,0,0,1,914.123,581.6Z" transform="translate(-840.821 -470.649)"/><path class="be" d="M914.168,581.589c-4.716,1.441-8.912.762-12.237-3.382-3-3.74-3.423-5.98-8.554-7.207-3.737-.894-6.326-.521-8.77-3.979-2.59-3.668-2.357-7.977-2.917-12.056a17.945,17.945,0,0,0-6.344-11.319c-3.74-3.231-9.965-3.391-13.226-6.741-6.556-6.741,2.811-17.77,2.117-25.136-.516-5.483-2.985-6.115-6.58-9.507-13.332-12.588,13.617-25.561,23.52-28.588a56.423,56.423,0,0,1,32.991,107.915Z" transform="translate(-840.821 -470.649)"/><path class="bf" d="M925.91,547.494c-3.9-3.055-8.866-1.736-13.284-.6-8.544,2.206-21.459,7.039-24.624-4.293-1.1-3.956.752-7.606-1.175-11.107-1.944-3.539-6.788-5.439-10.47-6.207-2.8-.586-9.03,0-11.118-2.131-2.71-2.774,2.422-8.293,2-12.756-.489-5.208-2.836-5.807-6.25-9.032-12.669-11.958,12.937-24.286,22.347-27.162a53.618,53.618,0,0,1,67.05,66.592c-1.383,4.624-3.382,10.41-6.583,14.129C941.5,557.614,928.767,549.733,925.91,547.494Z" transform="translate(-840.821 -470.649)"/><path class="bg" d="M907.684,517.734c-2.485,1.49-5.038,2.271-7.772,1.451-3.515-1.05-3.686-5.3-6.449-7.168-3.243-2.193-8.62-1.088-12.16-.46-2.661.474-7.785,1.6-10.094-.636-1.941-1.882-1.27-4.92-2.579-7.1-.935-1.558-2.769-2.577-4.082-3.817-11.393-10.755,11.634-21.84,20.1-24.427A48.63,48.63,0,0,1,932.8,487.548c3.315,3.306,15.039,17.173,11.735,21.969-3.834,5.566-15.417-2.856-20.3-2.327C918.235,507.842,913.121,514.478,907.684,517.734Z" transform="translate(-840.821 -470.649)"/><path class="bd" d="M899.594,498.609a9.987,9.987,0,0,1-5.693,1.278c-2.459-.312-2.3-2.51-4.158-3.3-2.187-.925-6.132.012-8.721.577-1.947.425-5.71,1.358-7.223.346-1.271-.848-.582-2.476-1.379-3.523-.568-.748-1.82-1.156-2.682-1.713-7.476-4.834,9.84-12.149,16.106-14.065,12.495-3.819,25.7-2.646,33.857,3,2.164,1.5,9.671,7.929,6.969,10.647-3.134,3.155-10.9-.451-14.454.152C907.851,492.751,903.725,496.548,899.594,498.609Z" transform="translate(-840.821 -470.649)"/></g><g class="bi" transform="translate(32.047 32.612)"><path class="bd" d="M952.622,513.874a56.707,56.707,0,1,1-68.574-41.581A56.707,56.707,0,0,1,952.622,513.874Z" transform="translate(-840.824 -470.65)"/><path class="be" d="M952.612,513.828c1.173,4.789.257,8.941-4.067,12.028-3.9,2.789-6.164,3.08-7.677,8.134-1.1,3.681-.876,6.286-4.469,8.531-3.807,2.379-8.095,1.9-12.2,2.233a17.931,17.931,0,0,0-11.658,5.7c-3.437,3.551-3.946,9.758-7.476,12.824-7.1,6.165-17.584-3.806-24.976-3.53-5.5.206-6.273,2.636-9.864,6.033-13.318,12.6-24.752-15.036-27.216-25.093a56.423,56.423,0,0,1,109.6-26.857Z" transform="translate(-840.824 -470.65)"/><path class="bf" d="M919.231,500.184c-3.269,3.722-2.231,8.754-1.344,13.229,1.719,8.654,5.82,21.821-5.675,24.343-4.011.879-7.551-1.179-11.154.547-3.644,1.741-5.813,6.47-6.788,10.1-.743,2.769-.5,9.018-2.754,10.982-2.922,2.548-8.142-2.887-12.624-2.718-5.226.193-5.958,2.5-9.369,5.729-12.653,11.976-23.517-14.284-25.859-23.84a53.618,53.618,0,0,1,70.264-63.192c4.539,1.643,10.2,3.964,13.735,7.369C930.215,485.193,921.63,497.458,919.231,500.184Z" transform="translate(-840.824 -470.65)"/><path class="bg" d="M888.492,516.7c1.348,2.566,1.983,5.158,1.012,7.843-1.247,3.448-5.5,3.38-7.52,6.033-2.372,3.115-1.573,8.546-1.146,12.115.324,2.684,1.164,7.864-1.2,10.042-1.988,1.832-4.984.992-7.237,2.176-1.607.845-2.729,2.619-4.041,3.859-11.38,10.769-21.148-12.846-23.257-21.44a48.63,48.63,0,0,1,14.67-47.409c3.488-3.125,17.993-14.048,22.6-10.479,5.34,4.141-3.721,15.232-3.467,20.137C879.211,505.611,885.548,511.091,888.492,516.7Z" transform="translate(-840.824 -470.65)"/><path class="bd" d="M868.941,523.7a9.972,9.972,0,0,1,.955,5.756c-.45,2.437-2.634,2.15-3.526,3.966-1.046,2.131-.335,6.122.085,8.739.313,1.969,1.034,5.778-.062,7.232-.919,1.219-2.5.441-3.6,1.178-.779.524-1.256,1.751-1.86,2.58-5.248,7.192-11.576-10.508-13.135-16.871-3.11-12.69-1.193-25.805,4.9-33.636,1.616-2.076,8.46-9.208,11.022-6.358,2.973,3.306-1.064,10.861-.663,14.439C863.558,515.129,867.118,519.462,868.941,523.7Z" transform="translate(-840.824 -470.65)"/></g></g></svg>