<svg xmlns="http://www.w3.org/2000/svg" width="54.348" height="81.383" viewBox="0 0 54.348 81.383"><defs><style>.a{fill:#f9ef9a;}.b{fill:#3a7f9a;}.c{fill:#fdbd00;}.d{fill:#275b71;}.e{fill:#4da2c2;}</style></defs><g transform="translate(-630.42 -336.277)"><path class="a" d="M.683,0H20.6a.684.684,0,0,1,.684.684V31a.683.683,0,0,1-.683.683H.684A.684.684,0,0,1,0,31V.683A.683.683,0,0,1,.683,0Z" transform="translate(644.34 379.843) rotate(26.059)"/><g transform="translate(631.65 381.02)"><path class="b" d="M.619,0h3.75a0,0,0,0,1,0,0V4.369a0,0,0,0,1,0,0H0a0,0,0,0,1,0,0V.619A.619.619,0,0,1,.619,0Z" transform="matrix(0.439, -0.898, 0.898, 0.439, 0, 26.954)"/><rect class="b" width="4.369" height="4.369" transform="matrix(0.439, -0.898, 0.898, 0.439, 2.241, 22.371)"/><rect class="b" width="4.369" height="4.369" transform="matrix(0.439, -0.898, 0.898, 0.439, 4.482, 17.788)"/><rect class="b" width="4.369" height="4.369" transform="matrix(0.439, -0.898, 0.898, 0.439, 4.388, 29.1)"/><rect class="b" width="4.369" height="4.369" transform="translate(6.629 24.517) rotate(-63.939)"/><rect class="b" width="4.369" height="4.369" transform="translate(8.87 19.934) rotate(-63.939)"/><rect class="b" width="4.369" height="4.369" transform="matrix(0.439, -0.898, 0.898, 0.439, 6.779, 13.091)"/><rect class="b" width="4.369" height="4.369" transform="matrix(0.439, -0.898, 0.898, 0.439, 9.021, 8.508)"/><path class="b" d="M0,0H3.75a.619.619,0,0,1,.619.619v3.75a0,0,0,0,1,0,0H0a0,0,0,0,1,0,0V0A0,0,0,0,1,0,0Z" transform="matrix(0.439, -0.898, 0.898, 0.439, 11.262, 3.925)"/><rect class="b" width="4.369" height="4.369" transform="translate(11.167 15.237) rotate(-63.941)"/><rect class="b" width="4.369" height="4.369" transform="matrix(0.439, -0.898, 0.898, 0.439, 13.409, 10.654)"/><rect class="b" width="4.369" height="4.369" transform="matrix(0.439, -0.898, 0.898, 0.439, 15.65, 6.071)"/><rect class="b" width="4.369" height="4.369" transform="translate(9.087 31.398) rotate(-63.939)"/><rect class="b" width="4.369" height="4.369" transform="matrix(0.439, -0.898, 0.898, 0.439, 11.329, 26.815)"/><rect class="b" width="4.369" height="4.369" transform="matrix(0.439, -0.898, 0.898, 0.439, 13.57, 22.232)"/><path class="b" d="M0,0H4.369a0,0,0,0,1,0,0V4.369a0,0,0,0,1,0,0H.619A.619.619,0,0,1,0,3.75V0A0,0,0,0,1,0,0Z" transform="translate(13.475 33.544) rotate(-63.942)"/><rect class="b" width="4.369" height="4.369" transform="translate(15.717 28.961) rotate(-63.941)"/><rect class="b" width="4.369" height="4.369" transform="translate(17.958 24.378) rotate(-63.943)"/><rect class="b" width="4.369" height="4.369" transform="translate(15.867 17.535) rotate(-63.943)"/><rect class="b" width="4.369" height="4.369" transform="translate(18.108 12.952) rotate(-63.941)"/><rect class="b" width="4.369" height="4.369" transform="matrix(0.439, -0.898, 0.898, 0.439, 20.349, 8.369)"/><rect class="b" width="4.369" height="4.369" transform="translate(20.255 19.681) rotate(-63.941)"/><rect class="b" width="4.369" height="4.369" transform="translate(22.496 15.098) rotate(-63.942)"/><path class="b" d="M0,0H4.369a0,0,0,0,1,0,0V3.75a.619.619,0,0,1-.619.619H0a0,0,0,0,1,0,0V0A0,0,0,0,1,0,0Z" transform="translate(24.737 10.515) rotate(-63.942)"/></g><rect class="c" width="31.687" height="21.287" rx="0.684" transform="translate(651.724 364.743) rotate(-63.941)"/><g transform="translate(652.955 337.454)"><path class="d" d="M.619,0h3.75a0,0,0,0,1,0,0V4.369a0,0,0,0,1,0,0H0a0,0,0,0,1,0,0V.619A.619.619,0,0,1,.619,0Z" transform="matrix(0.439, -0.898, 0.898, 0.439, 0, 26.954)"/><rect class="d" width="4.369" height="4.369" transform="translate(2.241 22.371) rotate(-63.939)"/><rect class="d" width="4.369" height="4.369" transform="translate(4.482 17.788) rotate(-63.939)"/><rect class="d" width="4.369" height="4.369" transform="translate(4.388 29.1) rotate(-63.943)"/><rect class="d" width="4.369" height="4.369" transform="translate(6.629 24.517) rotate(-63.941)"/><rect class="d" width="4.369" height="4.369" transform="translate(8.87 19.934) rotate(-63.942)"/><rect class="d" width="4.369" height="4.369" transform="translate(6.779 13.091) rotate(-63.941)"/><rect class="d" width="4.369" height="4.369" transform="translate(9.021 8.508) rotate(-63.943)"/><path class="d" d="M0,0H3.75a.619.619,0,0,1,.619.619v3.75a0,0,0,0,1,0,0H0a0,0,0,0,1,0,0V0A0,0,0,0,1,0,0Z" transform="matrix(0.439, -0.898, 0.898, 0.439, 11.262, 3.925)"/><rect class="d" width="4.369" height="4.369" transform="matrix(0.439, -0.898, 0.898, 0.439, 11.167, 15.237)"/><rect class="d" width="4.369" height="4.369" transform="translate(13.409 10.654) rotate(-63.941)"/><rect class="d" width="4.369" height="4.369" transform="translate(15.65 6.071) rotate(-63.943)"/><rect class="d" width="4.369" height="4.369" transform="translate(9.088 31.398) rotate(-63.942)"/><rect class="d" width="4.369" height="4.369" transform="translate(11.329 26.815) rotate(-63.943)"/><rect class="d" width="4.369" height="4.369" transform="translate(13.57 22.232) rotate(-63.941)"/><path class="d" d="M0,0H4.369a0,0,0,0,1,0,0V4.369a0,0,0,0,1,0,0H.619A.619.619,0,0,1,0,3.75V0A0,0,0,0,1,0,0Z" transform="translate(13.475 33.544) rotate(-63.939)"/><rect class="d" width="4.369" height="4.369" transform="matrix(0.439, -0.898, 0.898, 0.439, 15.717, 28.961)"/><rect class="d" width="4.369" height="4.369" transform="matrix(0.439, -0.898, 0.898, 0.439, 17.958, 24.378)"/><rect class="d" width="4.369" height="4.369" transform="matrix(0.439, -0.898, 0.898, 0.439, 15.867, 17.535)"/><rect class="d" width="4.369" height="4.369" transform="matrix(0.439, -0.898, 0.898, 0.439, 18.108, 12.952)"/><rect class="d" width="4.369" height="4.369" transform="translate(20.349 8.369) rotate(-63.941)"/><rect class="d" width="4.369" height="4.369" transform="matrix(0.439, -0.898, 0.898, 0.439, 20.255, 19.681)"/><rect class="d" width="4.369" height="4.369" transform="matrix(0.439, -0.898, 0.898, 0.439, 22.496, 15.098)"/><path class="d" d="M0,0H4.369a0,0,0,0,1,0,0V3.75a.619.619,0,0,1-.619.619H0a0,0,0,0,1,0,0V0A0,0,0,0,1,0,0Z" transform="translate(24.737 10.514) rotate(-63.939)"/></g><path class="e" d="M639.689,353.314l-2.465,5.04a3.116,3.116,0,0,0,1.43,4.167l20.068,9.812a3.113,3.113,0,0,0,3.819-.879,3.677,3.677,0,1,0,3.033-6.2,3.116,3.116,0,0,0-1.652-3.555l-20.066-9.812A3.115,3.115,0,0,0,639.689,353.314Z" transform="translate(6.305 14.86)"/><rect class="e" width="16.348" height="7.472" rx="0.458" transform="translate(633.508 374.29) rotate(-63.94)"/><path class="d" d="M638.9,353.314l-1.185,2.423,30,14.671a3.639,3.639,0,0,0-2.932-5.156,3.116,3.116,0,0,0-1.652-3.555l-20.066-9.812A3.115,3.115,0,0,0,638.9,353.314Z" transform="translate(7.092 14.86)"/><path class="d" d="M636.978,348.767l-3.147,6.434,6.712,3.283,3.147-6.434a.9.9,0,0,0-.416-1.209l-5.087-2.488A.9.9,0,0,0,636.978,348.767Z" transform="translate(3.315 11.647)"/></g></svg>