<svg xmlns="http://www.w3.org/2000/svg" width="371.365" height="395.116" viewBox="0 0 371.365 395.116"><defs><style>.a{opacity:0.4;mix-blend-mode:multiply;}.a,.bb,.bc,.bi,.bj{isolation:isolate;}.aa,.ab,.ac,.ad,.ae,.af,.ag,.ah,.ai,.aj,.ak,.al,.am,.an,.ao,.ap,.aq,.ar,.as,.at,.au,.av,.aw,.ax,.ay,.az,.b,.ba,.c,.d,.e,.f,.g,.h,.i,.j,.k,.l,.m,.n,.o,.p,.q,.r,.s,.t,.u,.v,.w,.x,.y,.z{fill:#00141d;}.b{opacity:0;}.c{opacity:0.02;}.d{opacity:0.039;}.e{opacity:0.059;}.f{opacity:0.078;}.g{opacity:0.098;}.h{opacity:0.118;}.i{opacity:0.137;}.j{opacity:0.157;}.k{opacity:0.176;}.l{opacity:0.196;}.m{opacity:0.216;}.n{opacity:0.235;}.o{opacity:0.255;}.p{opacity:0.275;}.q{opacity:0.294;}.r{opacity:0.314;}.s{opacity:0.333;}.t{opacity:0.353;}.u{opacity:0.373;}.v{opacity:0.392;}.w{opacity:0.412;}.x{opacity:0.431;}.y{opacity:0.451;}.z{opacity:0.471;}.aa{opacity:0.49;}.ab{opacity:0.51;}.ac{opacity:0.529;}.ad{opacity:0.549;}.ae{opacity:0.569;}.af{opacity:0.588;}.ag{opacity:0.608;}.ah{opacity:0.627;}.ai{opacity:0.647;}.aj{opacity:0.667;}.ak{opacity:0.686;}.al{opacity:0.706;}.am{opacity:0.725;}.an{opacity:0.745;}.ao{opacity:0.765;}.ap{opacity:0.784;}.aq{opacity:0.804;}.ar{opacity:0.824;}.as{opacity:0.843;}.at{opacity:0.863;}.au{opacity:0.882;}.av{opacity:0.902;}.aw{opacity:0.922;}.ax{opacity:0.941;}.ay{opacity:0.961;}.az{opacity:0.98;}.bb,.bc{fill:#f9a322;}.bb{opacity:0.05;}.bb,.bc,.bi{mix-blend-mode:lighten;}.bc{opacity:0.1;}.bd{fill:#8e7263;}.be{fill:#f5bf94;}.bf{fill:#f29b69;}.bg{fill:#fdfcf1;}.bh{fill:#bf9572;}.bi{opacity:0.5;}.bj{opacity:0.7;mix-blend-mode:color-burn;}</style></defs><g transform="translate(14.515) rotate(3)"><g class="a" transform="translate(51.685 50.449)"><path class="b" d="M1435.791,795.748a87.238,87.238,0,1,1-87.237-87.24A87.238,87.238,0,0,1,1435.791,795.748Z" transform="translate(-1119.555 -557.057)"/><path class="c" d="M1433.012,792.778a87.238,87.238,0,1,1-87.238-87.24A87.239,87.239,0,0,1,1433.012,792.778Z" transform="translate(-1119.555 -557.057)"/><path class="d" d="M1430.231,789.809a87.237,87.237,0,1,1-87.237-87.241A87.238,87.238,0,0,1,1430.231,789.809Z" transform="translate(-1119.555 -557.057)"/><path class="e" d="M1427.452,786.839a87.238,87.238,0,1,1-87.237-87.24A87.238,87.238,0,0,1,1427.452,786.839Z" transform="translate(-1119.555 -557.057)"/><path class="f" d="M1424.673,783.869a87.238,87.238,0,1,1-87.238-87.24A87.238,87.238,0,0,1,1424.673,783.869Z" transform="translate(-1119.555 -557.057)"/><path class="g" d="M1421.893,780.9a87.238,87.238,0,1,1-87.238-87.24A87.239,87.239,0,0,1,1421.893,780.9Z" transform="translate(-1119.555 -557.057)"/><path class="h" d="M1419.113,777.93a87.238,87.238,0,1,1-87.237-87.24A87.238,87.238,0,0,1,1419.113,777.93Z" transform="translate(-1119.555 -557.057)"/><path class="i" d="M1416.334,774.96a87.238,87.238,0,1,1-87.237-87.239A87.238,87.238,0,0,1,1416.334,774.96Z" transform="translate(-1119.555 -557.057)"/><path class="j" d="M1413.554,771.99a87.238,87.238,0,1,1-87.238-87.239A87.239,87.239,0,0,1,1413.554,771.99Z" transform="translate(-1119.555 -557.057)"/><path class="k" d="M1410.774,769.021a87.238,87.238,0,1,1-87.237-87.24A87.239,87.239,0,0,1,1410.774,769.021Z" transform="translate(-1119.555 -557.057)"/><path class="l" d="M1407.995,766.052a87.238,87.238,0,1,1-87.238-87.241A87.239,87.239,0,0,1,1407.995,766.052Z" transform="translate(-1119.555 -557.057)"/><path class="m" d="M1405.215,763.082a87.238,87.238,0,1,1-87.238-87.24A87.238,87.238,0,0,1,1405.215,763.082Z" transform="translate(-1119.555 -557.057)"/><path class="n" d="M1402.435,760.112a87.238,87.238,0,1,1-87.237-87.24A87.239,87.239,0,0,1,1402.435,760.112Z" transform="translate(-1119.555 -557.057)"/><path class="o" d="M1399.656,757.142a87.237,87.237,0,1,1-87.238-87.24A87.239,87.239,0,0,1,1399.656,757.142Z" transform="translate(-1119.555 -557.057)"/><path class="p" d="M1396.876,754.173a87.238,87.238,0,1,1-87.237-87.24A87.238,87.238,0,0,1,1396.876,754.173Z" transform="translate(-1119.555 -557.057)"/><path class="q" d="M1394.1,751.2a87.238,87.238,0,1,1-87.238-87.24A87.239,87.239,0,0,1,1394.1,751.2Z" transform="translate(-1119.555 -557.057)"/><path class="r" d="M1391.317,748.233a87.237,87.237,0,1,1-87.238-87.239A87.239,87.239,0,0,1,1391.317,748.233Z" transform="translate(-1119.555 -557.057)"/><path class="s" d="M1388.537,745.264a87.238,87.238,0,1,1-87.237-87.24A87.238,87.238,0,0,1,1388.537,745.264Z" transform="translate(-1119.555 -557.057)"/><path class="t" d="M1385.758,742.294a87.238,87.238,0,1,1-87.238-87.239A87.239,87.239,0,0,1,1385.758,742.294Z" transform="translate(-1119.555 -557.057)"/><path class="u" d="M1382.978,739.324a87.237,87.237,0,1,1-87.238-87.239A87.238,87.238,0,0,1,1382.978,739.324Z" transform="translate(-1119.555 -557.057)"/><path class="v" d="M1380.2,736.354a87.237,87.237,0,1,1-87.237-87.239A87.238,87.238,0,0,1,1380.2,736.354Z" transform="translate(-1119.555 -557.057)"/><path class="w" d="M1377.419,733.385a87.238,87.238,0,1,1-87.237-87.239A87.238,87.238,0,0,1,1377.419,733.385Z" transform="translate(-1119.555 -557.057)"/><path class="x" d="M1374.64,730.415a87.238,87.238,0,1,1-87.239-87.239A87.239,87.239,0,0,1,1374.64,730.415Z" transform="translate(-1119.555 -557.057)"/><path class="y" d="M1371.859,727.445a87.237,87.237,0,1,1-87.237-87.239A87.238,87.238,0,0,1,1371.859,727.445Z" transform="translate(-1119.555 -557.057)"/><path class="z" d="M1369.08,724.476a87.238,87.238,0,1,1-87.237-87.24A87.239,87.239,0,0,1,1369.08,724.476Z" transform="translate(-1119.555 -557.057)"/><path class="aa" d="M1366.3,721.506a87.238,87.238,0,1,1-87.238-87.239A87.239,87.239,0,0,1,1366.3,721.506Z" transform="translate(-1119.555 -557.057)"/><path class="ab" d="M1363.52,718.537a87.237,87.237,0,1,1-87.237-87.239A87.237,87.237,0,0,1,1363.52,718.537Z" transform="translate(-1119.555 -557.057)"/><path class="ac" d="M1360.741,715.567a87.237,87.237,0,1,1-87.238-87.239A87.239,87.239,0,0,1,1360.741,715.567Z" transform="translate(-1119.555 -557.057)"/><path class="ad" d="M1357.962,712.6a87.238,87.238,0,1,1-87.238-87.24A87.239,87.239,0,0,1,1357.962,712.6Z" transform="translate(-1119.555 -557.057)"/><path class="ae" d="M1355.182,709.628a87.238,87.238,0,1,1-87.238-87.239A87.238,87.238,0,0,1,1355.182,709.628Z" transform="translate(-1119.555 -557.057)"/><path class="af" d="M1352.4,706.658a87.237,87.237,0,1,1-87.238-87.239A87.238,87.238,0,0,1,1352.4,706.658Z" transform="translate(-1119.555 -557.057)"/><path class="ag" d="M1349.623,703.688a87.238,87.238,0,1,1-87.238-87.239A87.239,87.239,0,0,1,1349.623,703.688Z" transform="translate(-1119.555 -557.057)"/><path class="ah" d="M1346.843,700.719a87.238,87.238,0,1,1-87.238-87.24A87.239,87.239,0,0,1,1346.843,700.719Z" transform="translate(-1119.555 -557.057)"/><path class="ai" d="M1344.063,697.749a87.237,87.237,0,1,1-87.238-87.239A87.237,87.237,0,0,1,1344.063,697.749Z" transform="translate(-1119.555 -557.057)"/><path class="aj" d="M1341.284,694.779a87.238,87.238,0,1,1-87.238-87.239A87.239,87.239,0,0,1,1341.284,694.779Z" transform="translate(-1119.555 -557.057)"/><path class="ak" d="M1338.5,691.809a87.238,87.238,0,1,1-87.237-87.239A87.239,87.239,0,0,1,1338.5,691.809Z" transform="translate(-1119.555 -557.057)"/><path class="al" d="M1335.725,688.84a87.238,87.238,0,1,1-87.239-87.238A87.239,87.239,0,0,1,1335.725,688.84Z" transform="translate(-1119.555 -557.057)"/><path class="am" d="M1332.945,685.87a87.237,87.237,0,1,1-87.238-87.238A87.238,87.238,0,0,1,1332.945,685.87Z" transform="translate(-1119.555 -557.057)"/><path class="an" d="M1330.165,682.9a87.238,87.238,0,1,1-87.237-87.238A87.239,87.239,0,0,1,1330.165,682.9Z" transform="translate(-1119.555 -557.057)"/><path class="ao" d="M1327.386,679.931a87.238,87.238,0,1,1-87.239-87.239A87.239,87.239,0,0,1,1327.386,679.931Z" transform="translate(-1119.555 -557.057)"/><path class="ap" d="M1324.606,676.961a87.237,87.237,0,1,1-87.238-87.238A87.238,87.238,0,0,1,1324.606,676.961Z" transform="translate(-1119.555 -557.057)"/><path class="aq" d="M1321.826,673.991a87.238,87.238,0,1,1-87.237-87.238A87.238,87.238,0,0,1,1321.826,673.991Z" transform="translate(-1119.555 -557.057)"/><path class="ar" d="M1319.047,671.021a87.238,87.238,0,1,1-87.239-87.238A87.239,87.239,0,0,1,1319.047,671.021Z" transform="translate(-1119.555 -557.057)"/><path class="as" d="M1316.268,668.053a87.238,87.238,0,1,1-87.239-87.24A87.239,87.239,0,0,1,1316.268,668.053Z" transform="translate(-1119.555 -557.057)"/><path class="at" d="M1313.487,665.083a87.238,87.238,0,1,1-87.238-87.239A87.238,87.238,0,0,1,1313.487,665.083Z" transform="translate(-1119.555 -557.057)"/><path class="au" d="M1310.708,662.113a87.238,87.238,0,1,1-87.238-87.239A87.239,87.239,0,0,1,1310.708,662.113Z" transform="translate(-1119.555 -557.057)"/><path class="av" d="M1307.929,659.144a87.238,87.238,0,1,1-87.239-87.239A87.239,87.239,0,0,1,1307.929,659.144Z" transform="translate(-1119.555 -557.057)"/><path class="aw" d="M1305.148,656.174a87.237,87.237,0,1,1-87.238-87.239A87.238,87.238,0,0,1,1305.148,656.174Z" transform="translate(-1119.555 -557.057)"/><path class="ax" d="M1302.369,653.2a87.237,87.237,0,1,1-87.238-87.238A87.239,87.239,0,0,1,1302.369,653.2Z" transform="translate(-1119.555 -557.057)"/><path class="ay" d="M1299.59,650.234A87.238,87.238,0,1,1,1212.351,563,87.24,87.24,0,0,1,1299.59,650.234Z" transform="translate(-1119.555 -557.057)"/><path class="az" d="M1296.809,647.265a87.237,87.237,0,1,1-87.238-87.239A87.238,87.238,0,0,1,1296.809,647.265Z" transform="translate(-1119.555 -557.057)"/><path class="ba" d="M1294.03,644.295a87.237,87.237,0,1,1-87.238-87.238A87.238,87.238,0,0,1,1294.03,644.295Z" transform="translate(-1119.555 -557.057)"/></g><path class="bb" d="M1345.209,645.276a138.669,138.669,0,1,1-138.668-138.668A138.667,138.667,0,0,1,1345.209,645.276Z" transform="translate(-1067.87 -506.608)"/><path class="bc" d="M1310.54,645.276a104,104,0,1,1-104-104A104,104,0,0,1,1310.54,645.276Z" transform="translate(-1067.87 -506.608)"/><g transform="translate(50.853 50.558)"><g transform="translate(0.025 0.023)"><path class="bd" d="M1268.726,706.29a87.6,87.6,0,1,1-.877-123.882A87.6,87.6,0,0,1,1268.726,706.29Z" transform="translate(-1118.748 -557.189)"/><path class="be" d="M1268.777,706.237c-5.348,5.427-11.551,7.583-19.115,4.4-6.829-2.877-9.044-5.613-16.916-3.507-5.735,1.53-8.979,3.939-14.842,1.035-6.211-3.08-9.064-9.105-12.821-14.236a27.72,27.72,0,0,0-16.941-10.717c-7.454-1.643-16.027,2.715-22.923.558-13.863-4.342-9.243-26.21-15.6-35.707-4.727-7.07-8.549-6.116-15.927-8.082-27.366-7.306-.281-44.74,10.949-56.129a87.159,87.159,0,0,1,124.132,122.384Z" transform="translate(-1118.748 -557.189)"/><path class="bf" d="M1259.675,651.283c-7.544-1.287-13.322,4.155-18.487,8.951-9.99,9.274-23.987,25.333-36.616,12.258-4.4-4.562-4.567-10.886-9.756-14.228-5.244-3.379-13.222-2.4-18.786-.739-4.247,1.269-12.268,6.641-16.676,5.275-5.719-1.777-2.8-13.046-6.652-18.8-4.491-6.719-8.12-5.809-15.129-7.681-26-6.94-.267-42.5,10.4-53.33A82.828,82.828,0,0,1,1288.019,624.2c1.516,7.3,3.051,16.63,1.438,24.035C1288.289,653.582,1265.2,652.225,1259.675,651.283Z" transform="translate(-1118.748 -557.189)"/><path class="bg" d="M1213.041,624.239c-2.282,3.851-5.178,6.79-9.493,7.685-5.548,1.153-8.9-4.489-14.029-5-6.02-.6-12.512,4.851-16.861,8.308-3.269,2.6-9.4,7.9-14.187,6.555-4.016-1.133-5.336-5.756-8.719-7.759-2.417-1.43-5.657-1.466-8.355-2.185-23.382-6.242-.242-38.224,9.356-47.96a75.111,75.111,0,0,1,74.241-19.119c6.932,2.051,33.051,12.278,32.087,21.224-1.12,10.377-23.047,7.451-29.292,11.756C1220.107,603.045,1218.037,615.82,1213.041,624.239Z" transform="translate(-1118.748 -557.189)"/><path class="bh" d="M1187.995,604.2c-1.875,2.668-4.018,4.842-6.8,5.92-3.568,1.381-4.963-1.724-8.076-1.43-3.65.355-8.322,4.527-11.424,7.2-2.333,2.009-6.761,6.041-9.561,5.777-2.349-.221-2.609-2.939-4.462-3.773-1.321-.6-3.322-.236-4.9-.358-13.709-1.072,4.444-23.74,11.548-30.946,14.168-14.37,32.97-22.48,48.208-20.808,4.042.446,18.967,3.667,17.3,9.347-1.942,6.586-15.148,7.4-19.529,10.828C1194.909,590.17,1192.1,598.365,1187.995,604.2Z" transform="translate(-1118.748 -557.189)"/></g><g class="bi"><path class="bd" d="M1121.662,622.38a87.6,87.6,0,1,1,62.281,107.092A87.6,87.6,0,0,1,1121.662,622.38Z" transform="translate(-1118.723 -557.166)"/><path class="be" d="M1121.643,622.451c1.949-7.367,6.259-12.316,14.407-13.311,7.354-.894,10.635.379,16.425-5.356,4.216-4.179,5.836-7.879,12.367-8.267,6.921-.414,12.39,3.4,18.2,5.985a27.706,27.706,0,0,0,20.027.89c7.287-2.275,12.566-10.316,19.619-11.867,14.188-3.116,21.039,18.159,31.27,23.247,7.616,3.791,10.457,1.065,17.838-.893,27.379-7.249,22.462,38.691,18.37,54.155a87.159,87.159,0,0,1-168.52-44.583Z" transform="translate(-1118.723 -557.166)"/><path class="bf" d="M1156.833,665.629c7.188-2.629,9.5-10.221,11.6-16.947,4.066-13.011,8.239-33.9,25.691-28.827,6.092,1.776,9.374,7.182,15.536,7.506,6.231.332,12.667-4.481,16.673-8.688,3.056-3.208,7.352-11.857,11.855-12.859,5.847-1.3,8.909,9.934,15.114,13.016,7.232,3.6,9.929,1.009,16.943-.847,26.014-6.889,21.341,36.761,17.456,51.453a82.829,82.829,0,0,1-142.021,33.778c-4.942-5.583-10.908-12.918-13.185-20.148C1130.855,677.846,1151.569,667.559,1156.833,665.629Z" transform="translate(-1118.723 -557.166)"/><path class="bg" d="M1210.741,665.945c.07-4.476,1.124-8.465,4.425-11.384,4.242-3.757,9.953-.523,14.66-2.627,5.52-2.471,8.447-10.426,10.507-15.588,1.546-3.878,4.235-11.524,9.061-12.733,4.044-1.011,7.489,2.345,11.419,2.4,2.808.042,5.64-1.538,8.336-2.251,23.4-6.2,19.194,33.055,15.7,46.273A75.115,75.115,0,0,1,1229.9,723.5c-7.035,1.66-34.786,5.757-38.391-2.487-4.181-9.567,16.3-17.911,19.588-24.751C1215.131,687.85,1210.585,675.734,1210.741,665.945Z" transform="translate(-1118.723 -557.166)"/><path class="bh" d="M1242.433,670.9c.3-3.247,1.082-6.2,2.961-8.512,2.411-2.972,5.162-.966,7.715-2.773,2.993-2.117,4.979-8.057,6.344-11.917,1.026-2.9,2.867-8.6,5.429-9.764,2.147-.974,3.722,1.254,5.747,1.061,1.443-.136,3-1.448,4.432-2.125,12.434-5.877,7.934,22.811,5.346,32.6-5.162,19.51-17.453,35.884-31.509,42-3.729,1.621-18.284,6.234-19.652.477-1.588-6.682,9.472-13.946,11.571-19.1C1243.4,686.512,1241.771,678,1242.433,670.9Z" transform="translate(-1118.723 -557.166)"/></g></g><g class="bj" transform="translate(50.854 50.556)"><path class="bd" d="M1289.351,672.789a87.6,87.6,0,1,1-55-111.005A87.6,87.6,0,0,1,1289.351,672.789Z" transform="translate(-1118.724 -557.164)"/><path class="be" d="M1289.375,672.72c-2.435,7.219-7.068,11.872-15.264,12.321-7.4.4-10.588-1.089-16.744,4.249-4.487,3.887-6.349,7.472-12.891,7.427-6.933-.052-12.135-4.22-17.758-7.19a27.717,27.717,0,0,0-19.925-2.222c-7.421,1.785-13.222,9.454-20.366,10.532-14.364,2.163-19.781-19.523-29.65-25.28-7.344-4.29-10.362-1.759-17.857-.3-27.8,5.407-19.832-40.1-14.719-55.261a87.16,87.16,0,0,1,165.174,55.722Z" transform="translate(-1118.724 -557.164)"/><path class="bf" d="M1257.141,627.291c-7.346,2.143-10.161,9.565-12.707,16.138-4.922,12.71-10.48,33.276-27.557,27.046-5.959-2.175-8.871-7.791-15-8.525-6.194-.744-12.939,3.627-17.215,7.558-3.264,3-8.125,11.34-12.685,12.039-5.922.907-8.227-10.505-14.21-13.994-6.979-4.075-9.843-1.67-16.964-.286-26.417,5.14-18.843-38.1-13.984-52.5a82.827,82.827,0,0,1,143.954-24.231c4.561,5.9,10.022,13.617,11.812,20.983C1283.875,616.834,1262.523,625.718,1257.141,627.291Z" transform="translate(-1118.724 -557.164)"/><path class="bg" d="M1203.375,623.381c-.367,4.462-1.686,8.371-5.173,11.064-4.485,3.465-9.968-.14-14.8,1.645-5.673,2.1-9.127,9.839-11.524,14.849-1.8,3.769-4.995,11.218-9.887,12.1-4.109.739-7.319-2.841-11.235-3.161-2.8-.228-5.73,1.157-8.47,1.69-23.756,4.622-16.943-34.263-12.575-47.216a75.114,75.114,0,0,1,58.387-49.681c7.131-1.189,35.091-3.424,38.14,5.042,3.534,9.822-17.462,16.786-21.193,23.389C1200.453,601.231,1204.183,613.625,1203.375,623.381Z" transform="translate(-1118.724 -557.164)"/><path class="bh" d="M1172.084,616.324c-.518,3.22-1.493,6.11-3.521,8.3-2.6,2.8-5.215.622-7.885,2.249-3.128,1.915-5.5,7.712-7.124,11.472-1.218,2.826-3.434,8.389-6.069,9.378-2.209.829-3.63-1.5-5.662-1.44-1.45.037-3.09,1.241-4.565,1.824-12.8,5.036-6.394-23.29-3.161-32.88,6.452-19.121,19.809-34.64,34.243-39.806,3.828-1.366,18.658-5,19.64.836,1.137,6.771-10.383,13.282-12.821,18.283C1172.161,600.683,1173.218,609.281,1172.084,616.324Z" transform="translate(-1118.724 -557.164)"/><g class="bi" transform="translate(0.006 0.004)"><path class="bd" d="M1120.4,661.7a87.6,87.6,0,1,1,102.868,69.037A87.6,87.6,0,0,1,1120.4,661.7Z" transform="translate(-1118.73 -557.169)"/><path class="be" d="M1120.41,661.771c-1.47-7.478.238-13.814,7.129-18.274,6.222-4.022,9.73-4.313,12.425-12,1.963-5.6,1.8-9.639,7.5-12.846,6.043-3.4,12.628-2.368,18.981-2.581a27.718,27.718,0,0,0,18.4-7.963c5.555-5.236,6.783-14.775,12.446-19.257,11.393-9.01,26.863,7.12,38.29,7.219,8.508.075,9.868-3.619,15.647-8.608,21.446-18.5,37.13,24.959,40.218,40.653a87.159,87.159,0,1,1-171.037,33.661Z" transform="translate(-1118.73 -557.169)"/><path class="bf" d="M1170.947,685.2c5.314-5.51,4.071-13.348,3.017-20.317-2.039-13.478-7.429-34.089,10.486-37.161,6.253-1.07,11.569,2.354,17.254-.05,5.747-2.428,9.428-9.573,11.189-15.109,1.344-4.221,1.42-13.878,5.034-16.75,4.687-3.728,12.356,5.034,19.284,5.089,8.079.074,9.37-3.438,14.864-8.175,20.376-17.58,35.276,23.714,38.212,38.626a82.828,82.828,0,0,1-112.918,92.522c-6.886-2.858-15.459-6.843-20.672-12.346C1152.936,707.548,1167.058,689.234,1170.947,685.2Z" transform="translate(-1118.73 -557.169)"/><path class="bg" d="M1219.558,661.889c-1.9-4.057-2.694-8.1-1-12.174,2.171-5.236,8.72-4.825,12.034-8.777,3.881-4.638,3.032-13.072,2.625-18.614-.308-4.165-1.237-12.215,2.574-15.415,3.2-2.68,7.76-1.169,11.319-2.836,2.543-1.19,4.4-3.851,6.511-5.672,18.325-15.807,31.725,21.324,34.363,34.738a75.115,75.115,0,0,1-26.005,72.118c-5.6,4.571-28.76,20.4-35.611,14.563-7.944-6.772,6.824-23.24,6.782-30.827C1233.092,679.663,1223.7,670.758,1219.558,661.889Z" transform="translate(-1118.73 -557.169)"/><path class="bh" d="M1250.223,652.476c-1.152-3.052-1.74-6.047-1.062-8.952.864-3.727,4.216-3.127,5.723-5.87,1.764-3.213.95-9.423.488-13.49-.347-3.06-1.184-8.99.61-11.154,1.5-1.818,3.895-.5,5.63-1.563,1.24-.754,2.064-2.615,3.058-3.849,8.606-10.726,17.113,17.038,19.069,26.968,3.9,19.8.01,39.9-9.952,51.554-2.643,3.089-13.711,13.608-17.462,9.028-4.351-5.313,2.414-16.685,2.047-22.234C1257.923,666.088,1252.734,659.147,1250.223,652.476Z" transform="translate(-1118.73 -557.169)"/></g></g></g></svg>