<svg xmlns="http://www.w3.org/2000/svg" width="151.838" height="161.55" viewBox="0 0 151.838 161.55"><defs><style>.a{opacity:0.4;}.a,.bi{mix-blend-mode:multiply;}.a,.bb,.bc,.bi{isolation:isolate;}.aa,.ab,.ac,.ad,.ae,.af,.ag,.ah,.ai,.aj,.ak,.al,.am,.an,.ao,.ap,.aq,.ar,.as,.at,.au,.av,.aw,.ax,.ay,.az,.b,.ba,.c,.d,.e,.f,.g,.h,.i,.j,.k,.l,.m,.n,.o,.p,.q,.r,.s,.t,.u,.v,.w,.x,.y,.z{fill:#00141d;}.b{opacity:0;}.c{opacity:0.02;}.d{opacity:0.039;}.e{opacity:0.059;}.f{opacity:0.078;}.g{opacity:0.098;}.h{opacity:0.118;}.i{opacity:0.137;}.j{opacity:0.157;}.k{opacity:0.176;}.l{opacity:0.196;}.m{opacity:0.216;}.n{opacity:0.235;}.o{opacity:0.255;}.p{opacity:0.275;}.q{opacity:0.294;}.r{opacity:0.314;}.s{opacity:0.333;}.t{opacity:0.353;}.u{opacity:0.373;}.v{opacity:0.392;}.w{opacity:0.412;}.x{opacity:0.431;}.y{opacity:0.451;}.z{opacity:0.471;}.aa{opacity:0.49;}.ab{opacity:0.51;}.ac{opacity:0.529;}.ad{opacity:0.549;}.ae{opacity:0.569;}.af{opacity:0.588;}.ag{opacity:0.608;}.ah{opacity:0.627;}.ai{opacity:0.647;}.aj{opacity:0.667;}.ak{opacity:0.686;}.al{opacity:0.706;}.am{opacity:0.725;}.an{opacity:0.745;}.ao{opacity:0.765;}.ap{opacity:0.784;}.aq{opacity:0.804;}.ar{opacity:0.824;}.as{opacity:0.843;}.at{opacity:0.863;}.au{opacity:0.882;}.av{opacity:0.902;}.aw{opacity:0.922;}.ax{opacity:0.941;}.ay{opacity:0.961;}.az{opacity:0.98;}.bb,.bc{fill:#f9a322;mix-blend-mode:lighten;}.bb{opacity:0.05;}.bc{opacity:0.1;}.bd{fill:#78120e;}.be{fill:#b73d00;}.bf{fill:#d81900;}.bg{fill:#ca3700;}.bh{fill:#f18d2f;}</style></defs><g transform="translate(5.934) rotate(3)"><g class="a" transform="translate(20.669 20.163)"><path class="b" d="M1106.731,720.4a35.668,35.668,0,1,1-35.668-35.668A35.667,35.667,0,0,1,1106.731,720.4Z" transform="translate(-976.97 -622.344)"/><path class="c" d="M1105.595,719.186a35.668,35.668,0,1,1-35.669-35.667A35.668,35.668,0,0,1,1105.595,719.186Z" transform="translate(-976.97 -622.344)"/><path class="d" d="M1104.458,717.972a35.669,35.669,0,1,1-35.669-35.668A35.669,35.669,0,0,1,1104.458,717.972Z" transform="translate(-976.97 -622.344)"/><path class="e" d="M1103.322,716.758a35.669,35.669,0,1,1-35.669-35.668A35.669,35.669,0,0,1,1103.322,716.758Z" transform="translate(-976.97 -622.344)"/><path class="f" d="M1102.185,715.544a35.668,35.668,0,1,1-35.668-35.668A35.668,35.668,0,0,1,1102.185,715.544Z" transform="translate(-976.97 -622.344)"/><path class="g" d="M1101.049,714.329a35.668,35.668,0,1,1-35.669-35.668A35.669,35.669,0,0,1,1101.049,714.329Z" transform="translate(-976.97 -622.344)"/><path class="h" d="M1099.912,713.115a35.669,35.669,0,1,1-35.669-35.668A35.669,35.669,0,0,1,1099.912,713.115Z" transform="translate(-976.97 -622.344)"/><path class="i" d="M1098.776,711.9a35.669,35.669,0,1,1-35.669-35.669A35.668,35.668,0,0,1,1098.776,711.9Z" transform="translate(-976.97 -622.344)"/><path class="j" d="M1097.64,710.686a35.669,35.669,0,1,1-35.669-35.667A35.668,35.668,0,0,1,1097.64,710.686Z" transform="translate(-976.97 -622.344)"/><path class="k" d="M1096.5,709.473a35.669,35.669,0,1,1-35.669-35.668A35.669,35.669,0,0,1,1096.5,709.473Z" transform="translate(-976.97 -622.344)"/><path class="l" d="M1095.366,708.258A35.668,35.668,0,1,1,1059.7,672.59,35.669,35.669,0,0,1,1095.366,708.258Z" transform="translate(-976.97 -622.344)"/><path class="m" d="M1094.229,707.044a35.668,35.668,0,1,1-35.668-35.668A35.668,35.668,0,0,1,1094.229,707.044Z" transform="translate(-976.97 -622.344)"/><path class="n" d="M1093.094,705.83a35.668,35.668,0,1,1-35.669-35.668A35.669,35.669,0,0,1,1093.094,705.83Z" transform="translate(-976.97 -622.344)"/><path class="o" d="M1091.957,704.615a35.669,35.669,0,1,1-35.669-35.668A35.669,35.669,0,0,1,1091.957,704.615Z" transform="translate(-976.97 -622.344)"/><path class="p" d="M1090.82,703.4a35.668,35.668,0,1,1-35.669-35.668A35.668,35.668,0,0,1,1090.82,703.4Z" transform="translate(-976.97 -622.344)"/><circle class="q" cx="35.668" cy="35.668" r="35.668" transform="translate(40.912 44.648) rotate(-0.754)"/><path class="r" d="M1088.547,700.973a35.668,35.668,0,1,1-35.668-35.668A35.669,35.669,0,0,1,1088.547,700.973Z" transform="translate(-976.97 -622.344)"/><path class="s" d="M1087.411,699.759a35.669,35.669,0,1,1-35.669-35.668A35.669,35.669,0,0,1,1087.411,699.759Z" transform="translate(-976.97 -622.344)"/><path class="t" d="M1086.274,698.545a35.668,35.668,0,1,1-35.669-35.669A35.669,35.669,0,0,1,1086.274,698.545Z" transform="translate(-976.97 -622.344)"/><path class="u" d="M1085.138,697.33a35.668,35.668,0,1,1-35.669-35.668A35.669,35.669,0,0,1,1085.138,697.33Z" transform="translate(-976.97 -622.344)"/><path class="v" d="M1084,696.116a35.668,35.668,0,1,1-35.668-35.668A35.669,35.669,0,0,1,1084,696.116Z" transform="translate(-976.97 -622.344)"/><path class="w" d="M1082.865,694.9a35.668,35.668,0,1,1-35.669-35.669A35.669,35.669,0,0,1,1082.865,694.9Z" transform="translate(-976.97 -622.344)"/><path class="x" d="M1081.728,693.688a35.668,35.668,0,1,1-35.669-35.668A35.667,35.667,0,0,1,1081.728,693.688Z" transform="translate(-976.97 -622.344)"/><path class="y" d="M1080.592,692.474a35.669,35.669,0,1,1-35.669-35.669A35.669,35.669,0,0,1,1080.592,692.474Z" transform="translate(-976.97 -622.344)"/><circle class="z" cx="35.669" cy="35.669" r="35.669" transform="translate(30.706 104.137) rotate(-89.284)"/><path class="aa" d="M1078.318,690.045a35.668,35.668,0,1,1-35.668-35.668A35.668,35.668,0,0,1,1078.318,690.045Z" transform="translate(-976.97 -622.344)"/><path class="ab" d="M1077.183,688.831a35.668,35.668,0,1,1-35.669-35.669A35.67,35.67,0,0,1,1077.183,688.831Z" transform="translate(-976.97 -622.344)"/><path class="ac" d="M1076.046,687.616a35.669,35.669,0,1,1-35.669-35.668A35.669,35.669,0,0,1,1076.046,687.616Z" transform="translate(-976.97 -622.344)"/><path class="ad" d="M1074.909,686.4a35.668,35.668,0,1,1-35.668-35.668A35.668,35.668,0,0,1,1074.909,686.4Z" transform="translate(-976.97 -622.344)"/><circle class="ae" cx="35.669" cy="35.669" r="35.669" transform="translate(25.036 98.079) rotate(-89.306)"/><path class="af" d="M1072.636,683.974a35.668,35.668,0,1,1-35.668-35.668A35.668,35.668,0,0,1,1072.636,683.974Z" transform="translate(-976.97 -622.344)"/><path class="ag" d="M1071.5,682.76a35.668,35.668,0,1,1-35.669-35.669A35.67,35.67,0,0,1,1071.5,682.76Z" transform="translate(-976.97 -622.344)"/><circle class="ah" cx="35.668" cy="35.668" r="35.668" transform="matrix(1, -0.013, 0.013, 1, 21.582, 24.016)"/><path class="ai" d="M1069.226,680.331a35.667,35.667,0,1,1-35.668-35.668A35.668,35.668,0,0,1,1069.226,680.331Z" transform="translate(-976.97 -622.344)"/><circle class="aj" cx="35.668" cy="35.668" r="35.668" transform="matrix(1, -0.013, 0.013, 1, 19.333, 21.563)"/><path class="ak" d="M1066.954,677.9a35.668,35.668,0,1,1-35.669-35.669A35.669,35.669,0,0,1,1066.954,677.9Z" transform="translate(-976.97 -622.344)"/><path class="al" d="M1065.817,676.688a35.669,35.669,0,1,1-35.669-35.667A35.668,35.668,0,0,1,1065.817,676.688Z" transform="translate(-976.97 -622.344)"/><circle class="am" cx="35.668" cy="35.668" r="35.668" transform="translate(15.924 17.92) rotate(-0.73)"/><circle class="an" cx="35.669" cy="35.669" r="35.669" transform="translate(14.808 87.151) rotate(-89.306)"/><circle class="ao" cx="35.668" cy="35.668" r="35.668" transform="translate(13.623 15.519) rotate(-0.774)"/><path class="ap" d="M1061.271,671.832a35.668,35.668,0,1,1-35.669-35.669A35.669,35.669,0,0,1,1061.271,671.832Z" transform="translate(-976.97 -622.344)"/><circle class="aq" cx="35.669" cy="35.669" r="35.669" transform="translate(11.399 83.509) rotate(-89.306)"/><circle class="ar" cx="35.668" cy="35.668" r="35.668" transform="matrix(1, -0.013, 0.013, 1, 10.241, 11.849)"/><circle class="as" cx="35.669" cy="35.669" r="35.669" transform="matrix(0.013, -1, 1, 0.013, 9.092, 81.046)"/><path class="at" d="M1056.725,666.975a35.668,35.668,0,1,1-35.668-35.668A35.669,35.669,0,0,1,1056.725,666.975Z" transform="translate(-976.97 -622.344)"/><circle class="au" cx="35.669" cy="35.669" r="35.669" transform="translate(6.853 78.651) rotate(-89.306)"/><circle class="av" cx="35.669" cy="35.669" r="35.669" transform="translate(5.724 77.445) rotate(-89.318)"/><circle class="aw" cx="35.668" cy="35.668" r="35.668" transform="matrix(1, -0.014, 0.014, 1, 4.521, 5.815)"/><circle class="ax" cx="35.669" cy="35.669" r="35.669" transform="translate(3.409 74.974) rotate(-89.251)"/><circle class="ay" cx="35.668" cy="35.668" r="35.668" transform="translate(2.262 3.374) rotate(-0.769)"/><circle class="az" cx="35.669" cy="35.669" r="35.669" transform="translate(1.17 72.58) rotate(-89.306)"/><circle class="ba" cx="35.669" cy="35.669" r="35.669" transform="translate(0 71.332) rotate(-89.251)"/></g><path class="bb" d="M1069.694,658.878a56.7,56.7,0,1,1-56.7-56.7A56.695,56.695,0,0,1,1069.694,658.878Z" transform="translate(-956.301 -602.181)"/><path class="bc" d="M1055.521,658.878A42.522,42.522,0,1,1,1013,616.355,42.524,42.524,0,0,1,1055.521,658.878Z" transform="translate(-956.301 -602.181)"/><g transform="translate(20.977 20.847)"><path class="bd" d="M1048.91,658.844a35.816,35.816,0,1,1-35.815-35.816A35.815,35.815,0,0,1,1048.91,658.844Z" transform="translate(-977.278 -623.028)"/><path class="be" d="M1048.91,658.814c0,3.116-1.185,5.525-4.3,6.768-2.812,1.124-4.244.963-5.931,3.836-1.23,2.092-1.483,3.724-4.025,4.56-2.692.887-5.251-.049-7.819-.462a11.32,11.32,0,0,0-8.009,1.742c-2.641,1.662-3.886,5.392-6.514,6.743-5.28,2.714-10.213-4.978-14.79-5.92-3.407-.7-4.245.674-6.959,2.219-10.063,5.728-12.923-12.946-12.923-19.486a35.636,35.636,0,0,1,71.272,0Z" transform="translate(-977.278 -623.028)"/><path class="bf" d="M1030.486,645.428c-2.565,1.791-2.685,5.034-2.813,7.912-.246,5.568.29,14.262-7.141,14.081-2.594-.064-4.455-1.858-6.927-1.342-2.5.52-4.537,3.1-5.679,5.177-.875,1.587-1.668,5.457-3.342,6.323-2.177,1.124-4.562-3-7.335-3.566-3.235-.666-4.031.641-6.609,2.108-9.563,5.442-12.28-12.3-12.28-18.513a33.867,33.867,0,0,1,52.6-28.2c2.537,1.693,5.66,3.966,7.317,6.586C1039.476,637.882,1032.367,644.114,1030.486,645.428Z" transform="translate(-977.278 -623.028)"/><path class="bg" d="M1009.145,650.94a5.951,5.951,0,0,1-.558,4.962c-1.285,1.928-3.881,1.248-5.52,2.572-1.923,1.553-2.251,5.005-2.524,7.258-.206,1.7-.469,5-2.248,5.981-1.5.826-3.207-.142-4.767.247a13.476,13.476,0,0,0-3.059,1.761c-8.6,4.9-11.043-11.06-11.043-16.651a30.713,30.713,0,0,1,16.127-26.876c2.608-1.393,13.148-5.914,15.435-3.032,2.654,3.343-4.573,8.784-5.155,11.832C1005.119,642.74,1008.183,647.055,1009.145,650.94Z" transform="translate(-977.278 -623.028)"/><path class="bh" d="M994.217,653.237a6.282,6.282,0,0,1-.28,3.673c-.642,1.428-1.94.924-2.759,1.9-.962,1.151-1.126,3.707-1.263,5.374-.1,1.255-.233,3.7-1.125,4.428-.746.61-1.6-.106-2.382.181-.558.205-1.034.886-1.528,1.3-4.3,3.623-5.523-8.187-5.523-12.326,0-8.252,3.146-16.008,8.063-19.9,1.3-1.029,6.575-4.377,7.717-2.242,1.328,2.474-2.286,6.5-2.577,8.758C992.2,647.169,993.734,650.361,994.217,653.237Z" transform="translate(-977.278 -623.028)"/><g class="bi"><path class="bd" d="M1013.094,623.028a35.816,35.816,0,1,1-35.816,35.816A35.816,35.816,0,0,1,1013.094,623.028Z" transform="translate(-977.278 -623.028)"/><path class="be" d="M1013.064,623.028c3.116,0,5.525,1.186,6.768,4.3,1.124,2.813.963,4.242,3.836,5.931,2.092,1.23,3.724,1.483,4.561,4.024.886,2.693-.049,5.251-.463,7.819a11.324,11.324,0,0,0,1.742,8.009c1.662,2.643,5.392,3.887,6.743,6.514,2.715,5.281-4.978,10.214-5.92,14.79-.7,3.408.674,4.245,2.219,6.958,5.728,10.065-12.945,12.924-19.486,12.924a35.636,35.636,0,0,1,0-71.272Z" transform="translate(-977.278 -623.028)"/><path class="bf" d="M999.677,641.452c1.792,2.567,5.034,2.687,7.913,2.813,5.568.247,14.261-.288,14.08,7.142-.063,2.593-1.857,4.454-1.341,6.926.521,2.5,3.1,4.537,5.178,5.681,1.587.874,5.456,1.666,6.322,3.34,1.125,2.177-3,4.562-3.565,7.334-.667,3.238.641,4.033,2.107,6.612,5.442,9.561-12.3,12.279-18.514,12.279a33.866,33.866,0,0,1-28.2-52.6c1.693-2.537,3.967-5.662,6.587-7.318C992.131,632.462,998.365,639.571,999.677,641.452Z" transform="translate(-977.278 -623.028)"/><path class="bg" d="M1005.19,662.793a5.965,5.965,0,0,1,4.963.559c1.928,1.284,1.246,3.88,2.572,5.519,1.552,1.924,5,2.251,7.257,2.525,1.7.205,5,.468,5.981,2.248.825,1.495-.142,3.207.246,4.766a13.487,13.487,0,0,0,1.762,3.06c4.9,8.6-11.06,11.043-16.65,11.043a30.713,30.713,0,0,1-26.877-16.126c-1.393-2.61-5.914-13.151-3.032-15.436,3.343-2.653,8.784,4.571,11.831,5.154C996.99,666.82,1001.3,663.756,1005.19,662.793Z" transform="translate(-977.278 -623.028)"/><path class="bh" d="M1007.487,677.722a6.281,6.281,0,0,1,3.673.28c1.428.643.924,1.938,1.9,2.76,1.151.961,3.706,1.124,5.374,1.261,1.255.1,3.7.235,4.428,1.125.609.748-.106,1.6.18,2.382.206.557.886,1.035,1.3,1.529,3.624,4.3-8.187,5.522-12.325,5.522-8.252,0-16.008-3.146-19.9-8.064-1.029-1.3-4.377-6.574-2.243-7.716,2.476-1.327,6.5,2.287,8.758,2.577C1001.419,679.735,1004.611,678.2,1007.487,677.722Z" transform="translate(-977.278 -623.028)"/></g></g></g></svg>