<svg xmlns="http://www.w3.org/2000/svg" width="102.724" height="119.91" viewBox="0 0 102.724 119.91"><defs><style>.a{opacity:0.4;mix-blend-mode:multiply;}.a,.bb,.bh{isolation:isolate;}.aa,.ab,.ac,.ad,.ae,.af,.ag,.ah,.ai,.aj,.ak,.al,.am,.an,.ao,.ap,.aq,.ar,.as,.at,.au,.av,.aw,.ax,.ay,.az,.b,.ba,.c,.d,.e,.f,.g,.h,.i,.j,.k,.l,.m,.n,.o,.p,.q,.r,.s,.t,.u,.v,.w,.x,.y,.z{fill:#00141d;}.b{opacity:0;}.c{opacity:0.02;}.d{opacity:0.039;}.e{opacity:0.059;}.f{opacity:0.078;}.g{opacity:0.098;}.h{opacity:0.118;}.i{opacity:0.137;}.j{opacity:0.157;}.k{opacity:0.176;}.l{opacity:0.196;}.m{opacity:0.216;}.n{opacity:0.235;}.o{opacity:0.255;}.p{opacity:0.275;}.q{opacity:0.294;}.r{opacity:0.314;}.s{opacity:0.333;}.t{opacity:0.353;}.u{opacity:0.373;}.v{opacity:0.392;}.w{opacity:0.412;}.x{opacity:0.431;}.y{opacity:0.451;}.z{opacity:0.471;}.aa{opacity:0.49;}.ab{opacity:0.51;}.ac{opacity:0.529;}.ad{opacity:0.549;}.ae{opacity:0.569;}.af{opacity:0.588;}.ag{opacity:0.608;}.ah{opacity:0.627;}.ai{opacity:0.647;}.aj{opacity:0.667;}.ak{opacity:0.686;}.al{opacity:0.706;}.am{opacity:0.725;}.an{opacity:0.745;}.ao{opacity:0.765;}.ap{opacity:0.784;}.aq{opacity:0.804;}.ar{opacity:0.824;}.as{opacity:0.843;}.at{opacity:0.863;}.au{opacity:0.882;}.av{opacity:0.902;}.aw{opacity:0.922;}.ax{opacity:0.941;}.ay{opacity:0.961;}.az{opacity:0.98;}.bb{fill:#f9a322;opacity:0.1;mix-blend-mode:lighten;}.bc{fill:#6aa680;}.bd{fill:#5b7a88;}.be{fill:#813352;}.bf{fill:#dc6c4e;}.bg{fill:#ffeb5e;}.bh{opacity:0.43;mix-blend-mode:hard-light;}</style></defs><g transform="matrix(0.985, 0.174, -0.174, 0.985, 4.557, -10.739)"><g class="a" transform="translate(18.759 18.4)"><path class="b" d="M616.2,480.78a25.36,25.36,0,1,1-25.36-25.36A25.36,25.36,0,0,1,616.2,480.78Z" transform="translate(-524.266 -411.393)"/><path class="c" d="M615.388,479.917a25.36,25.36,0,1,1-25.361-25.36A25.361,25.361,0,0,1,615.388,479.917Z" transform="translate(-524.266 -411.393)"/><path class="d" d="M614.579,479.054a25.36,25.36,0,1,1-25.36-25.361A25.36,25.36,0,0,1,614.579,479.054Z" transform="translate(-524.266 -411.393)"/><path class="e" d="M613.771,478.19a25.359,25.359,0,1,1-25.36-25.36A25.36,25.36,0,0,1,613.771,478.19Z" transform="translate(-524.266 -411.393)"/><path class="f" d="M612.963,477.327a25.36,25.36,0,1,1-25.361-25.36A25.36,25.36,0,0,1,612.963,477.327Z" transform="translate(-524.266 -411.393)"/><path class="g" d="M612.155,476.464a25.36,25.36,0,1,1-25.36-25.36A25.36,25.36,0,0,1,612.155,476.464Z" transform="translate(-524.266 -411.393)"/><path class="h" d="M611.347,475.6a25.36,25.36,0,1,1-25.36-25.361A25.36,25.36,0,0,1,611.347,475.6Z" transform="translate(-524.266 -411.393)"/><path class="i" d="M610.539,474.737a25.36,25.36,0,1,1-25.36-25.36A25.361,25.361,0,0,1,610.539,474.737Z" transform="translate(-524.266 -411.393)"/><path class="j" d="M609.731,473.874a25.359,25.359,0,1,1-25.36-25.36A25.36,25.36,0,0,1,609.731,473.874Z" transform="translate(-524.266 -411.393)"/><path class="k" d="M608.923,473.011a25.36,25.36,0,1,1-25.361-25.361A25.361,25.361,0,0,1,608.923,473.011Z" transform="translate(-524.266 -411.393)"/><path class="l" d="M608.115,472.147a25.36,25.36,0,1,1-25.36-25.36A25.36,25.36,0,0,1,608.115,472.147Z" transform="translate(-524.266 -411.393)"/><path class="m" d="M607.307,471.284a25.36,25.36,0,1,1-25.361-25.36A25.361,25.361,0,0,1,607.307,471.284Z" transform="translate(-524.266 -411.393)"/><path class="n" d="M606.5,470.421a25.36,25.36,0,1,1-25.36-25.361A25.36,25.36,0,0,1,606.5,470.421Z" transform="translate(-524.266 -411.393)"/><path class="o" d="M605.69,469.558A25.359,25.359,0,1,1,580.331,444.2,25.359,25.359,0,0,1,605.69,469.558Z" transform="translate(-524.266 -411.393)"/><path class="p" d="M604.883,468.694a25.36,25.36,0,1,1-25.361-25.36A25.361,25.361,0,0,1,604.883,468.694Z" transform="translate(-524.266 -411.393)"/><path class="q" d="M604.075,467.831a25.36,25.36,0,1,1-25.36-25.36A25.36,25.36,0,0,1,604.075,467.831Z" transform="translate(-524.266 -411.393)"/><path class="r" d="M603.267,466.968a25.36,25.36,0,1,1-25.361-25.361A25.361,25.361,0,0,1,603.267,466.968Z" transform="translate(-524.266 -411.393)"/><path class="s" d="M602.459,466.105a25.36,25.36,0,1,1-25.36-25.361A25.36,25.36,0,0,1,602.459,466.105Z" transform="translate(-524.266 -411.393)"/><path class="t" d="M601.65,465.241a25.359,25.359,0,1,1-25.359-25.36A25.359,25.359,0,0,1,601.65,465.241Z" transform="translate(-524.266 -411.393)"/><path class="u" d="M600.843,464.378a25.36,25.36,0,1,1-25.361-25.361A25.361,25.361,0,0,1,600.843,464.378Z" transform="translate(-524.266 -411.393)"/><path class="v" d="M600.034,463.515a25.359,25.359,0,1,1-25.359-25.361A25.359,25.359,0,0,1,600.034,463.515Z" transform="translate(-524.266 -411.393)"/><path class="w" d="M599.226,462.651a25.359,25.359,0,1,1-25.36-25.36A25.36,25.36,0,0,1,599.226,462.651Z" transform="translate(-524.266 -411.393)"/><path class="x" d="M598.419,461.788a25.36,25.36,0,1,1-25.361-25.36A25.361,25.361,0,0,1,598.419,461.788Z" transform="translate(-524.266 -411.393)"/><path class="y" d="M597.61,460.925a25.359,25.359,0,1,1-25.359-25.361A25.359,25.359,0,0,1,597.61,460.925Z" transform="translate(-524.266 -411.393)"/><path class="z" d="M596.8,460.061a25.36,25.36,0,1,1-25.361-25.36A25.361,25.361,0,0,1,596.8,460.061Z" transform="translate(-524.266 -411.393)"/><path class="aa" d="M595.994,459.2a25.36,25.36,0,1,1-25.359-25.36A25.359,25.359,0,0,1,595.994,459.2Z" transform="translate(-524.266 -411.393)"/><path class="ab" d="M595.186,458.335a25.359,25.359,0,1,1-25.36-25.36A25.36,25.36,0,0,1,595.186,458.335Z" transform="translate(-524.266 -411.393)"/><path class="ac" d="M594.378,457.472a25.359,25.359,0,1,1-25.36-25.36A25.36,25.36,0,0,1,594.378,457.472Z" transform="translate(-524.266 -411.393)"/><path class="ad" d="M593.57,456.608a25.36,25.36,0,1,1-25.36-25.36A25.36,25.36,0,0,1,593.57,456.608Z" transform="translate(-524.266 -411.393)"/><path class="ae" d="M592.762,455.745a25.359,25.359,0,1,1-25.36-25.36A25.36,25.36,0,0,1,592.762,455.745Z" transform="translate(-524.266 -411.393)"/><path class="af" d="M591.954,454.882a25.36,25.36,0,1,1-25.359-25.36A25.36,25.36,0,0,1,591.954,454.882Z" transform="translate(-524.266 -411.393)"/><path class="ag" d="M591.146,454.019a25.359,25.359,0,1,1-25.36-25.36A25.36,25.36,0,0,1,591.146,454.019Z" transform="translate(-524.266 -411.393)"/><path class="ah" d="M590.338,453.155a25.359,25.359,0,1,1-25.36-25.36A25.36,25.36,0,0,1,590.338,453.155Z" transform="translate(-524.266 -411.393)"/><path class="ai" d="M589.53,452.292a25.36,25.36,0,1,1-25.36-25.36A25.36,25.36,0,0,1,589.53,452.292Z" transform="translate(-524.266 -411.393)"/><path class="aj" d="M588.722,451.429a25.359,25.359,0,1,1-25.36-25.36A25.36,25.36,0,0,1,588.722,451.429Z" transform="translate(-524.266 -411.393)"/><path class="ak" d="M587.914,450.565a25.36,25.36,0,1,1-25.359-25.359A25.36,25.36,0,0,1,587.914,450.565Z" transform="translate(-524.266 -411.393)"/><path class="al" d="M587.1,449.7a25.359,25.359,0,1,1-25.359-25.36A25.358,25.358,0,0,1,587.1,449.7Z" transform="translate(-524.266 -411.393)"/><path class="am" d="M586.3,448.839a25.36,25.36,0,1,1-25.36-25.36A25.36,25.36,0,0,1,586.3,448.839Z" transform="translate(-524.266 -411.393)"/><path class="an" d="M585.49,447.976a25.36,25.36,0,1,1-25.36-25.36A25.36,25.36,0,0,1,585.49,447.976Z" transform="translate(-524.266 -411.393)"/><path class="ao" d="M584.682,447.112a25.359,25.359,0,1,1-25.36-25.36A25.36,25.36,0,0,1,584.682,447.112Z" transform="translate(-524.266 -411.393)"/><path class="ap" d="M583.874,446.249a25.36,25.36,0,1,1-25.359-25.36A25.36,25.36,0,0,1,583.874,446.249Z" transform="translate(-524.266 -411.393)"/><path class="aq" d="M583.065,445.386a25.359,25.359,0,1,1-25.359-25.36A25.359,25.359,0,0,1,583.065,445.386Z" transform="translate(-524.266 -411.393)"/><path class="ar" d="M582.258,444.522a25.36,25.36,0,1,1-25.36-25.359A25.36,25.36,0,0,1,582.258,444.522Z" transform="translate(-524.266 -411.393)"/><path class="as" d="M581.449,443.659A25.359,25.359,0,1,1,556.09,418.3,25.36,25.36,0,0,1,581.449,443.659Z" transform="translate(-524.266 -411.393)"/><path class="at" d="M580.642,442.8a25.36,25.36,0,1,1-25.36-25.36A25.36,25.36,0,0,1,580.642,442.8Z" transform="translate(-524.266 -411.393)"/><path class="au" d="M579.834,441.933a25.36,25.36,0,1,1-25.36-25.36A25.36,25.36,0,0,1,579.834,441.933Z" transform="translate(-524.266 -411.393)"/><path class="av" d="M579.025,441.069a25.359,25.359,0,1,1-25.359-25.36A25.359,25.359,0,0,1,579.025,441.069Z" transform="translate(-524.266 -411.393)"/><path class="aw" d="M578.218,440.206a25.36,25.36,0,1,1-25.36-25.36A25.36,25.36,0,0,1,578.218,440.206Z" transform="translate(-524.266 -411.393)"/><path class="ax" d="M577.409,439.343a25.359,25.359,0,1,1-25.359-25.36A25.359,25.359,0,0,1,577.409,439.343Z" transform="translate(-524.266 -411.393)"/><path class="ay" d="M576.6,438.48a25.359,25.359,0,1,1-25.359-25.36A25.359,25.359,0,0,1,576.6,438.48Z" transform="translate(-524.266 -411.393)"/><path class="az" d="M575.793,437.616a25.36,25.36,0,1,1-25.36-25.36A25.36,25.36,0,0,1,575.793,437.616Z" transform="translate(-524.266 -411.393)"/><path class="ba" d="M574.985,436.753a25.359,25.359,0,1,1-25.359-25.36A25.359,25.359,0,0,1,574.985,436.753Z" transform="translate(-524.266 -411.393)"/></g><circle class="bb" cx="33.592" cy="33.592" r="33.592" transform="translate(0 26.245) rotate(-22.995)"/><path class="bb" d="M579.785,437.038a30.233,30.233,0,1,1-30.233-30.232A30.233,30.233,0,0,1,579.785,437.038Z" transform="translate(-505.507 -392.993)"/><g transform="translate(18.525 18.78)"><path class="bc" d="M574.962,437.238A25.465,25.465,0,1,1,549.5,411.773,25.466,25.466,0,0,1,574.962,437.238Z" transform="translate(-524.032 -411.773)"/><path class="bd" d="M574.962,437.216a4.678,4.678,0,0,1-3.059,4.812c-2,.8-3.017.684-4.218,2.727-.874,1.488-1.054,2.648-2.86,3.243-1.915.631-3.735-.034-5.56-.33a8.051,8.051,0,0,0-5.694,1.239c-1.878,1.182-2.763,3.834-4.631,4.794-3.756,1.93-7.262-3.539-10.516-4.208-2.422-.5-3.018.479-4.948,1.577-7.154,4.072-9.187-9.2-9.187-13.854a25.336,25.336,0,0,1,50.673,0Z" transform="translate(-524.032 -411.773)"/><path class="be" d="M561.862,427.7c-1.824,1.274-1.909,3.58-2,5.626-.175,3.959.207,10.14-5.076,10.01-1.844-.045-3.168-1.32-4.924-.953-1.775.37-3.226,2.2-4.04,3.682-.62,1.127-1.184,3.878-2.375,4.494-1.547.8-3.243-2.129-5.215-2.535-2.3-.473-2.866.455-4.7,1.5-6.8,3.87-8.73-8.744-8.73-13.163a24.077,24.077,0,0,1,37.4-20.051,18.089,18.089,0,0,1,5.2,4.682C568.255,422.334,563.2,426.765,561.862,427.7Z" transform="translate(-524.032 -411.773)"/><path class="bf" d="M546.689,431.618a4.232,4.232,0,0,1-.4,3.528c-.912,1.371-2.759.887-3.924,1.829-1.368,1.1-1.6,3.558-1.794,5.161-.146,1.205-.334,3.553-1.6,4.252-1.063.586-2.28-.1-3.389.174a9.6,9.6,0,0,0-2.175,1.252c-6.114,3.481-7.852-7.863-7.852-11.837a21.836,21.836,0,0,1,11.465-19.109c1.856-.991,9.35-4.205,10.975-2.156,1.887,2.377-3.25,6.246-3.664,8.412C543.826,425.788,546.006,428.855,546.689,431.618Z" transform="translate(-524.032 -411.773)"/><path class="bg" d="M537.414,432.582a4.481,4.481,0,0,1-.2,2.612c-.457,1.014-1.38.656-1.962,1.352-.685.819-.8,2.636-.9,3.821-.073.893-.166,2.631-.8,3.148-.531.434-1.14-.075-1.7.129-.4.145-.734.63-1.087.927-3.056,2.576-3.925-5.82-3.925-8.762,0-5.868,2.237-11.382,5.732-14.146.928-.733,4.674-3.113,5.487-1.6.944,1.76-1.626,4.623-1.832,6.227C535.982,428.266,537.072,430.537,537.414,432.582Z" transform="translate(-524.032 -411.773)"/><g class="bh"><path class="bc" d="M549.5,411.773a25.465,25.465,0,1,1-25.465,25.465A25.465,25.465,0,0,1,549.5,411.773Z" transform="translate(-524.032 -411.773)"/><path class="bd" d="M549.476,411.773a4.678,4.678,0,0,1,4.811,3.059c.8,2,.685,3.018,2.728,4.217,1.487.875,2.647,1.055,3.243,2.862.631,1.914-.034,3.734-.33,5.559a8.049,8.049,0,0,0,1.239,5.694c1.182,1.878,3.833,2.764,4.794,4.631,1.931,3.755-3.539,7.263-4.209,10.516-.5,2.422.479,3.018,1.577,4.947,4.073,7.155-9.2,9.188-13.853,9.188a25.337,25.337,0,1,1,0-50.673Z" transform="translate(-524.032 -411.773)"/><path class="be" d="M539.958,424.873c1.273,1.824,3.579,1.91,5.626,2,3.958.175,10.139-.206,10.011,5.077-.046,1.843-1.322,3.168-.955,4.924.371,1.775,2.2,3.227,3.681,4.04,1.128.62,3.879,1.184,4.495,2.375.8,1.547-2.129,3.243-2.534,5.214-.474,2.3.455,2.867,1.5,4.7,3.87,6.8-8.744,8.731-13.162,8.731a24.078,24.078,0,0,1-20.052-37.4,18.091,18.091,0,0,1,4.683-5.2C534.593,418.48,539.025,423.536,539.958,424.873Z" transform="translate(-524.032 -411.773)"/><path class="bf" d="M543.878,440.045a4.236,4.236,0,0,1,3.528.4c1.37.912.886,2.759,1.827,3.924,1.106,1.368,3.56,1.6,5.161,1.795,1.206.146,3.554.333,4.252,1.6.587,1.063-.1,2.279.175,3.388a9.565,9.565,0,0,0,1.253,2.176c3.48,6.114-7.863,7.851-11.838,7.851a21.834,21.834,0,0,1-19.109-11.465c-.99-1.855-4.2-9.349-2.156-10.974,2.378-1.887,6.246,3.25,8.413,3.664C538.048,442.908,541.115,440.73,543.878,440.045Z" transform="translate(-524.032 -411.773)"/><path class="bg" d="M544.841,449.321a4.48,4.48,0,0,1,2.612.2c1.015.457.656,1.379,1.353,1.962.818.685,2.634.8,3.821.9.891.073,2.631.166,3.147.8.434.531-.075,1.14.129,1.695.146.4.63.734.927,1.087,2.577,3.057-5.82,3.925-8.762,3.925-5.867,0-11.382-2.237-14.145-5.732-.734-.927-3.113-4.674-1.6-5.487,1.761-.943,4.624,1.625,6.228,1.832C540.525,450.752,542.8,449.663,544.841,449.321Z" transform="translate(-524.032 -411.773)"/></g></g></g></svg>