<svg xmlns="http://www.w3.org/2000/svg" xmlns:xlink="http://www.w3.org/1999/xlink" width="31.467" height="31.467" viewBox="0 0 31.467 31.467"><defs><style>.a{fill:#c5c7ca;}.b{fill:#b2b2b2;}.c{opacity:0.77;mix-blend-mode:overlay;fill:url(#a);}.c,.d,.e{isolation:isolate;}.d{opacity:0.33;mix-blend-mode:color-dodge;fill:url(#b);}.e{opacity:0.38;mix-blend-mode:color-burn;fill:url(#c);}</style><linearGradient id="a" x1="-0.015" y1="0.402" x2="1.054" y2="0.606" gradientUnits="objectBoundingBox"><stop offset="0" stop-color="#fff"/><stop offset="1"/></linearGradient><linearGradient id="b" x1="-0.328" y1="-0.015" x2="0.848" y2="0.716" gradientUnits="objectBoundingBox"><stop offset="0" stop-color="#fcf8ff"/><stop offset="0.144" stop-color="#dddae0"/><stop offset="0.459" stop-color="#908e92"/><stop offset="0.918" stop-color="#161616"/><stop offset="1"/></linearGradient><radialGradient id="c" cx="0.124" cy="0.157" r="0.892" gradientUnits="objectBoundingBox"><stop offset="0.617" stop-color="#fff"/><stop offset="1"/></radialGradient></defs><g transform="translate(-313.487 -207.066)"><path class="a" d="M344.954,222.8a15.734,15.734,0,1,1-15.734-15.734A15.734,15.734,0,0,1,344.954,222.8Z" transform="translate(0)"/><g transform="translate(316.645 209.187)"><path class="b" d="M315.753,212.5s.545.271.325,1.364.927,1.638,2.128,1.364,1.966-.312,2.186-1.329.707-2.055,0-2.82-.994-1.746-2.135-.816S315.1,211.083,315.753,212.5Z" transform="translate(-311.971 -203.017)"/><path class="b" d="M317.4,209.823c-.771.711-.873,1.472-.271,1.529a1.388,1.388,0,0,1,1.188,1.2c.01.545,1.7,2.182,2.52,1.909a2.927,2.927,0,0,0,1.8-1.8c.545-1.093.981-.22,1.746-1.093s-4.311.927-3.384-.927-.166-1.8-1.093-1.8A5.172,5.172,0,0,0,317.4,209.823Z" transform="translate(-309.529 -205.304)"/><path class="b" d="M317.041,210.355s2.559-.545,2.571-.819.229-.981-.37-1.255-1.287-.873-2.2,0S315.607,210.19,317.041,210.355Z" transform="translate(-310.822 -207.528)"/><path class="b" d="M318.07,208.813s-.637,1.144.564,1.31,1.421,0,3-.656,1.367-.857.548-1.437S318.49,207.72,318.07,208.813Z" transform="translate(-306.995 -207.732)"/><path class="b" d="M319.471,209.852s1.45,1.367,2.269.656,1.364-1.309.271-1.529S317.9,209,319.471,209.852Z" transform="translate(-304.532 -205.17)"/><path class="b" d="M317.483,213.759s-.765-2.877.873-2.495,2.183-.054,1.418,1.472-1.074,1.31-.4,1.858.784,1.09,1.383.819,1.921.325.9.816-1.593,1.367-2.288.6S318.519,215,317.483,213.759Z" transform="translate(-308.298 -200.086)"/><path class="b" d="M335.4,219.024c-.6-.6-1.364.656-1.58-.217s-1.255-.545-1.858-.981.6-1.039,1.692-1.147.436-.274,1.858-1.039.491-1.255.437-2.727-.876-.711-1.147.054-1.529.217-3.056.765-2.02.873-2.074,1.584,1.2.816.631,1.8-.959.328-1.322-.328-1,0-1.657.491-.054,1.2-.382,2.074-1.584.054-2.345-.6-.6-1.912-.548-2.731a6.524,6.524,0,0,0-.437-2.839c-.382-.873-1.31.93-1.526,1.577s-1.039.443-1.383-.484.016-2.02-2.275-2.237-1.147,1.746-1.854,3.33.382,2.128.382,2.128a.833.833,0,0,1,.379.819c0,.437.437,1.31,1.912,1.2s.765.379.567,2.017-1.768-.054-2.915-.328-1.255-1.909-2.128-2.727.494,2.128.873,3.275,1.8,1.147,3.275,2.4,1.858,1.854,2.294.873,2.291.927,3.6,1.31,1.475-.545,1.746-1.367,1.313.385,1.584.385a7.419,7.419,0,0,0,3-.656c1.475-.656,1.966-.873,1.431-1.584s-.392-1.584,0-2.839,1.188-.217,1.462.548.819.653,1.746,0S336,219.626,335.4,219.024Zm-12.127,4.913c-.341,1.2-1.577-1.306-1.577-1.306C321.124,221.659,323.606,222.736,323.268,223.937Zm4.572-1.472c-1.058.6-2.288-.6-2.288-.6-.962-.624,2.364-1.255,3.422-.873S328.9,221.863,327.841,222.465Zm2.931-2.893a1.625,1.625,0,0,1-1.354-.347c-1.354-.347.029-.583,1.721-.526S331.575,219.406,330.772,219.572Z" transform="translate(-314.478 -198.35)"/></g><path class="c" d="M344.954,222.8a15.734,15.734,0,1,1-15.734-15.734A15.734,15.734,0,0,1,344.954,222.8Z" transform="translate(0)"/><path class="d" d="M330.833,220.046c-1.759,5.056-6.752,7.914-11.158,6.385s-6.551-6.87-4.8-11.929,6.751-7.914,11.158-6.385S332.588,214.99,330.833,220.046Z" transform="translate(1.705 1.396)"/><path class="e" d="M344.954,222.8a15.734,15.734,0,1,1-15.734-15.734A15.734,15.734,0,0,1,344.954,222.8Z" transform="translate(0)"/></g></svg>