<svg xmlns="http://www.w3.org/2000/svg" xmlns:xlink="http://www.w3.org/1999/xlink" viewBox="0 0 1919.82 890.22"><defs><style>.cls-1{fill:url(#Degradado_sin_nombre);}.cls-10,.cls-11,.cls-12,.cls-13,.cls-14,.cls-15,.cls-16,.cls-17,.cls-18,.cls-19,.cls-2,.cls-20,.cls-21,.cls-22,.cls-23,.cls-24,.cls-25,.cls-26,.cls-27,.cls-28,.cls-29,.cls-3,.cls-30,.cls-31,.cls-32,.cls-33,.cls-34,.cls-35,.cls-36,.cls-37,.cls-38,.cls-39,.cls-4,.cls-40,.cls-41,.cls-42,.cls-43,.cls-44,.cls-45,.cls-46,.cls-47,.cls-48,.cls-49,.cls-5,.cls-50,.cls-51,.cls-52,.cls-53,.cls-6,.cls-7,.cls-8,.cls-9{fill:#14548d;}.cls-3,.cls-55{opacity:0.98;}.cls-10,.cls-100,.cls-101,.cls-102,.cls-103,.cls-104,.cls-11,.cls-12,.cls-13,.cls-14,.cls-15,.cls-16,.cls-17,.cls-18,.cls-19,.cls-20,.cls-21,.cls-22,.cls-23,.cls-24,.cls-25,.cls-26,.cls-27,.cls-28,.cls-29,.cls-3,.cls-30,.cls-31,.cls-32,.cls-33,.cls-34,.cls-35,.cls-36,.cls-37,.cls-38,.cls-39,.cls-4,.cls-40,.cls-41,.cls-42,.cls-43,.cls-44,.cls-45,.cls-46,.cls-47,.cls-48,.cls-49,.cls-5,.cls-50,.cls-51,.cls-52,.cls-55,.cls-56,.cls-57,.cls-58,.cls-59,.cls-6,.cls-60,.cls-61,.cls-62,.cls-63,.cls-64,.cls-65,.cls-66,.cls-67,.cls-68,.cls-69,.cls-7,.cls-70,.cls-71,.cls-72,.cls-73,.cls-74,.cls-75,.cls-76,.cls-77,.cls-78,.cls-79,.cls-8,.cls-80,.cls-81,.cls-82,.cls-83,.cls-84,.cls-85,.cls-86,.cls-87,.cls-88,.cls-89,.cls-9,.cls-90,.cls-91,.cls-92,.cls-93,.cls-94,.cls-95,.cls-96,.cls-97,.cls-98,.cls-99{isolation:isolate;}.cls-4,.cls-56{opacity:0.96;}.cls-5,.cls-57{opacity:0.94;}.cls-58,.cls-6{opacity:0.92;}.cls-59,.cls-7{opacity:0.9;}.cls-60,.cls-8{opacity:0.88;}.cls-61,.cls-9{opacity:0.86;}.cls-10,.cls-62{opacity:0.84;}.cls-11,.cls-63{opacity:0.82;}.cls-12,.cls-64{opacity:0.8;}.cls-13,.cls-65{opacity:0.78;}.cls-14,.cls-66{opacity:0.76;}.cls-15,.cls-67{opacity:0.75;}.cls-16,.cls-68{opacity:0.73;}.cls-17,.cls-69{opacity:0.71;}.cls-18,.cls-70{opacity:0.69;}.cls-19,.cls-71{opacity:0.67;}.cls-20,.cls-72{opacity:0.65;}.cls-21,.cls-73{opacity:0.63;}.cls-22,.cls-74{opacity:0.61;}.cls-23,.cls-75{opacity:0.59;}.cls-24,.cls-76{opacity:0.57;}.cls-25,.cls-77{opacity:0.55;}.cls-26,.cls-78{opacity:0.53;}.cls-27,.cls-79{opacity:0.51;}.cls-28,.cls-80{opacity:0.49;}.cls-29,.cls-81{opacity:0.47;}.cls-30,.cls-82{opacity:0.45;}.cls-31,.cls-83{opacity:0.43;}.cls-32,.cls-84{opacity:0.41;}.cls-33,.cls-85{opacity:0.39;}.cls-34,.cls-86{opacity:0.37;}.cls-35,.cls-87{opacity:0.35;}.cls-36,.cls-88{opacity:0.33;}.cls-37,.cls-89{opacity:0.31;}.cls-38,.cls-90{opacity:0.29;}.cls-39,.cls-91{opacity:0.28;}.cls-40,.cls-92{opacity:0.25;}.cls-41,.cls-93{opacity:0.23;}.cls-42,.cls-94{opacity:0.22;}.cls-43,.cls-95{opacity:0.2;}.cls-44,.cls-96{opacity:0.18;}.cls-45,.cls-97{opacity:0.16;}.cls-46,.cls-98{opacity:0.14;}.cls-47,.cls-99{opacity:0.12;}.cls-100,.cls-48{opacity:0.1;}.cls-101,.cls-49{opacity:0.08;}.cls-102,.cls-50{opacity:0.06;}.cls-103,.cls-51{opacity:0.04;}.cls-104,.cls-52{opacity:0.02;}.cls-53{fill-opacity:0;}.cls-54{fill:#d99bbc;}.cls-55{fill:#d699bb;}.cls-56{fill:#d398ba;}.cls-57{fill:#cf96b9;}.cls-58{fill:#cc94b8;}.cls-59{fill:#c893b6;}.cls-60{fill:#c591b5;}.cls-61{fill:#c290b4;}.cls-62{fill:#be8eb3;}.cls-63{fill:#bb8cb2;}.cls-64{fill:#b78bb1;}.cls-65{fill:#b489b0;}.cls-66{fill:#b088af;}.cls-67{fill:#ad86ae;}.cls-68{fill:#a985ad;}.cls-69{fill:#a683ac;}.cls-70{fill:#a281ab;}.cls-71{fill:#9e80aa;}.cls-72{fill:#9b7ea9;}.cls-73{fill:#977da8;}.cls-74{fill:#947ba7;}.cls-75{fill:#907aa6;}.cls-76{fill:#8d78a5;}.cls-77{fill:#8977a4;}.cls-78{fill:#8575a3;}.cls-79{fill:#8274a2;}.cls-80{fill:#7e72a1;}.cls-81{fill:#7b71a0;}.cls-82{fill:#776f9f;}.cls-83{fill:#746e9e;}.cls-84{fill:#716d9e;}.cls-85{fill:#6d6c9d;}.cls-86{fill:#6a6a9c;}.cls-87{fill:#66699b;}.cls-88{fill:#63689a;}.cls-89{fill:#5f6799;}.cls-90{fill:#5c6599;}.cls-91{fill:#586498;}.cls-92{fill:#546397;}.cls-93{fill:#516296;}.cls-94{fill:#4d6195;}.cls-95{fill:#496095;}.cls-96{fill:#455e94;}.cls-97{fill:#415d93;}.cls-98{fill:#3d5c92;}.cls-99{fill:#395b92;}.cls-100{fill:#345a91;}.cls-101{fill:#2f5990;}.cls-102{fill:#2a588f;}.cls-103{fill:#24568f;}.cls-104{fill:#1d558e;}.cls-105{fill:#496799;}.cls-106{fill:#fff;}.cls-107{fill:#8f6998;}.cls-108{opacity:0.5;}</style><linearGradient id="Degradado_sin_nombre" x1="789.67" y1="845.8" x2="789.67" y2="846.8" gradientTransform="matrix(1919.82, 0, 0, -890.22, -1515063.59, 753836.24)" gradientUnits="userSpaceOnUse"><stop offset="0" stop-color="#00141d"/><stop offset="0.3" stop-color="#001822"/><stop offset="0.69" stop-color="#002533"/><stop offset="1" stop-color="#003445"/></linearGradient></defs><g id="Capa_2" data-name="Capa 2"><g id="Capa_1-2" data-name="Capa 1"><rect id="Rectangle_17062" data-name="Rectangle 17062" class="cls-1" width="1919.82" height="890.22"/><g id="Comet"><path id="Path_25446" data-name="Path 25446" class="cls-2" d="M92.33,858.32A5.91,5.91,0,1,1,86,852.9h0A5.92,5.92,0,0,1,92.33,858.32Z"/><path id="Path_25447" data-name="Path 25447" class="cls-3" d="M97.07,856a5.87,5.87,0,1,1-6.33-5.38h0A5.89,5.89,0,0,1,97.07,856Z"/><path id="Path_25448" data-name="Path 25448" class="cls-4" d="M101.8,853.6a5.84,5.84,0,1,1-6.29-5.35A5.84,5.84,0,0,1,101.8,853.6Z"/><path id="Path_25449" data-name="Path 25449" class="cls-5" d="M106.53,851.25a5.8,5.8,0,1,1-6.25-5.32A5.79,5.79,0,0,1,106.53,851.25Z"/><path id="Path_25450" data-name="Path 25450" class="cls-6" d="M111.26,848.89a5.77,5.77,0,1,1-6.21-5.28h0A5.77,5.77,0,0,1,111.26,848.89Z"/><path id="Path_25451" data-name="Path 25451" class="cls-7" d="M116,846.53a5.73,5.73,0,1,1-6.17-5.25A5.71,5.71,0,0,1,116,846.53Z"/><path id="Path_25452" data-name="Path 25452" class="cls-8" d="M120.73,844.17a5.7,5.7,0,1,1-6.14-5.21h0A5.7,5.7,0,0,1,120.73,844.17Z"/><path id="Path_25453" data-name="Path 25453" class="cls-9" d="M125.46,841.82a5.66,5.66,0,1,1-6.1-5.19A5.66,5.66,0,0,1,125.46,841.82Z"/><path id="Path_25454" data-name="Path 25454" class="cls-10" d="M130.19,839.46a5.62,5.62,0,1,1-6.06-5.15A5.62,5.62,0,0,1,130.19,839.46Z"/><path id="Path_25455" data-name="Path 25455" class="cls-11" d="M134.92,837.1a5.59,5.59,0,1,1-6-5.12A5.58,5.58,0,0,1,134.92,837.1Z"/><path id="Path_25456" data-name="Path 25456" class="cls-12" d="M139.66,834.75a5.55,5.55,0,1,1-6-5.09A5.55,5.55,0,0,1,139.66,834.75Z"/><path id="Path_25457" data-name="Path 25457" class="cls-13" d="M144.39,832.39a5.52,5.52,0,1,1-5.94-5.06A5.51,5.51,0,0,1,144.39,832.39Z"/><path id="Path_25458" data-name="Path 25458" class="cls-14" d="M149.12,830a5.48,5.48,0,1,1-5.9-5h0A5.48,5.48,0,0,1,149.12,830Z"/><path id="Path_25459" data-name="Path 25459" class="cls-15" d="M153.85,827.67a5.44,5.44,0,1,1-5.86-5A5.45,5.45,0,0,1,153.85,827.67Z"/><path id="Path_25460" data-name="Path 25460" class="cls-16" d="M158.58,825.32a5.41,5.41,0,1,1-5.82-5A5.4,5.4,0,0,1,158.58,825.32Z"/><path id="Path_25461" data-name="Path 25461" class="cls-17" d="M163.32,823a5.37,5.37,0,1,1-5.79-4.92A5.38,5.38,0,0,1,163.32,823Z"/><path id="Path_25462" data-name="Path 25462" class="cls-18" d="M168.05,820.6a5.34,5.34,0,1,1-5.75-4.89A5.35,5.35,0,0,1,168.05,820.6Z"/><path id="Path_25463" data-name="Path 25463" class="cls-19" d="M172.78,818.25a5.3,5.3,0,1,1-5.71-4.86A5.3,5.3,0,0,1,172.78,818.25Z"/><path id="Path_25464" data-name="Path 25464" class="cls-20" d="M177.51,815.88a5.27,5.27,0,1,1-5.67-4.82A5.27,5.27,0,0,1,177.51,815.88Z"/><path id="Path_25465" data-name="Path 25465" class="cls-21" d="M182.25,813.53a5.23,5.23,0,1,1-5.64-4.79A5.23,5.23,0,0,1,182.25,813.53Z"/><path id="Path_25466" data-name="Path 25466" class="cls-22" d="M187,811.17a5.2,5.2,0,1,1-5.6-4.76A5.2,5.2,0,0,1,187,811.17Z"/><path id="Path_25467" data-name="Path 25467" class="cls-23" d="M191.71,808.82a5.16,5.16,0,1,1-5.56-4.73,5.15,5.15,0,0,1,5.56,4.73Z"/><path id="Path_25468" data-name="Path 25468" class="cls-24" d="M196.44,806.46a5.12,5.12,0,1,1-5.52-4.7,5.11,5.11,0,0,1,5.52,4.7Z"/><path id="Path_25469" data-name="Path 25469" class="cls-25" d="M201.18,804.1a5.09,5.09,0,1,1-5.49-4.66A5.1,5.1,0,0,1,201.18,804.1Z"/><path id="Path_25470" data-name="Path 25470" class="cls-26" d="M205.91,801.75a5.05,5.05,0,1,1-5.45-4.64A5.06,5.06,0,0,1,205.91,801.75Z"/><path id="Path_25471" data-name="Path 25471" class="cls-27" d="M210.64,799.38a5,5,0,1,1-5.4-4.59h0A5,5,0,0,1,210.64,799.38Z"/><path id="Path_25472" data-name="Path 25472" class="cls-28" d="M215.37,797a5,5,0,1,1-5.37-4.57,5,5,0,0,1,5.37,4.57Z"/><path id="Path_25473" data-name="Path 25473" class="cls-29" d="M220.1,794.67a4.94,4.94,0,1,1-5.32-4.53,4.94,4.94,0,0,1,5.32,4.53Z"/><path id="Path_25474" data-name="Path 25474" class="cls-30" d="M224.84,792.32a4.91,4.91,0,1,1-5.29-4.5,4.91,4.91,0,0,1,5.29,4.5Z"/><path id="Path_25475" data-name="Path 25475" class="cls-31" d="M229.57,790a4.88,4.88,0,1,1-5.25-4.47,4.89,4.89,0,0,1,5.25,4.47Z"/><path id="Path_25476" data-name="Path 25476" class="cls-32" d="M234.3,787.6a4.84,4.84,0,1,1-5.21-4.43,4.83,4.83,0,0,1,5.21,4.43Z"/><path id="Path_25477" data-name="Path 25477" class="cls-33" d="M239,785.24a4.8,4.8,0,1,1-5.17-4.4,4.78,4.78,0,0,1,5.17,4.4Z"/><path id="Path_25478" data-name="Path 25478" class="cls-34" d="M243.76,782.88a4.77,4.77,0,1,1-5.13-4.37,4.75,4.75,0,0,1,5.13,4.37Z"/><path id="Path_25479" data-name="Path 25479" class="cls-35" d="M248.5,780.53a4.73,4.73,0,1,1-5.1-4.34,4.72,4.72,0,0,1,5.1,4.34Z"/><path id="Path_25480" data-name="Path 25480" class="cls-36" d="M253.23,778.17a4.7,4.7,0,1,1-5.06-4.3h0a4.69,4.69,0,0,1,5.06,4.3Z"/><path id="Path_25481" data-name="Path 25481" class="cls-37" d="M258,775.82a4.66,4.66,0,1,1-5-4.28,4.66,4.66,0,0,1,5,4.28Z"/><path id="Path_25482" data-name="Path 25482" class="cls-38" d="M262.69,773.46a4.62,4.62,0,1,1-5-4.24,4.63,4.63,0,0,1,5,4.24Z"/><path id="Path_25483" data-name="Path 25483" class="cls-39" d="M267.43,771.1a4.59,4.59,0,1,1-4.95-4.21,4.59,4.59,0,0,1,4.95,4.21Z"/><path id="Path_25484" data-name="Path 25484" class="cls-40" d="M272.16,768.74a4.55,4.55,0,1,1-4.91-4.17,4.55,4.55,0,0,1,4.91,4.17Z"/><path id="Path_25485" data-name="Path 25485" class="cls-41" d="M276.89,766.38a4.51,4.51,0,1,1-4.87-4.14,4.52,4.52,0,0,1,4.87,4.14Z"/><path id="Path_25486" data-name="Path 25486" class="cls-42" d="M281.62,764a4.48,4.48,0,1,1-4.83-4.11,4.47,4.47,0,0,1,4.83,4.11Z"/><path id="Path_25487" data-name="Path 25487" class="cls-43" d="M286.36,761.67a4.45,4.45,0,1,1-4.79-4.07,4.45,4.45,0,0,1,4.79,4.07Z"/><path id="Path_25488" data-name="Path 25488" class="cls-44" d="M291.09,759.32a4.41,4.41,0,1,1-4.76-4.05,4.41,4.41,0,0,1,4.76,4.05Z"/><path id="Path_25489" data-name="Path 25489" class="cls-45" d="M295.82,757a4.37,4.37,0,1,1-4.72-4,4.38,4.38,0,0,1,4.72,4Z"/><path id="Path_25490" data-name="Path 25490" class="cls-46" d="M300.55,754.6a4.34,4.34,0,1,1-4.67-4,4.34,4.34,0,0,1,4.67,4Z"/><path id="Path_25491" data-name="Path 25491" class="cls-47" d="M305.29,752.24a4.3,4.3,0,1,1-4.64-3.94,4.32,4.32,0,0,1,4.64,3.94Z"/><path id="Path_25492" data-name="Path 25492" class="cls-48" d="M310,749.88a4.27,4.27,0,1,1-4.6-3.91,4.28,4.28,0,0,1,4.6,3.91Z"/><path id="Path_25493" data-name="Path 25493" class="cls-49" d="M314.75,747.53a4.23,4.23,0,1,1-4.56-3.88,4.22,4.22,0,0,1,4.56,3.88Z"/><path id="Path_25494" data-name="Path 25494" class="cls-50" d="M319.48,745.17a4.2,4.2,0,1,1-4.52-3.85,4.2,4.2,0,0,1,4.52,3.85Z"/><path id="Path_25495" data-name="Path 25495" class="cls-51" d="M324.21,742.82a4.16,4.16,0,1,1-4.48-3.82,4.16,4.16,0,0,1,4.48,3.82Z"/><path id="Path_25496" data-name="Path 25496" class="cls-52" d="M329,740.46a4.13,4.13,0,1,1-4.45-3.79,4.13,4.13,0,0,1,4.45,3.79Z"/><path id="Path_25497" data-name="Path 25497" class="cls-53" d="M333.68,738.1a4.09,4.09,0,1,1-4.41-3.75,4.09,4.09,0,0,1,4.41,3.75Z"/><g id="Comet-2"><path id="Path_25290" data-name="Path 25290" class="cls-54" d="M1129.62,233.1a2.2,2.2,0,1,1-2.85-1.27h0A2.2,2.2,0,0,1,1129.62,233.1Z"/><path id="Path_25291" data-name="Path 25291" class="cls-55" d="M1130.53,232.76a2.18,2.18,0,1,1-2.82-1.26h0A2.18,2.18,0,0,1,1130.53,232.76Z"/><path id="Path_25292" data-name="Path 25292" class="cls-56" d="M1131.45,232.42a2.17,2.17,0,1,1-2.8-1.25h0A2.18,2.18,0,0,1,1131.45,232.42Z"/><path id="Path_25293" data-name="Path 25293" class="cls-57" d="M1132.36,232.08a2.15,2.15,0,1,1-2.78-1.23h0A2.16,2.16,0,0,1,1132.36,232.08Z"/><path id="Path_25294" data-name="Path 25294" class="cls-58" d="M1133.27,231.75a2.13,2.13,0,1,1-2.75-1.23h0a2.13,2.13,0,0,1,2.75,1.23Z"/><path id="Path_25295" data-name="Path 25295" class="cls-59" d="M1134.19,231.41a2.12,2.12,0,1,1-2.73-1.22h0A2.11,2.11,0,0,1,1134.19,231.41Z"/><path id="Path_25296" data-name="Path 25296" class="cls-60" d="M1135.11,231.07a2.1,2.1,0,1,1-2.72-1.21,2.11,2.11,0,0,1,2.72,1.21Z"/><path id="Path_25297" data-name="Path 25297" class="cls-61" d="M1136,230.74a2.08,2.08,0,1,1-2.7-1.2h0A2.08,2.08,0,0,1,1136,230.74Z"/><path id="Path_25298" data-name="Path 25298" class="cls-62" d="M1136.94,230.4a2.07,2.07,0,1,1-2.68-1.19h0A2.07,2.07,0,0,1,1136.94,230.4Z"/><path id="Path_25299" data-name="Path 25299" class="cls-63" d="M1137.85,230.06a2.05,2.05,0,1,1-2.65-1.18h0A2.06,2.06,0,0,1,1137.85,230.06Z"/><path id="Path_25300" data-name="Path 25300" class="cls-64" d="M1138.77,229.73a2,2,0,1,1-2.64-1.18h0A2,2,0,0,1,1138.77,229.73Z"/><path id="Path_25301" data-name="Path 25301" class="cls-65" d="M1139.68,229.39a2,2,0,1,1-2.61-1.17h0A2,2,0,0,1,1139.68,229.39Z"/><path id="Path_25302" data-name="Path 25302" class="cls-66" d="M1140.6,229.05a2,2,0,1,1-3.74,1.42,2,2,0,0,1,3.73-1.42Z"/><path id="Path_25303" data-name="Path 25303" class="cls-67" d="M1141.51,228.72a2,2,0,1,1-2.57-1.15h0A2,2,0,0,1,1141.51,228.72Z"/><path id="Path_25304" data-name="Path 25304" class="cls-68" d="M1142.43,228.38a2,2,0,1,1-2.55-1.14h0A2,2,0,0,1,1142.43,228.38Z"/><path id="Path_25305" data-name="Path 25305" class="cls-69" d="M1143.34,228a2,2,0,1,1-2.53-1.13h0A2,2,0,0,1,1143.34,228Z"/><path id="Path_25306" data-name="Path 25306" class="cls-70" d="M1144.26,227.7a1.94,1.94,0,1,1-2.51-1.11h0A2,2,0,0,1,1144.26,227.7Z"/><path id="Path_25307" data-name="Path 25307" class="cls-71" d="M1145.17,227.37a1.92,1.92,0,1,1-2.48-1.11h0a1.92,1.92,0,0,1,2.48,1.11Z"/><path id="Path_25308" data-name="Path 25308" class="cls-72" d="M1146.09,227a1.91,1.91,0,1,1-2.47-1.1h0A1.92,1.92,0,0,1,1146.09,227Z"/><path id="Path_25309" data-name="Path 25309" class="cls-73" d="M1147,226.69a1.89,1.89,0,1,1-3.53,1.35,1.88,1.88,0,0,1,1.09-2.44h0A1.89,1.89,0,0,1,1147,226.69Z"/><path id="Path_25310" data-name="Path 25310" class="cls-74" d="M1147.92,226.36a1.88,1.88,0,1,1-2.43-1.08h0A1.87,1.87,0,0,1,1147.92,226.36Z"/><path id="Path_25311" data-name="Path 25311" class="cls-75" d="M1148.83,226a1.86,1.86,0,1,1-2.4-1.07h0a1.85,1.85,0,0,1,2.4,1.07Z"/><path id="Path_25312" data-name="Path 25312" class="cls-76" d="M1149.75,225.68a1.85,1.85,0,1,1-2.38-1.06h0A1.85,1.85,0,0,1,1149.75,225.68Z"/><path id="Path_25313" data-name="Path 25313" class="cls-77" d="M1150.66,225.35a1.82,1.82,0,1,1-2.36-1.06h0a1.83,1.83,0,0,1,2.36,1.06Z"/><path id="Path_25314" data-name="Path 25314" class="cls-78" d="M1151.57,225a1.81,1.81,0,1,1-2.33-1h0A1.81,1.81,0,0,1,1151.57,225Z"/><path id="Path_25315" data-name="Path 25315" class="cls-79" d="M1152.49,224.67a1.79,1.79,0,1,1-2.32-1h0A1.78,1.78,0,0,1,1152.49,224.67Z"/><path id="Path_25316" data-name="Path 25316" class="cls-80" d="M1153.41,224.34a1.78,1.78,0,1,1-2.3-1h0A1.79,1.79,0,0,1,1153.41,224.34Z"/><path id="Path_25317" data-name="Path 25317" class="cls-81" d="M1154.32,224a1.76,1.76,0,0,1-3.29,1.26,1.77,1.77,0,0,1,1-2.28h0A1.76,1.76,0,0,1,1154.32,224Z"/><path id="Path_25318" data-name="Path 25318" class="cls-82" d="M1155.24,223.66a1.75,1.75,0,1,1-2.26-1h0A1.76,1.76,0,0,1,1155.24,223.66Z"/><path id="Path_25319" data-name="Path 25319" class="cls-83" d="M1156.15,223.33a1.73,1.73,0,1,1-2.23-1h0a1.72,1.72,0,0,1,2.23,1Z"/><path id="Path_25320" data-name="Path 25320" class="cls-84" d="M1157.07,223a1.72,1.72,0,1,1-2.22-1h0A1.72,1.72,0,0,1,1157.07,223Z"/><path id="Path_25321" data-name="Path 25321" class="cls-85" d="M1158,222.65a1.7,1.7,0,1,1-2.2-1h0A1.7,1.7,0,0,1,1158,222.65Z"/><path id="Path_25322" data-name="Path 25322" class="cls-86" d="M1158.9,222.31a1.69,1.69,0,1,1-2.18-1h0a1.68,1.68,0,0,1,2.16,1Z"/><path id="Path_25323" data-name="Path 25323" class="cls-87" d="M1159.81,222a1.66,1.66,0,0,1-1,2.15,1.68,1.68,0,0,1-2.15-1,1.66,1.66,0,0,1,1-2.15h0a1.66,1.66,0,0,1,2.15,1Z"/><path id="Path_25324" data-name="Path 25324" class="cls-88" d="M1160.73,221.64a1.66,1.66,0,0,1-1,2.13,1.65,1.65,0,0,1-1.17-3.08h0A1.65,1.65,0,0,1,1160.73,221.64Z"/><path id="Path_25325" data-name="Path 25325" class="cls-89" d="M1161.64,221.3a1.63,1.63,0,1,1-2.11-.94,1.63,1.63,0,0,1,2.11.94Z"/><path id="Path_25326" data-name="Path 25326" class="cls-90" d="M1162.56,221a1.62,1.62,0,1,1-3,1.15,1.6,1.6,0,0,1,.93-2.08h0a1.63,1.63,0,0,1,2.09.94Z"/><path id="Path_25327" data-name="Path 25327" class="cls-91" d="M1163.47,220.63a1.6,1.6,0,0,1-.92,2.07,1.6,1.6,0,1,1-1.14-3h0A1.59,1.59,0,0,1,1163.47,220.63Z"/><path id="Path_25328" data-name="Path 25328" class="cls-92" d="M1164.39,220.29a1.58,1.58,0,1,1-3,1.13,1.57,1.57,0,0,1,.91-2h0a1.58,1.58,0,0,1,2,.91Z"/><path id="Path_25329" data-name="Path 25329" class="cls-93" d="M1165.3,220a1.57,1.57,0,1,1-2-.9h0A1.56,1.56,0,0,1,1165.3,220Z"/><path id="Path_25330" data-name="Path 25330" class="cls-94" d="M1166.22,219.62a1.56,1.56,0,1,1-2-.9h0A1.56,1.56,0,0,1,1166.22,219.62Z"/><path id="Path_25331" data-name="Path 25331" class="cls-95" d="M1167.13,219.28a1.54,1.54,0,1,1-2-.88h0a1.53,1.53,0,0,1,2,.88Z"/><path id="Path_25332" data-name="Path 25332" class="cls-96" d="M1168.05,218.94a1.54,1.54,0,0,1-.88,2,1.52,1.52,0,0,1-1.09-2.84h0A1.52,1.52,0,0,1,1168.05,218.94Z"/><path id="Path_25333" data-name="Path 25333" class="cls-97" d="M1169,218.61a1.5,1.5,0,0,1-.87,1.93,1.5,1.5,0,0,1-1.07-2.8,1.5,1.5,0,0,1,1.94.86Z"/><path id="Path_25334" data-name="Path 25334" class="cls-98" d="M1169.87,218.27a1.48,1.48,0,1,1-1.92-.86h0a1.48,1.48,0,0,1,1.91.86Z"/><path id="Path_25335" data-name="Path 25335" class="cls-99" d="M1170.79,217.93a1.47,1.47,0,1,1-1.9-.85,1.47,1.47,0,0,1,1.9.85Z"/><path id="Path_25336" data-name="Path 25336" class="cls-100" d="M1171.71,217.6a1.46,1.46,0,1,1-1.88-.84h0a1.44,1.44,0,0,1,1.87.84Z"/><path id="Path_25337" data-name="Path 25337" class="cls-101" d="M1172.62,217.26a1.44,1.44,0,1,1-1.86-.83h0a1.43,1.43,0,0,1,1.85.83Z"/><path id="Path_25338" data-name="Path 25338" class="cls-102" d="M1173.54,216.92a1.42,1.42,0,1,1-1.84-.82h0a1.42,1.42,0,0,1,1.83.82Z"/><path id="Path_25339" data-name="Path 25339" class="cls-103" d="M1174.45,216.58a1.41,1.41,0,1,1-1.81-.81h0a1.4,1.4,0,0,1,1.81.8Z"/><path id="Path_25340" data-name="Path 25340" class="cls-104" d="M1175.37,216.25a1.39,1.39,0,1,1-1.8-.8h0a1.4,1.4,0,0,1,1.8.8Z"/><path id="Path_25341" data-name="Path 25341" class="cls-53" d="M1176.28,215.91a1.38,1.38,0,1,1-1.77-.79h0a1.37,1.37,0,0,1,1.77.79Z"/></g><g id="Comet-3"><path id="Path_25342" data-name="Path 25342" class="cls-2" d="M1441.05,362.71a4,4,0,1,1-4.35-3.67h0a4,4,0,0,1,4.35,3.66Z"/><path id="Path_25343" data-name="Path 25343" class="cls-3" d="M1444.27,361.1a4,4,0,1,1-4.33-3.65h0a4,4,0,0,1,4.32,3.64Z"/><path id="Path_25344" data-name="Path 25344" class="cls-4" d="M1447.48,359.48a4,4,0,1,1-4.29-3.62h0a4,4,0,0,1,4.29,3.62Z"/><path id="Path_25345" data-name="Path 25345" class="cls-5" d="M1450.69,357.86a3.95,3.95,0,1,1-4.27-3.6h0a3.94,3.94,0,0,1,4.26,3.6Z"/><path id="Path_25346" data-name="Path 25346" class="cls-6" d="M1453.91,356.25a3.92,3.92,0,1,1-4.24-3.58h0a3.93,3.93,0,0,1,4.24,3.58Z"/><path id="Path_25347" data-name="Path 25347" class="cls-7" d="M1457.12,354.63a3.9,3.9,0,1,1-4.21-3.56h0a3.9,3.9,0,0,1,4.21,3.55Z"/><path id="Path_25348" data-name="Path 25348" class="cls-8" d="M1460.34,353a3.88,3.88,0,1,1-4.19-3.53h0a3.88,3.88,0,0,1,4.19,3.52Z"/><path id="Path_25349" data-name="Path 25349" class="cls-9" d="M1463.56,351.4a3.85,3.85,0,1,1-4.16-3.52h0a3.84,3.84,0,0,1,4.15,3.51Z"/><path id="Path_25350" data-name="Path 25350" class="cls-10" d="M1466.77,349.79a3.83,3.83,0,1,1-4.14-3.5h0a3.82,3.82,0,0,1,4.14,3.49Z"/><path id="Path_25351" data-name="Path 25351" class="cls-11" d="M1470,348.16a3.8,3.8,0,1,1-4.11-3.47,3.81,3.81,0,0,1,4.11,3.47Z"/><path id="Path_25352" data-name="Path 25352" class="cls-12" d="M1473.2,346.55a3.78,3.78,0,1,1-4.08-3.45h0a3.77,3.77,0,0,1,4.08,3.44Z"/><path id="Path_25353" data-name="Path 25353" class="cls-13" d="M1476.42,344.93a3.76,3.76,0,1,1-4.06-3.43h0a3.75,3.75,0,0,1,4.05,3.42Z"/><path id="Path_25354" data-name="Path 25354" class="cls-14" d="M1479.63,343.31a3.73,3.73,0,1,1-4-3.4h0a3.73,3.73,0,0,1,4,3.4Z"/><path id="Path_25355" data-name="Path 25355" class="cls-15" d="M1482.85,341.7a3.71,3.71,0,1,1-4-3.39h0a3.71,3.71,0,0,1,4,3.38Z"/><path id="Path_25356" data-name="Path 25356" class="cls-16" d="M1486.07,340.08a3.68,3.68,0,1,1-4-3.36h0a3.69,3.69,0,0,1,4,3.35Z"/><path id="Path_25357" data-name="Path 25357" class="cls-17" d="M1489.28,338.46a3.66,3.66,0,1,1-4-3.33h0a3.65,3.65,0,0,1,4,3.33Z"/><path id="Path_25358" data-name="Path 25358" class="cls-18" d="M1492.49,336.85a3.63,3.63,0,1,1-3.92-3.32,3.62,3.62,0,0,1,3.92,3.32Z"/><path id="Path_25359" data-name="Path 25359" class="cls-19" d="M1495.71,335.23a3.61,3.61,0,1,1-3.9-3.29,3.61,3.61,0,0,1,3.9,3.29Z"/><path id="Path_25360" data-name="Path 25360" class="cls-20" d="M1498.93,333.61a3.59,3.59,0,1,1-3.88-3.27h0a3.57,3.57,0,0,1,3.87,3.26Z"/><path id="Path_25361" data-name="Path 25361" class="cls-21" d="M1502.14,332a3.56,3.56,0,1,1-3.85-3.25h0a3.55,3.55,0,0,1,3.84,3.24Z"/><path id="Path_25362" data-name="Path 25362" class="cls-22" d="M1505.36,330.38a3.54,3.54,0,1,1-3.82-3.23h0a3.54,3.54,0,0,1,3.82,3.22Z"/><path id="Path_25363" data-name="Path 25363" class="cls-23" d="M1508.57,328.76a3.51,3.51,0,1,1-3.8-3.2h0a3.52,3.52,0,0,1,3.8,3.2Z"/><path id="Path_25364" data-name="Path 25364" class="cls-24" d="M1511.79,327.15A3.49,3.49,0,1,1,1508,324h0a3.49,3.49,0,0,1,3.77,3.18Z"/><path id="Path_25365" data-name="Path 25365" class="cls-25" d="M1515,325.53a3.46,3.46,0,1,1-3.74-3.16h0a3.46,3.46,0,0,1,3.74,3.15Z"/><path id="Path_25366" data-name="Path 25366" class="cls-26" d="M1518.22,323.91a3.44,3.44,0,1,1-3.72-3.14h0a3.44,3.44,0,0,1,3.72,3.13Z"/><path id="Path_25367" data-name="Path 25367" class="cls-27" d="M1521.43,322.3a3.41,3.41,0,1,1-3.69-3.12,3.4,3.4,0,0,1,3.69,3.12Z"/><path id="Path_25368" data-name="Path 25368" class="cls-28" d="M1524.65,320.68a3.39,3.39,0,1,1-3.66-3.1,3.39,3.39,0,0,1,3.66,3.1Z"/><path id="Path_25369" data-name="Path 25369" class="cls-29" d="M1527.87,319.06a3.37,3.37,0,1,1-3.64-3.07h0a3.36,3.36,0,0,1,3.64,3.06Z"/><path id="Path_25370" data-name="Path 25370" class="cls-30" d="M1531.08,317.45a3.34,3.34,0,1,1-3.61-3.05h0a3.33,3.33,0,0,1,3.61,3Z"/><path id="Path_25371" data-name="Path 25371" class="cls-31" d="M1534.3,315.83a3.32,3.32,0,1,1-3.59-3,3.32,3.32,0,0,1,3.59,3Z"/><path id="Path_25372" data-name="Path 25372" class="cls-32" d="M1537.51,314.21a3.29,3.29,0,1,1-3.56-3,3.3,3.3,0,0,1,3.56,3Z"/><path id="Path_25373" data-name="Path 25373" class="cls-33" d="M1540.73,312.6a3.27,3.27,0,1,1-3.54-3,3.27,3.27,0,0,1,3.54,3Z"/><path id="Path_25374" data-name="Path 25374" class="cls-34" d="M1543.94,311a3.24,3.24,0,1,1-3.5-3h0a3.24,3.24,0,0,1,3.5,3Z"/><path id="Path_25375" data-name="Path 25375" class="cls-35" d="M1547.16,309.36a3.22,3.22,0,1,1-3.48-2.94h0a3.22,3.22,0,0,1,3.48,2.93Z"/><path id="Path_25376" data-name="Path 25376" class="cls-36" d="M1550.37,307.74a3.2,3.2,0,1,1-3.46-2.91h0a3.19,3.19,0,0,1,3.45,2.91Z"/><path id="Path_25377" data-name="Path 25377" class="cls-37" d="M1553.59,306.13a3.17,3.17,0,1,1-3.43-2.9,3.18,3.18,0,0,1,3.43,2.9Z"/><path id="Path_25378" data-name="Path 25378" class="cls-38" d="M1556.8,304.51a3.15,3.15,0,1,1-3.4-2.87h0a3.14,3.14,0,0,1,3.4,2.87Z"/><path id="Path_25379" data-name="Path 25379" class="cls-39" d="M1560,302.89a3.12,3.12,0,1,1-3.38-2.85,3.13,3.13,0,0,1,3.38,2.85Z"/><path id="Path_25380" data-name="Path 25380" class="cls-40" d="M1563.24,301.28a3.1,3.1,0,1,1-3.36-2.83h0A3.11,3.11,0,0,1,1563.24,301.28Z"/><path id="Path_25381" data-name="Path 25381" class="cls-41" d="M1566.45,299.66a3.08,3.08,0,1,1-3.32-2.8h0a3.06,3.06,0,0,1,3.32,2.79Z"/><path id="Path_25382" data-name="Path 25382" class="cls-42" d="M1569.67,298a3.05,3.05,0,1,1-3.3-2.78,3.06,3.06,0,0,1,3.3,2.78Z"/><path id="Path_25383" data-name="Path 25383" class="cls-43" d="M1572.88,296.43a3,3,0,1,1-3.27-2.76,3,3,0,0,1,3.27,2.76Z"/><path id="Path_25384" data-name="Path 25384" class="cls-44" d="M1576.1,294.81a3,3,0,1,1-3.25-2.74,3,3,0,0,1,3.25,2.74Z"/><path id="Path_25385" data-name="Path 25385" class="cls-45" d="M1579.31,293.2a3,3,0,1,1-3.22-2.72,3,3,0,0,1,3.22,2.72Z"/><path id="Path_25386" data-name="Path 25386" class="cls-46" d="M1582.53,291.58a3,3,0,1,1-3.19-2.7,3,3,0,0,1,3.19,2.7Z"/><path id="Path_25387" data-name="Path 25387" class="cls-47" d="M1585.74,290a2.93,2.93,0,1,1-3.16-2.67,2.93,2.93,0,0,1,3.16,2.67Z"/><path id="Path_25388" data-name="Path 25388" class="cls-48" d="M1589,288.34a2.91,2.91,0,1,1-3.14-2.65,2.9,2.9,0,0,1,3.14,2.65Z"/><path id="Path_25389" data-name="Path 25389" class="cls-49" d="M1592.17,286.73a2.88,2.88,0,1,1-3.11-2.63h0a2.87,2.87,0,0,1,3.11,2.62Z"/><path id="Path_25390" data-name="Path 25390" class="cls-50" d="M1595.39,285.11a2.86,2.86,0,1,1-3.09-2.61,2.87,2.87,0,0,1,3.09,2.61Z"/><path id="Path_25391" data-name="Path 25391" class="cls-51" d="M1598.61,283.49a2.84,2.84,0,1,1-3.07-2.58,2.83,2.83,0,0,1,3.07,2.58Z"/><path id="Path_25392" data-name="Path 25392" class="cls-52" d="M1601.82,281.88a2.81,2.81,0,1,1-3-2.57,2.81,2.81,0,0,1,3,2.57Z"/><path id="Path_25393" data-name="Path 25393" class="cls-53" d="M1605,280.26a2.78,2.78,0,1,1-3-2.54,2.8,2.8,0,0,1,3,2.54Z"/></g></g><path id="Path_25508" data-name="Path 25508" class="cls-105" d="M1830.12,651a4.56,4.56,0,1,0,4.56-4.56h0a4.56,4.56,0,0,0-4.56,4.55Z"/><path id="Path_25509" data-name="Path 25509" class="cls-105" d="M1637.48,711.41a4.56,4.56,0,1,0,4.57-4.56,4.57,4.57,0,0,0-4.57,4.56Z"/><path id="Path_25510" data-name="Path 25510" class="cls-105" d="M1873.43,825.4a4.56,4.56,0,1,0,4.57-4.57,4.56,4.56,0,0,0-4.57,4.57Z"/><path id="Path_25511" data-name="Path 25511" class="cls-105" d="M1767.87,722.37a4.56,4.56,0,1,0,4.56-4.56h0a4.57,4.57,0,0,0-4.56,4.55Z"/><path id="Path_25512" data-name="Path 25512" class="cls-105" d="M1620.39,828.81a4.56,4.56,0,1,0,4.56-4.56h0A4.56,4.56,0,0,0,1620.39,828.81Z"/><path id="Path_25514" data-name="Path 25514" class="cls-106" d="M1006.14,313.78a3,3,0,1,0,3-3,3,3,0,0,0-3,3Z"/><path id="Path_25516" data-name="Path 25516" class="cls-106" d="M1659.09,62.05a3,3,0,1,0,3-3,3,3,0,0,0-3,3Z"/><path id="Path_25517" data-name="Path 25517" class="cls-106" d="M77.54,500.09a3,3,0,1,0,3-3,3,3,0,0,0-3,3Z"/><path id="Path_25518" data-name="Path 25518" class="cls-106" d="M1575.91,881.13a3,3,0,1,0,3-3,3,3,0,0,0-3,3Z"/><path id="Path_25519" data-name="Path 25519" class="cls-106" d="M814,131.06a3,3,0,1,0,3-3h0A3,3,0,0,0,814,131.06Z"/><path id="Path_25520" data-name="Path 25520" class="cls-106" d="M14.49,32.05a3,3,0,1,0,3-3h0a3,3,0,0,0-3,3Z"/><path id="Path_25521" data-name="Path 25521" class="cls-106" d="M1714.14,332.94a3,3,0,1,0,3-3,3,3,0,0,0-3,3Z"/><path id="Path_25523" data-name="Path 25523" class="cls-106" d="M711.55,522.75a3,3,0,1,0,3-3h0a3,3,0,0,0-3,3Z"/><g id="Group_32452" data-name="Group 32452"><path id="Path_25524" data-name="Path 25524" class="cls-107" d="M975,85.27a3,3,0,1,0,3-3h0A3,3,0,0,0,975,85.27Z"/><path id="Path_25525" data-name="Path 25525" class="cls-107" d="M1253.13,438.3a3,3,0,1,0,3-3,3,3,0,0,0-3,3Z"/><path id="Path_25526" data-name="Path 25526" class="cls-107" d="M1891.56,457.45a3,3,0,1,0,3-3h0a3,3,0,0,0-3,3Z"/><path id="Path_25527" data-name="Path 25527" class="cls-107" d="M854.36,505.19a3,3,0,1,0,3-3h0A3,3,0,0,0,854.36,505.19Z"/><path id="Path_25528" data-name="Path 25528" class="cls-107" d="M987.5,647.26a3,3,0,1,0,3-3h0a3,3,0,0,0-3,3Z"/></g><path id="Path_24684" data-name="Path 24684" class="cls-106" d="M627.35,284.76a1.41,1.41,0,1,1-1.41-1.41h0a1.41,1.41,0,0,1,1.41,1.4Z"/><path id="Path_24685" data-name="Path 24685" class="cls-106" d="M686.86,303.42a1.41,1.41,0,1,1-1.41-1.41h0A1.41,1.41,0,0,1,686.86,303.42Z"/><path id="Path_24686" data-name="Path 24686" class="cls-106" d="M614,338.62a1.41,1.41,0,1,1-1.4-1.41h0A1.41,1.41,0,0,1,614,338.62Z"/><path id="Path_24687" data-name="Path 24687" class="cls-106" d="M755.16,272.43a1.41,1.41,0,1,1-1.41-1.4A1.39,1.39,0,0,1,755.16,272.43Z"/><path id="Path_24688" data-name="Path 24688" class="cls-106" d="M692.13,339.68a1.41,1.41,0,1,1-1.41-1.41,1.41,1.41,0,0,1,1.41,1.41Z"/><path id="Path_24689" data-name="Path 24689" class="cls-106" d="M366.2,386.73a1.39,1.39,0,0,1-1.4,1.41,1.41,1.41,0,0,1,0-2.82h0A1.41,1.41,0,0,1,366.2,386.73Z"/><path id="Path_24690" data-name="Path 24690" class="cls-106" d="M425.7,405.39a1.41,1.41,0,1,1-1.41-1.41A1.41,1.41,0,0,1,425.7,405.39Z"/><path id="Path_24691" data-name="Path 24691" class="cls-106" d="M352.82,440.6a1.39,1.39,0,0,1-1.4,1.41A1.41,1.41,0,0,1,350,440.6a1.39,1.39,0,0,1,1.4-1.41h0a1.41,1.41,0,0,1,1.41,1.41Z"/><path id="Path_24692" data-name="Path 24692" class="cls-106" d="M494,374.41A1.41,1.41,0,1,1,492.6,373h0a1.41,1.41,0,0,1,1.41,1.41Z"/><path id="Path_24693" data-name="Path 24693" class="cls-106" d="M431,441.65a1.41,1.41,0,1,1-1.41-1.4h0a1.4,1.4,0,0,1,1.4,1.4Z"/><g id="Group_32334" data-name="Group 32334"><path id="Path_24694" data-name="Path 24694" class="cls-105" d="M278,589.48a2.16,2.16,0,1,1-2.16-2.15A2.16,2.16,0,0,1,278,589.48Z"/><path id="Path_24695" data-name="Path 24695" class="cls-105" d="M369.12,618.08a2.16,2.16,0,1,1-2.15-2.16,2.14,2.14,0,0,1,2.15,2.16Z"/><path id="Path_24696" data-name="Path 24696" class="cls-105" d="M257.45,672a2.16,2.16,0,1,1-2.16-2.16A2.16,2.16,0,0,1,257.45,672Z"/><path id="Path_24697" data-name="Path 24697" class="cls-105" d="M473.79,570.6a2.16,2.16,0,1,1-2.16-2.16A2.16,2.16,0,0,1,473.79,570.6Z"/><path id="Path_24698" data-name="Path 24698" class="cls-105" d="M377.22,673.65a2.16,2.16,0,1,1-2.16-2.16h0A2.16,2.16,0,0,1,377.22,673.65Z"/></g><path id="Path_24699" data-name="Path 24699" class="cls-106" d="M909.16,210.1a1.41,1.41,0,1,1-1.41-1.41,1.41,1.41,0,0,1,1.41,1.41Z"/><path id="Path_24700" data-name="Path 24700" class="cls-106" d="M777.5,377.2a1.4,1.4,0,0,1-1.4,1.41,1.41,1.41,0,1,1,0-2.82,1.41,1.41,0,0,1,1.41,1.41Z"/><path id="Path_24701" data-name="Path 24701" class="cls-106" d="M475.32,386.27a1.41,1.41,0,1,1-1.41-1.41h0a1.4,1.4,0,0,1,1.41,1.39Z"/><path id="Path_24702" data-name="Path 24702" class="cls-106" d="M966.26,408.86a1.41,1.41,0,1,1-1.41-1.4h0a1.4,1.4,0,0,1,1.41,1.4Z"/><path id="Path_24703" data-name="Path 24703" class="cls-106" d="M903.23,476.11a1.41,1.41,0,1,1-1.4-1.41h0a1.41,1.41,0,0,1,1.4,1.41Z"/><g id="Group_32337" data-name="Group 32337"><path id="Path_24704" data-name="Path 24704" class="cls-107" d="M703.42,236.48a1.41,1.41,0,1,1-1.41-1.4h0A1.41,1.41,0,0,1,703.42,236.48Z"/><path id="Path_24705" data-name="Path 24705" class="cls-107" d="M571.77,403.58a1.41,1.41,0,1,1-1.41-1.41A1.41,1.41,0,0,1,571.77,403.58Z"/><path id="Path_24706" data-name="Path 24706" class="cls-107" d="M269.58,412.65a1.41,1.41,0,1,1-1.41-1.41,1.41,1.41,0,0,1,1.41,1.41Z"/><path id="Path_24707" data-name="Path 24707" class="cls-107" d="M760.52,435.24a1.41,1.41,0,1,1-1.41-1.41,1.41,1.41,0,0,1,1.41,1.41Z"/><path id="Path_24708" data-name="Path 24708" class="cls-107" d="M697.5,502.48a1.41,1.41,0,0,1-1.41,1.41,1.39,1.39,0,0,1-1.41-1.4,1.41,1.41,0,0,1,1.41-1.41h0A1.41,1.41,0,0,1,697.5,502.48Z"/></g><path id="Path_24709" data-name="Path 24709" class="cls-106" d="M296.51,873.21a1.41,1.41,0,1,1,1.4,1.4,1.41,1.41,0,0,1-1.4-1.4Z"/><path id="Path_24710" data-name="Path 24710" class="cls-106" d="M237,854.54a1.41,1.41,0,1,1,1.41,1.41,1.41,1.41,0,0,1-1.41-1.41Z"/><path id="Path_24711" data-name="Path 24711" class="cls-106" d="M309.88,819.34a1.41,1.41,0,1,1,1.41,1.41h0A1.42,1.42,0,0,1,309.88,819.34Z"/><path id="Path_24712" data-name="Path 24712" class="cls-106" d="M168.7,885.53a1.41,1.41,0,1,1,1.41,1.41A1.41,1.41,0,0,1,168.7,885.53Z"/><path id="Path_24713" data-name="Path 24713" class="cls-106" d="M231.72,818.29a1.41,1.41,0,1,1,1.41,1.4h0A1.41,1.41,0,0,1,231.72,818.29Z"/><path id="Path_24714" data-name="Path 24714" class="cls-106" d="M557.65,771.23a1.41,1.41,0,1,1,2.82,0,1.41,1.41,0,1,1-2.82,0Z"/><path id="Path_24715" data-name="Path 24715" class="cls-106" d="M498.16,752.57a1.39,1.39,0,0,1,1.41-1.4,1.41,1.41,0,0,1,1.41,1.41,1.42,1.42,0,0,1-1.42,1.41h0a1.41,1.41,0,0,1-1.4-1.42Z"/><path id="Path_24716" data-name="Path 24716" class="cls-106" d="M571,717.36a1.41,1.41,0,1,1,1.41,1.41,1.41,1.41,0,0,1-1.41-1.41Z"/><path id="Path_24717" data-name="Path 24717" class="cls-106" d="M429.85,783.55a1.41,1.41,0,1,1,1.41,1.42,1.4,1.4,0,0,1-1.41-1.42Z"/><path id="Path_24718" data-name="Path 24718" class="cls-106" d="M492.87,716.31a1.41,1.41,0,1,1,1.41,1.41A1.41,1.41,0,0,1,492.87,716.31Z"/><g id="Group_32342" data-name="Group 32342"><path id="Path_24719" data-name="Path 24719" class="cls-105" d="M645.91,568.48a2.16,2.16,0,1,1,2.16,2.16A2.16,2.16,0,0,1,645.91,568.48Z"/><path id="Path_24720" data-name="Path 24720" class="cls-105" d="M554.73,539.89a2.16,2.16,0,1,1,2.16,2.16,2.16,2.16,0,0,1-2.16-2.16Z"/><path id="Path_24721" data-name="Path 24721" class="cls-105" d="M666.41,485.93a2.16,2.16,0,1,1,2.16,2.16,2.15,2.15,0,0,1-2.16-2.16Z"/><path id="Path_24722" data-name="Path 24722" class="cls-105" d="M450.06,587.36a2.16,2.16,0,1,1,2.16,2.16A2.16,2.16,0,0,1,450.06,587.36Z"/><path id="Path_24723" data-name="Path 24723" class="cls-105" d="M546.64,484.32a2.16,2.16,0,1,1,2.16,2.15h0A2.16,2.16,0,0,1,546.64,484.32Z"/></g><path id="Path_24725" data-name="Path 24725" class="cls-106" d="M146.35,780.76a1.41,1.41,0,1,1,1.41,1.41,1.41,1.41,0,0,1-1.41-1.41Z"/><path id="Path_24726" data-name="Path 24726" class="cls-106" d="M448.54,771.69A1.41,1.41,0,1,1,450,773.1a1.41,1.41,0,0,1-1.41-1.41Z"/><path id="Path_24728" data-name="Path 24728" class="cls-106" d="M20.62,681.85a1.41,1.41,0,1,1,1.42,1.4h0A1.41,1.41,0,0,1,20.62,681.85Z"/><g id="Group_32345" data-name="Group 32345"><path id="Path_24729" data-name="Path 24729" class="cls-107" d="M249.12,830.05a1.41,1.41,0,1,1,1.41,1.41h0A1.41,1.41,0,0,1,249.12,830.05Z"/><path id="Path_24730" data-name="Path 24730" class="cls-107" d="M380.77,663a1.41,1.41,0,1,1,1.41,1.41,1.41,1.41,0,0,1-1.41-1.41Z"/><path id="Path_24731" data-name="Path 24731" class="cls-107" d="M683,653.88a1.41,1.41,0,1,1,1.41,1.41,1.41,1.41,0,0,1-1.41-1.41Z"/><path id="Path_24732" data-name="Path 24732" class="cls-107" d="M192,631.28a1.41,1.41,0,1,1,1.41,1.41h0a1.41,1.41,0,0,1-1.41-1.41Z"/><path id="Path_24733" data-name="Path 24733" class="cls-107" d="M255,564a1.41,1.41,0,1,1,1.41,1.4A1.41,1.41,0,0,1,255,564Z"/></g><path id="Path_24734" data-name="Path 24734" class="cls-106" d="M1021.7,793.35a1.41,1.41,0,1,1,1.41,1.41h0a1.4,1.4,0,0,1-1.41-1.39Z"/><path id="Path_24735" data-name="Path 24735" class="cls-106" d="M962.2,774.68a1.41,1.41,0,1,1,1.41,1.42,1.41,1.41,0,0,1-1.41-1.42Z"/><path id="Path_24736" data-name="Path 24736" class="cls-106" d="M1035.08,739.48a1.41,1.41,0,0,1,1.41-1.4,1.41,1.41,0,0,1,0,2.81A1.41,1.41,0,0,1,1035.08,739.48Z"/><path id="Path_24737" data-name="Path 24737" class="cls-106" d="M893.89,805.67a1.41,1.41,0,1,1,1.42,1.41h0A1.42,1.42,0,0,1,893.89,805.67Z"/><path id="Path_24738" data-name="Path 24738" class="cls-106" d="M956.92,738.43a1.41,1.41,0,0,1,2.82,0,1.42,1.42,0,0,1-1.41,1.42h0A1.41,1.41,0,0,1,956.92,738.43Z"/><path id="Path_24739" data-name="Path 24739" class="cls-106" d="M1282.85,691.38a1.41,1.41,0,0,1,1.41-1.41,1.39,1.39,0,0,1,1.4,1.41,1.41,1.41,0,1,1-2.81,0Z"/><path id="Path_24740" data-name="Path 24740" class="cls-106" d="M1223.35,672.71a1.41,1.41,0,1,1,1.41,1.41,1.41,1.41,0,0,1-1.41-1.41Z"/><path id="Path_24741" data-name="Path 24741" class="cls-106" d="M1296.23,637.51a1.41,1.41,0,1,1,1.41,1.4h0A1.4,1.4,0,0,1,1296.23,637.51Z"/><path id="Path_24742" data-name="Path 24742" class="cls-106" d="M1155,703.7a1.42,1.42,0,0,1,1.42-1.41,1.41,1.41,0,1,1-1.42,1.41Z"/><path id="Path_24743" data-name="Path 24743" class="cls-106" d="M1218.07,636.46a1.41,1.41,0,1,1,1.41,1.4,1.41,1.41,0,0,1-1.41-1.4Z"/><g id="Group_32350" data-name="Group 32350"><path id="Path_24744" data-name="Path 24744" class="cls-105" d="M1371.11,488.62a2.16,2.16,0,1,1,2.15,2.16A2.15,2.15,0,0,1,1371.11,488.62Z"/><path id="Path_24745" data-name="Path 24745" class="cls-105" d="M1279.93,460a2.16,2.16,0,1,1,2.15,2.16,2.16,2.16,0,0,1-2.15-2.16Z"/><path id="Path_24746" data-name="Path 24746" class="cls-105" d="M1391.6,406.08a2.16,2.16,0,1,1,2.16,2.16,2.17,2.17,0,0,1-2.16-2.16Z"/><path id="Path_24747" data-name="Path 24747" class="cls-105" d="M1175.26,507.51a2.16,2.16,0,1,1,2.16,2.16h0A2.17,2.17,0,0,1,1175.26,507.51Z"/><path id="Path_24748" data-name="Path 24748" class="cls-105" d="M1271.83,404.46a2.16,2.16,0,1,1,2.16,2.16h0A2.16,2.16,0,0,1,1271.83,404.46Z"/></g><path id="Path_24749" data-name="Path 24749" class="cls-106" d="M739.9,868a1.41,1.41,0,1,1,1.4,1.41h0A1.4,1.4,0,0,1,739.9,868Z"/><path id="Path_24750" data-name="Path 24750" class="cls-106" d="M871.55,700.91a1.41,1.41,0,1,1,1.41,1.41h0A1.42,1.42,0,0,1,871.55,700.91Z"/><path id="Path_24751" data-name="Path 24751" class="cls-106" d="M1173.73,691.84a1.41,1.41,0,1,1,1.42,1.41h0a1.41,1.41,0,0,1-1.41-1.4Z"/><path id="Path_24752" data-name="Path 24752" class="cls-106" d="M682.8,669.24a1.41,1.41,0,1,1,1.4,1.41h0a1.4,1.4,0,0,1-1.4-1.4Z"/><path id="Path_24753" data-name="Path 24753" class="cls-106" d="M745.82,602a1.41,1.41,0,1,1,1.41,1.4h0A1.41,1.41,0,0,1,745.82,602Z"/><g id="Group_32353" data-name="Group 32353"><path id="Path_24754" data-name="Path 24754" class="cls-107" d="M945.63,841.63A1.41,1.41,0,1,1,947,843h0A1.43,1.43,0,0,1,945.63,841.63Z"/><path id="Path_24755" data-name="Path 24755" class="cls-107" d="M1077.29,674.53a1.41,1.41,0,1,1,1.41,1.41,1.41,1.41,0,0,1-1.41-1.41Z"/><path id="Path_24756" data-name="Path 24756" class="cls-107" d="M1379.47,665.46a1.41,1.41,0,1,1,1.41,1.41,1.42,1.42,0,0,1-1.41-1.41Z"/><path id="Path_24757" data-name="Path 24757" class="cls-107" d="M888.53,642.87a1.41,1.41,0,1,1,1.42,1.4h0A1.41,1.41,0,0,1,888.53,642.87Z"/><path id="Path_24758" data-name="Path 24758" class="cls-107" d="M951.56,575.62A1.41,1.41,0,1,1,953,577a1.41,1.41,0,0,1-1.4-1.41Z"/></g><path id="Path_24759" data-name="Path 24759" class="cls-106" d="M352.09,346.19a1.41,1.41,0,1,0-1.41,1.41h0A1.41,1.41,0,0,0,352.09,346.19Z"/><path id="Path_24760" data-name="Path 24760" class="cls-106" d="M411.59,327.53a1.41,1.41,0,1,0-1.41,1.41,1.41,1.41,0,0,0,1.41-1.41Z"/><path id="Path_24761" data-name="Path 24761" class="cls-106" d="M338.71,292.32a1.41,1.41,0,1,0-1.41,1.41h0a1.41,1.41,0,0,0,1.41-1.41Z"/><path id="Path_24762" data-name="Path 24762" class="cls-106" d="M479.89,358.51a1.39,1.39,0,0,0-1.4-1.41,1.41,1.41,0,0,0,0,2.82h0A1.41,1.41,0,0,0,479.89,358.51Z"/><path id="Path_24763" data-name="Path 24763" class="cls-106" d="M416.87,291.27a1.41,1.41,0,1,0-1.41,1.4h0A1.41,1.41,0,0,0,416.87,291.27Z"/><path id="Path_24764" data-name="Path 24764" class="cls-106" d="M90.94,244.21a1.41,1.41,0,0,0-2.82,0,1.41,1.41,0,0,0,2.82,0Z"/><path id="Path_24765" data-name="Path 24765" class="cls-106" d="M150.44,225.55A1.41,1.41,0,1,0,149,227a1.41,1.41,0,0,0,1.41-1.41Z"/><path id="Path_24766" data-name="Path 24766" class="cls-106" d="M77.56,190.35a1.41,1.41,0,1,0-1.41,1.41A1.41,1.41,0,0,0,77.56,190.35Z"/><path id="Path_24767" data-name="Path 24767" class="cls-106" d="M218.74,256.54a1.41,1.41,0,1,0-1.41,1.41,1.41,1.41,0,0,0,1.41-1.41Z"/><path id="Path_24768" data-name="Path 24768" class="cls-106" d="M155.72,189.29a1.39,1.39,0,0,0-1.4-1.41,1.41,1.41,0,1,0,1.4,1.41Z"/><g id="Group_32358" data-name="Group 32358"><path id="Path_24769" data-name="Path 24769" class="cls-105" d="M39,101.39a2.16,2.16,0,1,0-2.16,2.16A2.15,2.15,0,0,0,39,101.39Z"/><path id="Path_24770" data-name="Path 24770" class="cls-105" d="M130.17,72.8A2.16,2.16,0,1,0,128,75,2.15,2.15,0,0,0,130.17,72.8Z"/><path id="Path_24771" data-name="Path 24771" class="cls-105" d="M18.49,18.84A2.16,2.16,0,1,0,16.33,21a2.16,2.16,0,0,0,2.16-2.17Z"/><path id="Path_24772" data-name="Path 24772" class="cls-105" d="M234.84,120.27a2.16,2.16,0,1,0-2.16,2.16A2.16,2.16,0,0,0,234.84,120.27Z"/><path id="Path_24773" data-name="Path 24773" class="cls-105" d="M138.27,17.23a2.16,2.16,0,1,0-2.17,2.15h0A2.16,2.16,0,0,0,138.27,17.23Z"/></g><path id="Path_24774" data-name="Path 24774" class="cls-106" d="M633.89,420.84a1.41,1.41,0,1,0-1.41,1.41h0A1.41,1.41,0,0,0,633.89,420.84Z"/><path id="Path_24775" data-name="Path 24775" class="cls-106" d="M502.24,253.75a1.41,1.41,0,1,0-1.41,1.41,1.41,1.41,0,0,0,1.41-1.41Z"/><path id="Path_24776" data-name="Path 24776" class="cls-106" d="M200.06,244.68a1.41,1.41,0,1,0-1.41,1.41,1.41,1.41,0,0,0,1.41-1.41Z"/><path id="Path_24777" data-name="Path 24777" class="cls-106" d="M691,222.09a1.41,1.41,0,1,0-1.4,1.4h0A1.4,1.4,0,0,0,691,222.09Z"/><path id="Path_24778" data-name="Path 24778" class="cls-106" d="M628,154.84a1.41,1.41,0,1,0-1.41,1.4,1.41,1.41,0,0,0,1.41-1.4Z"/><g id="Group_32361" data-name="Group 32361"><path id="Path_24779" data-name="Path 24779" class="cls-107" d="M464.47,454.4a1.41,1.41,0,1,0-1.41,1.4h0A1.42,1.42,0,0,0,464.47,454.4Z"/><path id="Path_24780" data-name="Path 24780" class="cls-107" d="M332.81,287.3a1.41,1.41,0,1,0-1.41,1.41,1.41,1.41,0,0,0,1.41-1.41Z"/><path id="Path_24781" data-name="Path 24781" class="cls-107" d="M30.62,278.23a1.41,1.41,0,1,0-1.4,1.41,1.41,1.41,0,0,0,1.4-1.41Z"/><path id="Path_24782" data-name="Path 24782" class="cls-107" d="M521.57,255.63a1.41,1.41,0,1,0-1.42,1.41h0A1.42,1.42,0,0,0,521.57,255.63Z"/><path id="Path_24783" data-name="Path 24783" class="cls-107" d="M458.54,188.38a1.41,1.41,0,1,0-1.41,1.41h0a1.4,1.4,0,0,0,1.41-1.4Z"/></g><g id="Group_32372" data-name="Group 32372"><g id="Group_32365" data-name="Group 32365" class="cls-108"><path id="Path_24784" data-name="Path 24784" class="cls-106" d="M1529,282.3a1.41,1.41,0,1,0,1.41-1.41,1.41,1.41,0,0,0-1.41,1.41Z"/><path id="Path_24785" data-name="Path 24785" class="cls-106" d="M1469.45,301a1.41,1.41,0,1,0,1.41-1.4h0A1.41,1.41,0,0,0,1469.45,301Z"/><path id="Path_24786" data-name="Path 24786" class="cls-106" d="M1542.33,336.17a1.41,1.41,0,1,0,1.41-1.41h0A1.41,1.41,0,0,0,1542.33,336.17Z"/><path id="Path_24787" data-name="Path 24787" class="cls-106" d="M1401.15,270a1.41,1.41,0,1,0,1.41-1.41A1.41,1.41,0,0,0,1401.15,270Z"/><path id="Path_24788" data-name="Path 24788" class="cls-106" d="M1464.18,337.23a1.41,1.41,0,1,0,2.81,0,1.39,1.39,0,0,0-1.4-1.41h0a1.4,1.4,0,0,0-1.4,1.4Z"/></g><g id="Group_32366" data-name="Group 32366" class="cls-108"><path id="Path_24789" data-name="Path 24789" class="cls-106" d="M1790.1,384.28a1.41,1.41,0,1,0,1.42-1.41A1.42,1.42,0,0,0,1790.1,384.28Z"/><path id="Path_24790" data-name="Path 24790" class="cls-106" d="M1730.61,402.94a1.41,1.41,0,1,0,1.41-1.41h0A1.41,1.41,0,0,0,1730.61,402.94Z"/><path id="Path_24791" data-name="Path 24791" class="cls-106" d="M1803.49,438.14a1.41,1.41,0,1,0,1.41-1.4h0a1.4,1.4,0,0,0-1.4,1.4Z"/><path id="Path_24792" data-name="Path 24792" class="cls-106" d="M1662.3,372a1.41,1.41,0,1,0,1.41-1.4h0a1.41,1.41,0,0,0-1.41,1.4Z"/><path id="Path_24793" data-name="Path 24793" class="cls-106" d="M1725.33,439.2a1.41,1.41,0,1,0,1.41-1.41h0a1.41,1.41,0,0,0-1.4,1.41Z"/></g><g id="Group_32368" data-name="Group 32368"><g id="Group_32367" data-name="Group 32367"><path id="Path_24794" data-name="Path 24794" class="cls-105" d="M1878.36,587a2.16,2.16,0,1,0,2.16-2.16A2.16,2.16,0,0,0,1878.36,587Z"/><path id="Path_24795" data-name="Path 24795" class="cls-105" d="M1787.18,615.62a2.16,2.16,0,1,0,2.16-2.16,2.16,2.16,0,0,0-2.16,2.16Z"/><path id="Path_24796" data-name="Path 24796" class="cls-105" d="M1898.86,669.58a2.16,2.16,0,1,0,2.16-2.16,2.16,2.16,0,0,0-2.16,2.16Z"/><path id="Path_24797" data-name="Path 24797" class="cls-105" d="M1682.52,568.15a2.16,2.16,0,1,0,2.16-2.16,2.15,2.15,0,0,0-2.16,2.16Z"/><path id="Path_24798" data-name="Path 24798" class="cls-105" d="M1779.09,671.19a2.16,2.16,0,1,0,2.16-2.16h0A2.17,2.17,0,0,0,1779.09,671.19Z"/></g></g><g id="Group_32369" data-name="Group 32369"><path id="Path_24799" data-name="Path 24799" class="cls-106" d="M1247.16,207.65a1.41,1.41,0,1,0,1.4-1.41,1.4,1.4,0,0,0-1.4,1.41Z"/><path id="Path_24800" data-name="Path 24800" class="cls-106" d="M1378.8,374.75a1.41,1.41,0,1,0,2.82,0,1.39,1.39,0,0,0-1.4-1.41h0A1.42,1.42,0,0,0,1378.8,374.75Z"/><path id="Path_24801" data-name="Path 24801" class="cls-106" d="M1681,383.81a1.41,1.41,0,1,0,1.41-1.41,1.41,1.41,0,0,0-1.41,1.41Z"/><path id="Path_24802" data-name="Path 24802" class="cls-106" d="M1190.05,406.41a1.41,1.41,0,1,0,1.41-1.41h0a1.41,1.41,0,0,0-1.41,1.41Z"/><path id="Path_24803" data-name="Path 24803" class="cls-106" d="M1253.08,473.66a1.41,1.41,0,1,0,1.41-1.41h0a1.4,1.4,0,0,0-1.4,1.4Z"/></g><g id="Group_32371" data-name="Group 32371"><g id="Group_32370" data-name="Group 32370"><path id="Path_24804" data-name="Path 24804" class="cls-107" d="M1452.89,234a1.41,1.41,0,1,0,1.41-1.41h0a1.41,1.41,0,0,0-1.41,1.41Z"/><path id="Path_24805" data-name="Path 24805" class="cls-107" d="M1584.54,401.12a1.41,1.41,0,0,0,1.41,1.41,1.39,1.39,0,0,0,1.41-1.4,1.41,1.41,0,0,0-1.41-1.41h0A1.41,1.41,0,0,0,1584.54,401.12Z"/><path id="Path_24806" data-name="Path 24806" class="cls-107" d="M1886.73,410.19a1.41,1.41,0,1,0,1.41-1.41,1.42,1.42,0,0,0-1.41,1.41Z"/><path id="Path_24807" data-name="Path 24807" class="cls-107" d="M1395.79,432.78a1.41,1.41,0,1,0,1.41-1.4,1.41,1.41,0,0,0-1.41,1.4Z"/><path id="Path_24808" data-name="Path 24808" class="cls-107" d="M1458.81,500a1.42,1.42,0,0,0,1.41,1.42,1.41,1.41,0,1,0,0-2.82h0A1.41,1.41,0,0,0,1458.81,500Z"/></g></g></g><g id="Group_32380" data-name="Group 32380"><g id="Group_32373" data-name="Group 32373" class="cls-108"><path id="Path_24809" data-name="Path 24809" class="cls-106" d="M1508.29,759.49a1.41,1.41,0,1,0-1.41,1.4h0A1.41,1.41,0,0,0,1508.29,759.49Z"/><path id="Path_24810" data-name="Path 24810" class="cls-106" d="M1567.79,740.82a1.41,1.41,0,1,0-1.41,1.41,1.41,1.41,0,0,0,1.41-1.41Z"/><path id="Path_24811" data-name="Path 24811" class="cls-106" d="M1494.91,705.62a1.41,1.41,0,1,0-1.41,1.4h0A1.41,1.41,0,0,0,1494.91,705.62Z"/><path id="Path_24812" data-name="Path 24812" class="cls-106" d="M1636.1,771.81a1.42,1.42,0,0,0-1.42-1.41,1.41,1.41,0,1,0,1.42,1.41Z"/><path id="Path_24813" data-name="Path 24813" class="cls-106" d="M1573.07,704.56a1.41,1.41,0,1,0-1.41,1.41h0A1.41,1.41,0,0,0,1573.07,704.56Z"/></g><g id="Group_32374" data-name="Group 32374" class="cls-108"><path id="Path_24814" data-name="Path 24814" class="cls-106" d="M1247.14,657.51a1.41,1.41,0,1,0-1.41,1.41A1.41,1.41,0,0,0,1247.14,657.51Z"/><path id="Path_24815" data-name="Path 24815" class="cls-106" d="M1306.64,638.85a1.41,1.41,0,1,0-1.41,1.41,1.41,1.41,0,0,0,1.41-1.41Z"/><path id="Path_24816" data-name="Path 24816" class="cls-106" d="M1233.76,603.64a1.41,1.41,0,0,0-2.82,0,1.41,1.41,0,0,0,2.82,0Z"/><path id="Path_24817" data-name="Path 24817" class="cls-106" d="M1375,669.83a1.41,1.41,0,1,0-1.41,1.41,1.41,1.41,0,0,0,1.41-1.41Z"/><path id="Path_24818" data-name="Path 24818" class="cls-106" d="M1311.92,602.59a1.41,1.41,0,1,0-1.41,1.41A1.41,1.41,0,0,0,1311.92,602.59Z"/></g><g id="Group_32376" data-name="Group 32376"><g id="Group_32375" data-name="Group 32375"><path id="Path_24819" data-name="Path 24819" class="cls-105" d="M1158.89,454.76a2.16,2.16,0,1,0-2.16,2.15A2.16,2.16,0,0,0,1158.89,454.76Z"/><path id="Path_24820" data-name="Path 24820" class="cls-105" d="M1250.06,426.16a2.16,2.16,0,1,0-2.15,2.16,2.15,2.15,0,0,0,2.15-2.16Z"/><path id="Path_24821" data-name="Path 24821" class="cls-105" d="M1138.39,372.21a2.16,2.16,0,1,0-2.16,2.16,2.15,2.15,0,0,0,2.16-2.16Z"/><path id="Path_24822" data-name="Path 24822" class="cls-105" d="M1354.73,473.64a2.16,2.16,0,1,0-2.16,2.16A2.16,2.16,0,0,0,1354.73,473.64Z"/><path id="Path_24823" data-name="Path 24823" class="cls-105" d="M1258.16,370.6a2.16,2.16,0,1,0-2.16,2.15h0A2.16,2.16,0,0,0,1258.16,370.6Z"/></g></g><g id="Group_32377" data-name="Group 32377"><path id="Path_24824" data-name="Path 24824" class="cls-106" d="M1790.09,834.14a1.41,1.41,0,1,0-1.4,1.41A1.39,1.39,0,0,0,1790.09,834.14Z"/><path id="Path_24825" data-name="Path 24825" class="cls-106" d="M1658.44,667a1.41,1.41,0,1,0-1.41,1.41,1.41,1.41,0,0,0,1.41-1.41Z"/><path id="Path_24826" data-name="Path 24826" class="cls-106" d="M1356.26,658a1.41,1.41,0,1,0-1.41,1.41h0A1.41,1.41,0,0,0,1356.26,658Z"/><path id="Path_24827" data-name="Path 24827" class="cls-106" d="M1847.19,635.38a1.41,1.41,0,1,0-1.41,1.4h0A1.4,1.4,0,0,0,1847.19,635.38Z"/><path id="Path_24828" data-name="Path 24828" class="cls-106" d="M1784.17,568.13a1.41,1.41,0,1,0-1.41,1.4h0A1.4,1.4,0,0,0,1784.17,568.13Z"/></g><g id="Group_32379" data-name="Group 32379"><g id="Group_32378" data-name="Group 32378"><path id="Path_24829" data-name="Path 24829" class="cls-107" d="M1584.35,807.76a1.41,1.41,0,1,0-1.4,1.41,1.39,1.39,0,0,0,1.4-1.41Z"/><path id="Path_24830" data-name="Path 24830" class="cls-107" d="M1452.71,640.66a1.41,1.41,0,1,0-1.41,1.41,1.41,1.41,0,0,0,1.41-1.41Z"/><path id="Path_24831" data-name="Path 24831" class="cls-107" d="M1150.52,631.59a1.41,1.41,0,1,0-1.41,1.41,1.39,1.39,0,0,0,1.41-1.39Z"/><path id="Path_24832" data-name="Path 24832" class="cls-107" d="M1641.46,609a1.41,1.41,0,1,0-1.41,1.41h0A1.41,1.41,0,0,0,1641.46,609Z"/><path id="Path_24833" data-name="Path 24833" class="cls-107" d="M1578.44,541.75a1.41,1.41,0,1,0-1.41,1.41h0a1.41,1.41,0,0,0,1.41-1.41Z"/></g></g></g><g id="Group_32388" data-name="Group 32388"><g id="Group_32381" data-name="Group 32381" class="cls-108"><path id="Path_24834" data-name="Path 24834" class="cls-106" d="M1134.61,790.9a1.41,1.41,0,1,0-1.41,1.4h0a1.39,1.39,0,0,0,1.41-1.4Z"/><path id="Path_24835" data-name="Path 24835" class="cls-106" d="M1194.11,772.24a1.41,1.41,0,1,0-1.41,1.41,1.41,1.41,0,0,0,1.41-1.41Z"/><path id="Path_24836" data-name="Path 24836" class="cls-106" d="M1121.23,737a1.41,1.41,0,1,0-1.41,1.41A1.41,1.41,0,0,0,1121.23,737Z"/><path id="Path_24837" data-name="Path 24837" class="cls-106" d="M1262.42,803.22a1.42,1.42,0,1,0-1.42,1.41h0A1.42,1.42,0,0,0,1262.42,803.22Z"/><path id="Path_24838" data-name="Path 24838" class="cls-106" d="M1199.39,736a1.41,1.41,0,1,0-1.41,1.4h0A1.41,1.41,0,0,0,1199.39,736Z"/></g><g id="Group_32382" data-name="Group 32382" class="cls-108"><path id="Path_24839" data-name="Path 24839" class="cls-106" d="M873.46,688.92a1.41,1.41,0,1,0-1.41,1.41,1.41,1.41,0,0,0,1.41-1.41Z"/><path id="Path_24840" data-name="Path 24840" class="cls-106" d="M933,670.26a1.41,1.41,0,1,0-1.41,1.41,1.41,1.41,0,0,0,1.41-1.41Z"/><path id="Path_24841" data-name="Path 24841" class="cls-106" d="M860.08,635.06a1.41,1.41,0,1,0-1.41,1.4h0A1.41,1.41,0,0,0,860.08,635.06Z"/><path id="Path_24842" data-name="Path 24842" class="cls-106" d="M1001.26,701.24a1.41,1.41,0,1,0-1.4,1.41h0A1.41,1.41,0,0,0,1001.26,701.24Z"/><path id="Path_24843" data-name="Path 24843" class="cls-106" d="M938.24,634a1.41,1.41,0,1,0-1.41,1.41h0a1.41,1.41,0,0,0,1.41-1.41Z"/></g><g id="Group_32384" data-name="Group 32384"><g id="Group_32383" data-name="Group 32383"><path id="Path_24844" data-name="Path 24844" class="cls-105" d="M785.2,486.17a2.16,2.16,0,1,0-2.15,2.16h0A2.16,2.16,0,0,0,785.2,486.17Z"/><path id="Path_24845" data-name="Path 24845" class="cls-105" d="M876.38,457.57a2.16,2.16,0,1,0-2.15,2.16,2.15,2.15,0,0,0,2.15-2.16Z"/><path id="Path_24846" data-name="Path 24846" class="cls-105" d="M764.71,403.62a2.16,2.16,0,1,0-2.16,2.16,2.16,2.16,0,0,0,2.16-2.16Z"/><path id="Path_24847" data-name="Path 24847" class="cls-105" d="M981.05,505.05a2.16,2.16,0,1,0-2.16,2.16h0A2.16,2.16,0,0,0,981.05,505.05Z"/><path id="Path_24848" data-name="Path 24848" class="cls-105" d="M884.48,402a2.16,2.16,0,1,0-2.16,2.15h0A2.16,2.16,0,0,0,884.48,402Z"/></g></g><g id="Group_32385" data-name="Group 32385"><path id="Path_24849" data-name="Path 24849" class="cls-106" d="M1416.41,865.55A1.41,1.41,0,1,0,1415,867h0A1.41,1.41,0,0,0,1416.41,865.55Z"/><path id="Path_24850" data-name="Path 24850" class="cls-106" d="M1284.76,698.45a1.41,1.41,0,1,0-1.41,1.41h0A1.41,1.41,0,0,0,1284.76,698.45Z"/><path id="Path_24851" data-name="Path 24851" class="cls-106" d="M982.58,689.39a1.41,1.41,0,0,0-1.41-1.41,1.39,1.39,0,0,0-1.41,1.4,1.41,1.41,0,0,0,1.41,1.41h0a1.4,1.4,0,0,0,1.41-1.39Z"/><path id="Path_24852" data-name="Path 24852" class="cls-106" d="M1473.51,666.78a1.41,1.41,0,1,0-1.41,1.41,1.41,1.41,0,0,0,1.41-1.41Z"/><path id="Path_24853" data-name="Path 24853" class="cls-106" d="M1410.49,599.54a1.41,1.41,0,1,0-1.41,1.41,1.41,1.41,0,0,0,1.41-1.41Z"/></g><g id="Group_32387" data-name="Group 32387"><g id="Group_32386" data-name="Group 32386"><path id="Path_24854" data-name="Path 24854" class="cls-107" d="M1210.67,839.17a1.41,1.41,0,1,0-1.4,1.41A1.41,1.41,0,0,0,1210.67,839.17Z"/><path id="Path_24855" data-name="Path 24855" class="cls-107" d="M1079,672.07a1.41,1.41,0,1,0-1.41,1.42,1.41,1.41,0,0,0,1.41-1.42Z"/><path id="Path_24856" data-name="Path 24856" class="cls-107" d="M776.83,663a1.41,1.41,0,1,0-1.4,1.41,1.41,1.41,0,0,0,1.4-1.41Z"/><path id="Path_24857" data-name="Path 24857" class="cls-107" d="M1267.78,640.41a1.41,1.41,0,0,0-1.41-1.41,1.41,1.41,0,0,0,0,2.82h0A1.41,1.41,0,0,0,1267.78,640.41Z"/><path id="Path_24858" data-name="Path 24858" class="cls-107" d="M1204.75,573.16a1.41,1.41,0,1,0-1.4,1.41,1.41,1.41,0,0,0,1.4-1.41Z"/></g></g></g><g id="Group_32396" data-name="Group 32396"><g id="Group_32389" data-name="Group 32389" class="cls-108"><path id="Path_24859" data-name="Path 24859" class="cls-106" d="M1496.46,412.52a1.41,1.41,0,1,1,1.41,1.41A1.41,1.41,0,0,1,1496.46,412.52Z"/><path id="Path_24860" data-name="Path 24860" class="cls-106" d="M1437,393.86a1.39,1.39,0,0,1,1.41-1.4,1.41,1.41,0,1,1-1.41,1.41Z"/><path id="Path_24861" data-name="Path 24861" class="cls-106" d="M1509.84,358.66a1.41,1.41,0,1,1,1.41,1.41h0A1.41,1.41,0,0,1,1509.84,358.66Z"/><path id="Path_24862" data-name="Path 24862" class="cls-106" d="M1368.66,424.85a1.41,1.41,0,1,1,1.41,1.41,1.41,1.41,0,0,1-1.41-1.41Z"/><path id="Path_24863" data-name="Path 24863" class="cls-106" d="M1431.68,357.6a1.41,1.41,0,1,1,1.4,1.41A1.41,1.41,0,0,1,1431.68,357.6Z"/></g><g id="Group_32390" data-name="Group 32390" class="cls-108"><path id="Path_24864" data-name="Path 24864" class="cls-106" d="M1757.61,310.55A1.41,1.41,0,1,1,1759,312a1.41,1.41,0,0,1-1.41-1.41Z"/><path id="Path_24865" data-name="Path 24865" class="cls-106" d="M1698.11,291.89a1.41,1.41,0,1,1,1.41,1.41,1.41,1.41,0,0,1-1.41-1.41Z"/><path id="Path_24866" data-name="Path 24866" class="cls-106" d="M1771,256.68a1.41,1.41,0,1,1,1.41,1.41,1.41,1.41,0,0,1-1.41-1.41Z"/><path id="Path_24867" data-name="Path 24867" class="cls-106" d="M1629.81,322.87a1.41,1.41,0,1,1,1.41,1.41,1.41,1.41,0,0,1-1.41-1.41Z"/><path id="Path_24868" data-name="Path 24868" class="cls-106" d="M1692.83,255.63a1.41,1.41,0,1,1,1.41,1.4A1.41,1.41,0,0,1,1692.83,255.63Z"/></g><g id="Group_32392" data-name="Group 32392"><g id="Group_32391" data-name="Group 32391"><path id="Path_24869" data-name="Path 24869" class="cls-105" d="M1845.87,107.8A2.16,2.16,0,1,1,1848,110a2.15,2.15,0,0,1-2.15-2.15Z"/><path id="Path_24870" data-name="Path 24870" class="cls-105" d="M1754.68,79.2a2.16,2.16,0,1,1,4.32,0,2.16,2.16,0,0,1-4.32,0Z"/><path id="Path_24871" data-name="Path 24871" class="cls-105" d="M1866.37,25.25a2.16,2.16,0,1,1,2.16,2.16,2.16,2.16,0,0,1-2.16-2.16Z"/><path id="Path_24872" data-name="Path 24872" class="cls-105" d="M1650,126.68a2.16,2.16,0,1,1,2.16,2.16A2.16,2.16,0,0,1,1650,126.68Z"/><path id="Path_24873" data-name="Path 24873" class="cls-105" d="M1746.59,23.63a2.16,2.16,0,1,1,2.16,2.16h0A2.16,2.16,0,0,1,1746.59,23.63Z"/></g></g><g id="Group_32393" data-name="Group 32393"><path id="Path_24874" data-name="Path 24874" class="cls-106" d="M1214.66,487.18a1.41,1.41,0,0,1,1.4-1.41,1.41,1.41,0,1,1,0,2.82h0A1.41,1.41,0,0,1,1214.66,487.18Z"/><path id="Path_24875" data-name="Path 24875" class="cls-106" d="M1346.31,320.08a1.41,1.41,0,1,1,1.41,1.41h0A1.41,1.41,0,0,1,1346.31,320.08Z"/><path id="Path_24876" data-name="Path 24876" class="cls-106" d="M1648.5,311a1.41,1.41,0,1,1,1.4,1.41,1.41,1.41,0,0,1-1.4-1.41Z"/><path id="Path_24877" data-name="Path 24877" class="cls-106" d="M1157.56,288.42a1.41,1.41,0,1,1,1.41,1.4h0A1.4,1.4,0,0,1,1157.56,288.42Z"/><path id="Path_24878" data-name="Path 24878" class="cls-106" d="M1220.58,221.17a1.41,1.41,0,1,1,1.41,1.41,1.41,1.41,0,0,1-1.41-1.41Z"/></g><g id="Group_32395" data-name="Group 32395"><g id="Group_32394" data-name="Group 32394"><path id="Path_24879" data-name="Path 24879" class="cls-107" d="M1420.4,460.8a1.41,1.41,0,1,1,1.41,1.41h0A1.41,1.41,0,0,1,1420.4,460.8Z"/><path id="Path_24880" data-name="Path 24880" class="cls-107" d="M1552.05,293.7a1.41,1.41,0,1,1,1.41,1.41h0a1.41,1.41,0,0,1-1.41-1.41Z"/><path id="Path_24881" data-name="Path 24881" class="cls-107" d="M1854.24,284.63a1.41,1.41,0,1,1,1.4,1.41,1.4,1.4,0,0,1-1.4-1.41Z"/><path id="Path_24882" data-name="Path 24882" class="cls-107" d="M1363.3,262a1.41,1.41,0,0,1,2.81,0,1.42,1.42,0,0,1-1.4,1.42h0A1.42,1.42,0,0,1,1363.3,262Z"/><path id="Path_24883" data-name="Path 24883" class="cls-107" d="M1426.32,194.79a1.41,1.41,0,1,1,1.41,1.41h0a1.41,1.41,0,0,1-1.41-1.4Z"/></g></g></g><g id="Stars-4" class="cls-108"><path id="Path_25498" data-name="Path 25498" class="cls-106" d="M1347.67,118.48a3,3,0,1,0,3-3h0A3,3,0,0,0,1347.67,118.48Z"/><path id="Path_25499" data-name="Path 25499" class="cls-106" d="M1222,157.9a3,3,0,1,0,3-3A3,3,0,0,0,1222,157.9Z"/><path id="Path_25500" data-name="Path 25500" class="cls-106" d="M1375.93,232.28a3,3,0,1,0,3-3,3,3,0,0,0-3,3Z"/><path id="Path_25501" data-name="Path 25501" class="cls-106" d="M1077.65,92.44a3,3,0,1,0,3-3A3,3,0,0,0,1077.65,92.44Z"/><path id="Path_25502" data-name="Path 25502" class="cls-106" d="M1210.8,234.51a3,3,0,1,0,3-3h0a3,3,0,0,0-3,3Z"/></g><path id="Path_25503" data-name="Path 25503" class="cls-106" d="M1687.42,402.7a3,3,0,1,0,3-3,3,3,0,0,0-3,3Z"/><path id="Path_25504" data-name="Path 25504" class="cls-106" d="M1869.47,373.34a3,3,0,1,0,3-3,3,3,0,0,0-3,3Z"/><path id="Path_25505" data-name="Path 25505" class="cls-106" d="M1715.69,516.51a3,3,0,1,0,3-3A3,3,0,0,0,1715.69,516.51Z"/><path id="Path_25506" data-name="Path 25506" class="cls-106" d="M1725.17,307.89a3,3,0,1,0,3-3,3,3,0,0,0-3,3Z"/><path id="Path_25507" data-name="Path 25507" class="cls-106" d="M1858.31,450a3,3,0,1,0,3-3A3,3,0,0,0,1858.31,450Z"/></g></g></svg>