<svg xmlns="http://www.w3.org/2000/svg" width="575.366" height="655.735" viewBox="0 0 575.366 655.735">
  <g id="Sun" transform="translate(54.083 54.083)">
    <g id="Shadow-Sun" transform="translate(71.564 32.872) rotate(9)" opacity="0.5" style="mix-blend-mode: multiply;isolation: isolate">
      <path id="Path_24643" data-name="Path 24643" d="M609.243,492.465A127.207,127.207,0,1,1,482.035,365.256,127.208,127.208,0,0,1,609.243,492.465Z" transform="translate(-148.115 -144.409)" fill="#00141d" opacity="0"/>
      <circle id="Ellipse_19" data-name="Ellipse 19" cx="127.208" cy="127.208" r="127.208" transform="translate(149.968 343.725) rotate(-45)" fill="#00141d" opacity="0.02"/>
      <path id="Path_24644" data-name="Path 24644" d="M601.137,483.8A127.208,127.208,0,1,1,473.929,356.6,127.208,127.208,0,0,1,601.137,483.8Z" transform="translate(-148.115 -144.409)" fill="#00141d" opacity="0.039"/>
      <path id="Path_24645" data-name="Path 24645" d="M597.084,479.474A127.208,127.208,0,1,1,469.875,352.265,127.208,127.208,0,0,1,597.084,479.474Z" transform="translate(-148.115 -144.409)" fill="#00141d" opacity="0.059"/>
      <path id="Path_24646" data-name="Path 24646" d="M593.03,475.144A127.208,127.208,0,1,1,465.822,347.935,127.209,127.209,0,0,1,593.03,475.144Z" transform="translate(-148.115 -144.409)" fill="#00141d" opacity="0.078"/>
      <circle id="Ellipse_20" data-name="Ellipse 20" cx="127.208" cy="127.208" r="127.208" transform="translate(133.756 326.404) rotate(-45)" fill="#00141d" opacity="0.098"/>
      <circle id="Ellipse_21" data-name="Ellipse 21" cx="127.208" cy="127.208" r="127.208" transform="translate(137.576 269.433) rotate(-27.986)" fill="#00141d" opacity="0.118"/>
      <path id="Path_24647" data-name="Path 24647" d="M580.871,462.152A127.208,127.208,0,1,1,453.663,334.943,127.208,127.208,0,0,1,580.871,462.152Z" transform="translate(-148.115 -144.409)" fill="#00141d" opacity="0.137"/>
      <path id="Path_24648" data-name="Path 24648" d="M576.817,457.822A127.208,127.208,0,1,1,449.61,330.613,127.208,127.208,0,0,1,576.817,457.822Z" transform="translate(-148.115 -144.409)" fill="#00141d" opacity="0.157"/>
      <circle id="Ellipse_22" data-name="Ellipse 22" cx="127.208" cy="127.208" r="127.208" transform="translate(125.417 256.442) rotate(-27.986)" fill="#00141d" opacity="0.176"/>
      <circle id="Ellipse_23" data-name="Ellipse 23" cx="127.207" cy="127.207" r="127.207" transform="matrix(0.902, -0.431, 0.431, 0.902, 123.786, 244.763)" fill="#00141d" opacity="0.196"/>
      <path id="Path_24649" data-name="Path 24649" d="M564.658,444.831A127.208,127.208,0,1,1,437.45,317.622,127.208,127.208,0,0,1,564.658,444.831Z" transform="translate(-148.115 -144.409)" fill="#00141d" opacity="0.216"/>
      <path id="Path_24650" data-name="Path 24650" d="M560.6,440.5A127.208,127.208,0,1,1,433.4,313.292,127.207,127.207,0,0,1,560.6,440.5Z" transform="translate(-148.115 -144.409)" fill="#00141d" opacity="0.235"/>
      <circle id="Ellipse_24" data-name="Ellipse 24" cx="127.208" cy="127.208" r="127.208" transform="matrix(0.885, -0.465, 0.465, 0.885, 109.477, 238.235)" fill="#00141d" opacity="0.255"/>
      <circle id="Ellipse_25" data-name="Ellipse 25" cx="127.208" cy="127.208" r="127.208" transform="translate(97.277 287.431) rotate(-45)" fill="#00141d" opacity="0.275"/>
      <path id="Path_24651" data-name="Path 24651" d="M548.445,427.51A127.208,127.208,0,1,1,421.237,300.3,127.208,127.208,0,0,1,548.445,427.51Z" transform="translate(-148.115 -144.409)" fill="#00141d" opacity="0.294"/>
      <path id="Path_24652" data-name="Path 24652" d="M544.392,423.18A127.208,127.208,0,1,1,417.184,295.971,127.208,127.208,0,0,1,544.392,423.18Z" transform="translate(-148.115 -144.409)" fill="#00141d" opacity="0.314"/>
      <circle id="Ellipse_26" data-name="Ellipse 26" cx="127.208" cy="127.208" r="127.208" transform="translate(92.991 221.8) rotate(-27.986)" fill="#00141d" opacity="0.333"/>
      <path id="Path_24653" data-name="Path 24653" d="M536.286,414.519A127.208,127.208,0,1,1,409.078,287.31,127.209,127.209,0,0,1,536.286,414.519Z" transform="translate(-148.115 -144.409)" fill="#00141d" opacity="0.353"/>
      <path id="Path_24654" data-name="Path 24654" d="M532.232,410.188A127.208,127.208,0,1,1,405.024,282.98,127.208,127.208,0,0,1,532.232,410.188Z" transform="translate(-148.115 -144.409)" fill="#00141d" opacity="0.373"/>
      <path id="Path_24655" data-name="Path 24655" d="M528.18,405.858A127.208,127.208,0,1,1,400.972,278.649,127.208,127.208,0,0,1,528.18,405.858Z" transform="translate(-148.115 -144.409)" fill="#00141d" opacity="0.392"/>
      <circle id="Ellipse_27" data-name="Ellipse 27" cx="127.208" cy="127.208" r="127.208" transform="translate(68.904 257.118) rotate(-45)" fill="#00141d" opacity="0.412"/>
      <path id="Path_24656" data-name="Path 24656" d="M520.073,397.2a127.208,127.208,0,1,1-127.208-127.21A127.208,127.208,0,0,1,520.073,397.2Z" transform="translate(-148.115 -144.409)" fill="#00141d" opacity="0.431"/>
      <path id="Path_24657" data-name="Path 24657" d="M516.019,392.867A127.207,127.207,0,1,1,388.812,265.658,127.207,127.207,0,0,1,516.019,392.867Z" transform="translate(-148.115 -144.409)" fill="#00141d" opacity="0.451"/>
      <path id="Path_24658" data-name="Path 24658" d="M511.967,388.537A127.208,127.208,0,1,1,384.759,261.328,127.208,127.208,0,0,1,511.967,388.537Z" transform="translate(-148.115 -144.409)" fill="#00141d" opacity="0.471"/>
      <circle id="Ellipse_28" data-name="Ellipse 28" cx="127.208" cy="127.208" r="127.208" transform="translate(52.692 239.797) rotate(-45)" fill="#00141d" opacity="0.49"/>
      <path id="Path_24659" data-name="Path 24659" d="M503.86,379.876A127.207,127.207,0,1,1,376.652,252.667,127.209,127.209,0,0,1,503.86,379.876Z" transform="translate(-148.115 -144.409)" fill="#00141d" opacity="0.51"/>
      <path id="Path_24660" data-name="Path 24660" d="M499.807,375.546A127.208,127.208,0,1,1,372.6,248.337,127.208,127.208,0,0,1,499.807,375.546Z" transform="translate(-148.115 -144.409)" fill="#00141d" opacity="0.529"/>
      <path id="Path_24661" data-name="Path 24661" d="M495.754,371.216a127.208,127.208,0,1,1-127.208-127.21A127.208,127.208,0,0,1,495.754,371.216Z" transform="translate(-148.115 -144.409)" fill="#00141d" opacity="0.549"/>
      <circle id="Ellipse_29" data-name="Ellipse 29" cx="127.208" cy="127.208" r="127.208" transform="translate(44.353 169.836) rotate(-27.986)" fill="#00141d" opacity="0.569"/>
      <path id="Path_24662" data-name="Path 24662" d="M487.647,362.555A127.208,127.208,0,1,1,360.439,235.346,127.208,127.208,0,0,1,487.647,362.555Z" transform="translate(-148.115 -144.409)" fill="#00141d" opacity="0.588"/>
      <circle id="Ellipse_30" data-name="Ellipse 30" cx="127.208" cy="127.208" r="127.208" transform="translate(35.886 162.368) rotate(-28.383)" fill="#00141d" opacity="0.608"/>
      <path id="Path_24663" data-name="Path 24663" d="M479.541,353.895a127.208,127.208,0,1,1-127.208-127.21A127.208,127.208,0,0,1,479.541,353.895Z" transform="translate(-148.115 -144.409)" fill="#00141d" opacity="0.627"/>
      <circle id="Ellipse_31" data-name="Ellipse 31" cx="127.208" cy="127.208" r="127.208" transform="translate(20.266 205.155) rotate(-45)" fill="#00141d" opacity="0.647"/>
      <path id="Path_24664" data-name="Path 24664" d="M471.435,345.234a127.208,127.208,0,1,1-127.208-127.21A127.208,127.208,0,0,1,471.435,345.234Z" transform="translate(-148.115 -144.409)" fill="#00141d" opacity="0.667"/>
      <path id="Path_24665" data-name="Path 24665" d="M467.382,340.9A127.208,127.208,0,1,1,340.174,213.694,127.209,127.209,0,0,1,467.382,340.9Z" transform="translate(-148.115 -144.409)" fill="#00141d" opacity="0.686"/>
      <path id="Path_24666" data-name="Path 24666" d="M463.329,336.573A127.209,127.209,0,1,1,336.121,209.364,127.208,127.208,0,0,1,463.329,336.573Z" transform="translate(-148.115 -144.409)" fill="#00141d" opacity="0.706"/>
      <path id="Path_24667" data-name="Path 24667" d="M459.275,332.243a127.208,127.208,0,1,1-127.208-127.21A127.208,127.208,0,0,1,459.275,332.243Z" transform="translate(-148.115 -144.409)" fill="#00141d" opacity="0.725"/>
      <path id="Path_24668" data-name="Path 24668" d="M455.222,327.913A127.208,127.208,0,1,1,328.014,200.7,127.208,127.208,0,0,1,455.222,327.913Z" transform="translate(-148.115 -144.409)" fill="#00141d" opacity="0.745"/>
      <path id="Path_24669" data-name="Path 24669" d="M451.169,323.582A127.208,127.208,0,1,1,323.961,196.373,127.208,127.208,0,0,1,451.169,323.582Z" transform="translate(-148.115 -144.409)" fill="#00141d" opacity="0.765"/>
      <path id="Path_24670" data-name="Path 24670" d="M447.116,319.252a127.208,127.208,0,1,1-127.208-127.21A127.208,127.208,0,0,1,447.116,319.252Z" transform="translate(-148.115 -144.409)" fill="#00141d" opacity="0.784"/>
      <path id="Path_24671" data-name="Path 24671" d="M443.062,314.921A127.208,127.208,0,1,1,315.854,187.712,127.208,127.208,0,0,1,443.062,314.921Z" transform="translate(-148.115 -144.409)" fill="#00141d" opacity="0.804"/>
      <path id="Path_24672" data-name="Path 24672" d="M439.009,310.591A127.208,127.208,0,1,1,311.8,183.382,127.208,127.208,0,0,1,439.009,310.591Z" transform="translate(-148.115 -144.409)" fill="#00141d" opacity="0.824"/>
      <path id="Path_24673" data-name="Path 24673" d="M434.956,306.261a127.208,127.208,0,1,1-127.208-127.21A127.208,127.208,0,0,1,434.956,306.261Z" transform="translate(-148.115 -144.409)" fill="#00141d" opacity="0.843"/>
      <path id="Path_24674" data-name="Path 24674" d="M430.9,301.931A127.208,127.208,0,1,1,303.7,174.721,127.208,127.208,0,0,1,430.9,301.931Z" transform="translate(-148.115 -144.409)" fill="#00141d" opacity="0.863"/>
      <path id="Path_24675" data-name="Path 24675" d="M426.85,297.6A127.208,127.208,0,1,1,299.642,170.391,127.209,127.209,0,0,1,426.85,297.6Z" transform="translate(-148.115 -144.409)" fill="#00141d" opacity="0.882"/>
      <path id="Path_24676" data-name="Path 24676" d="M422.8,293.27A127.208,127.208,0,1,1,295.589,166.06,127.208,127.208,0,0,1,422.8,293.27Z" transform="translate(-148.115 -144.409)" fill="#00141d" opacity="0.902"/>
      <path id="Path_24677" data-name="Path 24677" d="M418.744,288.939A127.208,127.208,0,1,1,291.536,161.73,127.209,127.209,0,0,1,418.744,288.939Z" transform="translate(-148.115 -144.409)" fill="#00141d" opacity="0.922"/>
      <path id="Path_24678" data-name="Path 24678" d="M414.69,284.609A127.208,127.208,0,1,1,287.482,157.4,127.208,127.208,0,0,1,414.69,284.609Z" transform="translate(-148.115 -144.409)" fill="#00141d" opacity="0.941"/>
      <path id="Path_24679" data-name="Path 24679" d="M410.637,280.279a127.208,127.208,0,1,1-127.208-127.21A127.208,127.208,0,0,1,410.637,280.279Z" transform="translate(-148.115 -144.409)" fill="#00141d" opacity="0.961"/>
      <path id="Path_24680" data-name="Path 24680" d="M406.584,275.949a127.208,127.208,0,1,1-127.208-127.21A127.208,127.208,0,0,1,406.584,275.949Z" transform="translate(-148.115 -144.409)" fill="#00141d" opacity="0.98"/>
      <path id="Path_24681" data-name="Path 24681" d="M402.531,271.618A127.208,127.208,0,1,1,275.323,144.409,127.209,127.209,0,0,1,402.531,271.618Z" transform="translate(-148.115 -144.409)" fill="#00141d"/>
    </g>
    <circle id="Ellipse_33" data-name="Ellipse 33" cx="220.726" cy="220.726" r="220.726" transform="translate(-54.083 386.418) rotate(-86.239)" fill="#f9a322" opacity="0.15" style="mix-blend-mode: lighten;isolation: isolate"/>
    <circle id="Ellipse_34" data-name="Ellipse 34" cx="168.501" cy="168.501" r="168.501" transform="matrix(0.07, -0.998, 0.998, 0.07, 0.751, 336.925)" fill="#f9a322" opacity="0.2" style="mix-blend-mode: lighten;isolation: isolate"/>
    <circle id="Ellipse_35" data-name="Ellipse 35" cx="140.418" cy="140.418" r="140.418" transform="translate(34.592 315.191) rotate(-87.652)" fill="#fff277" opacity="0.7" style="mix-blend-mode: soft-light;isolation: isolate"/>
    <g id="Group_32398" data-name="Group 32398" transform="matrix(0.883, 0.469, -0.469, 0.883, 104.911, -67.737)">
      <circle id="Ellipse_36" data-name="Ellipse 36" cx="127.736" cy="127.736" r="127.736" transform="translate(0 180.645) rotate(-45)" fill="#ea7118"/>
      <path id="Path_24884" data-name="Path 24884" d="M403.279,270.587c0,11.107-4.229,19.7-15.342,24.136-10.036,4.006-15.14,3.432-21.158,13.678-4.385,7.462-5.288,13.283-14.351,16.269-9.6,3.163-18.732-.172-27.888-1.654-9.828-1.59-19.464.5-28.56,6.215-9.423,5.925-13.864,19.23-23.232,24.046-18.834,9.681-36.428-17.754-52.75-21.112-12.148-2.5-15.137,2.4-24.812,7.911-35.893,20.431-46.092-46.163-46.092-69.489a127.092,127.092,0,0,1,254.185,0Z" transform="translate(-94.898 -90.049)" fill="#f9a322"/>
      <path id="Path_24885" data-name="Path 24885" d="M337.569,222.843c-9.15,6.391-9.581,17.953-10.036,28.222-.876,19.853,1.034,50.858-25.467,50.212-9.247-.226-15.886-6.625-24.7-4.785-8.9,1.859-16.186,11.043-20.265,18.466-3.111,5.659-5.941,19.457-11.914,22.547-7.759,4.012-16.265-10.679-26.156-12.713-11.54-2.378-14.38,2.283-23.574,7.516-34.1,19.413-43.793-43.862-43.793-66.024A120.774,120.774,0,0,1,339.267,165.7c9.052,6.027,20.2,14.144,26.1,23.486C369.632,195.933,344.273,218.163,337.569,222.843Z" transform="translate(-94.898 -90.049)" fill="#ffca3b"/>
      <path id="Path_24886" data-name="Path 24886" d="M261.461,242.5c1.57,6.334,1.573,12.348-1.994,17.7-4.578,6.876-13.838,4.445-19.685,9.168-6.861,5.543-8.024,17.853-9,25.889-.732,6.048-1.671,17.827-8.019,21.328-5.33,2.941-11.434-.507-17,.876-3.972.989-7.374,4.269-10.911,6.283C164.184,341.2,155.47,284.3,155.47,264.369a109.53,109.53,0,0,1,57.51-95.854c9.3-4.968,46.9-21.089,55.049-10.814,9.465,11.925-16.3,31.329-18.38,42.2C247.1,213.26,258.027,228.647,261.461,242.5Z" transform="translate(-94.898 -90.049)" fill="#ffe31e"/>
      <path id="Path_24887" data-name="Path 24887" d="M214.935,247.338c.785,4.688.787,9.141-1,13.1-2.29,5.09-6.919,3.29-9.842,6.785-3.432,4.106-4.013,13.217-4.5,19.166-.367,4.475-.836,13.2-4.01,15.789-2.665,2.175-5.718-.377-8.5.648-1.986.731-3.687,3.159-5.456,4.65C166.3,320.4,161.94,278.28,161.94,263.524c0-29.429,11.221-57.092,28.755-70.956,4.652-3.676,23.447-15.611,27.524-8,4.732,8.829-8.152,23.193-9.19,31.237C207.754,225.691,213.218,237.082,214.935,247.338Z" transform="translate(-94.898 -90.049)" fill="#fff058"/>
    </g>
    <g id="Group_32399" data-name="Group 32399" transform="matrix(0.94, 0.342, -0.342, 0.94, 103.26, 12.85)" style="mix-blend-mode: multiply;isolation: isolate">
      <path id="Path_24888" data-name="Path 24888" d="M275.544,142.958A127.736,127.736,0,1,1,147.808,270.7,127.737,127.737,0,0,1,275.544,142.958Z" transform="translate(-147.808 -142.958)" fill="#ea7118"/>
      <path id="Path_24889" data-name="Path 24889" d="M275.437,142.958c11.107,0,19.7,4.231,24.136,15.343,4.005,10.037,3.432,15.14,13.678,21.158,7.462,4.385,13.284,5.288,16.269,14.351,3.165,9.6-.17,18.732-1.653,27.888-1.591,9.829.5,19.465,6.213,28.56,5.928,9.424,19.231,13.864,24.048,23.232,9.681,18.835-17.753,36.428-21.113,52.75-2.5,12.149,2.4,15.137,7.913,24.813,20.431,35.892-46.165,46.092-69.491,46.092a127.093,127.093,0,0,1,0-254.187Z" transform="translate(-147.808 -142.958)" fill="#f9a322"/>
      <path id="Path_24890" data-name="Path 24890" d="M227.694,208.669c6.389,9.151,17.952,9.58,28.221,10.037,19.853.876,50.858-1.035,50.212,25.466-.227,9.247-6.625,15.887-4.785,24.7,1.86,8.9,11.043,16.185,18.467,20.265,5.658,3.111,19.456,5.94,22.547,11.914,4.011,7.758-10.679,16.265-12.714,26.155-2.377,11.541,2.283,14.38,7.517,23.574,19.412,34.1-43.862,43.793-66.025,43.793a120.772,120.772,0,0,1-100.581-187.6c6.026-9.052,14.144-20.2,23.486-26.1C200.784,176.607,223.013,201.964,227.694,208.669Z" transform="translate(-147.808 -142.958)" fill="#ffca3b"/>
      <path id="Path_24891" data-name="Path 24891" d="M247.354,284.777c6.333-1.57,12.347-1.572,17.7,1.994,6.876,4.579,4.446,13.837,9.169,19.686,5.543,6.861,17.852,8.023,25.888,9,6.048.733,17.829,1.671,21.33,8.02,2.939,5.329-.51,11.433.875,17,.989,3.973,4.269,7.375,6.281,10.912,17.459,30.668-39.445,39.383-59.379,39.383a109.532,109.532,0,0,1-95.853-57.512c-4.967-9.3-21.089-46.894-10.815-55.049,11.927-9.463,31.331,16.3,42.2,18.38C218.109,299.139,233.5,288.211,247.354,284.777Z" transform="translate(-147.808 -142.958)" fill="#ffe31e"/>
      <path id="Path_24892" data-name="Path 24892" d="M252.188,331.3c4.689-.786,9.141-.787,13.1,1,5.091,2.289,3.29,6.918,6.786,9.841,4.1,3.432,13.216,4.013,19.165,4.5,4.476.367,13.2.837,15.789,4.011,2.176,2.664-.376,5.717.648,8.5.732,1.986,3.158,3.688,4.65,5.456,12.922,15.335-29.2,19.691-43.955,19.691-29.428,0-57.092-11.22-70.956-28.755-3.676-4.651-15.611-23.447-8.005-27.524,8.83-4.731,23.192,8.152,31.237,9.19C230.542,338.484,241.932,333.02,252.188,331.3Z" transform="translate(-147.808 -142.958)" fill="#fff058"/>
    </g>
  </g>
</svg>
