<svg xmlns="http://www.w3.org/2000/svg" width="210.222" height="226.507" viewBox="0 0 210.222 226.507"><defs><style>.a{opacity:0.4;mix-blend-mode:multiply;}.a,.bb,.bc,.bi{isolation:isolate;}.aa,.ab,.ac,.ad,.ae,.af,.ag,.ah,.ai,.aj,.ak,.al,.am,.an,.ao,.ap,.aq,.ar,.as,.at,.au,.av,.aw,.ax,.ay,.az,.b,.ba,.c,.d,.e,.f,.g,.h,.i,.j,.k,.l,.m,.n,.o,.p,.q,.r,.s,.t,.u,.v,.w,.x,.y,.z{fill:#00141d;}.b{opacity:0;}.c{opacity:0.02;}.d{opacity:0.039;}.e{opacity:0.059;}.f{opacity:0.078;}.g{opacity:0.098;}.h{opacity:0.118;}.i{opacity:0.137;}.j{opacity:0.157;}.k{opacity:0.176;}.l{opacity:0.196;}.m{opacity:0.216;}.n{opacity:0.235;}.o{opacity:0.255;}.p{opacity:0.275;}.q{opacity:0.294;}.r{opacity:0.314;}.s{opacity:0.333;}.t{opacity:0.353;}.u{opacity:0.373;}.v{opacity:0.392;}.w{opacity:0.412;}.x{opacity:0.431;}.y{opacity:0.451;}.z{opacity:0.471;}.aa{opacity:0.49;}.ab{opacity:0.51;}.ac{opacity:0.529;}.ad{opacity:0.549;}.ae{opacity:0.569;}.af{opacity:0.588;}.ag{opacity:0.608;}.ah{opacity:0.627;}.ai{opacity:0.647;}.aj{opacity:0.667;}.ak{opacity:0.686;}.al{opacity:0.706;}.am{opacity:0.725;}.an{opacity:0.745;}.ao{opacity:0.765;}.ap{opacity:0.784;}.aq{opacity:0.804;}.ar{opacity:0.824;}.as{opacity:0.843;}.at{opacity:0.863;}.au{opacity:0.882;}.av{opacity:0.902;}.aw{opacity:0.922;}.ax{opacity:0.941;}.ay{opacity:0.961;}.az{opacity:0.98;}.bb,.bc{fill:#f9a322;mix-blend-mode:lighten;}.bb{opacity:0.05;}.bc{opacity:0.1;}.bd{fill:#d24d00;}.be{fill:#e8782c;}.bf{fill:#f7c14f;}.bg{fill:#bd3c00;}.bh{fill:#ffeb5e;}.bi{opacity:0.5;mix-blend-mode:hard-light;}</style></defs><g transform="translate(10.924) rotate(4)"><g class="a" transform="translate(29.186 28.486)"><path class="b" d="M834.386,564.124a49.262,49.262,0,1,1-49.262-49.261A49.262,49.262,0,0,1,834.386,564.124Z" transform="translate(-655.815 -429.34)"/><path class="c" d="M832.816,562.447a49.261,49.261,0,1,1-49.261-49.261A49.261,49.261,0,0,1,832.816,562.447Z" transform="translate(-655.815 -429.34)"/><path class="d" d="M831.246,560.771a49.26,49.26,0,1,1-49.262-49.261A49.261,49.261,0,0,1,831.246,560.771Z" transform="translate(-655.815 -429.34)"/><path class="e" d="M829.677,559.094a49.262,49.262,0,1,1-49.262-49.262A49.261,49.261,0,0,1,829.677,559.094Z" transform="translate(-655.815 -429.34)"/><path class="f" d="M828.107,557.416a49.261,49.261,0,1,1-49.261-49.261A49.261,49.261,0,0,1,828.107,557.416Z" transform="translate(-655.815 -429.34)"/><path class="g" d="M826.537,555.739a49.26,49.26,0,1,1-49.261-49.261A49.261,49.261,0,0,1,826.537,555.739Z" transform="translate(-655.815 -429.34)"/><path class="h" d="M824.968,554.063A49.261,49.261,0,1,1,775.706,504.8,49.261,49.261,0,0,1,824.968,554.063Z" transform="translate(-655.815 -429.34)"/><path class="i" d="M823.4,552.386a49.261,49.261,0,1,1-49.261-49.261A49.26,49.26,0,0,1,823.4,552.386Z" transform="translate(-655.815 -429.34)"/><circle class="j" cx="49.262" cy="49.262" r="49.262" transform="matrix(0.08, -0.997, 0.997, 0.08, 63.699, 166.522)"/><circle class="k" cx="49.262" cy="49.262" r="49.262" transform="translate(62.558 165.343) rotate(-85.941)"/><path class="l" d="M818.689,547.354a49.26,49.26,0,1,1-49.261-49.26A49.262,49.262,0,0,1,818.689,547.354Z" transform="translate(-655.815 -429.34)"/><path class="m" d="M817.12,545.678a49.261,49.261,0,1,1-49.262-49.261A49.261,49.261,0,0,1,817.12,545.678Z" transform="translate(-655.815 -429.34)"/><path class="n" d="M815.55,544a49.261,49.261,0,1,1-49.261-49.261A49.262,49.262,0,0,1,815.55,544Z" transform="translate(-655.815 -429.34)"/><path class="o" d="M813.98,542.324a49.26,49.26,0,1,1-49.261-49.261A49.261,49.261,0,0,1,813.98,542.324Z" transform="translate(-655.815 -429.34)"/><path class="p" d="M812.411,540.647a49.26,49.26,0,1,1-49.262-49.261A49.262,49.262,0,0,1,812.411,540.647Z" transform="translate(-655.815 -429.34)"/><circle class="q" cx="49.262" cy="49.262" r="49.262" transform="translate(53.786 156.016) rotate(-86.745)"/><path class="r" d="M809.271,537.293a49.26,49.26,0,1,1-49.26-49.26A49.262,49.262,0,0,1,809.271,537.293Z" transform="translate(-655.815 -429.34)"/><path class="s" d="M807.7,535.616a49.26,49.26,0,1,1-49.262-49.261A49.263,49.263,0,0,1,807.7,535.616Z" transform="translate(-655.815 -429.34)"/><path class="t" d="M806.132,533.939a49.26,49.26,0,1,1-49.261-49.26A49.262,49.262,0,0,1,806.132,533.939Z" transform="translate(-655.815 -429.34)"/><path class="u" d="M804.562,532.263A49.26,49.26,0,1,1,755.3,483,49.26,49.26,0,0,1,804.562,532.263Z" transform="translate(-655.815 -429.34)"/><circle class="v" cx="49.262" cy="49.262" r="49.262" transform="matrix(0.077, -0.997, 0.997, 0.077, 44.995, 146.552)"/><path class="w" d="M801.423,528.909a49.26,49.26,0,1,1-49.261-49.261A49.261,49.261,0,0,1,801.423,528.909Z" transform="translate(-655.815 -429.34)"/><path class="x" d="M799.853,527.232a49.26,49.26,0,1,1-49.26-49.261A49.26,49.26,0,0,1,799.853,527.232Z" transform="translate(-655.815 -429.34)"/><path class="y" d="M798.284,525.555a49.26,49.26,0,1,1-49.261-49.261A49.262,49.262,0,0,1,798.284,525.555Z" transform="translate(-655.815 -429.34)"/><path class="z" d="M796.714,523.878a49.26,49.26,0,1,1-49.261-49.261A49.262,49.262,0,0,1,796.714,523.878Z" transform="translate(-655.815 -429.34)"/><path class="aa" d="M795.144,522.2a49.26,49.26,0,1,1-49.26-49.261A49.261,49.261,0,0,1,795.144,522.2Z" transform="translate(-655.815 -429.34)"/><path class="ab" d="M793.575,520.524a49.26,49.26,0,1,1-49.261-49.261A49.262,49.262,0,0,1,793.575,520.524Z" transform="translate(-655.815 -429.34)"/><path class="ac" d="M792.006,518.848a49.26,49.26,0,1,1-49.261-49.262A49.261,49.261,0,0,1,792.006,518.848Z" transform="translate(-655.815 -429.34)"/><path class="ad" d="M790.435,517.171a49.26,49.26,0,1,1-49.26-49.261A49.26,49.26,0,0,1,790.435,517.171Z" transform="translate(-655.815 -429.34)"/><path class="ae" d="M788.866,515.493A49.26,49.26,0,1,1,739.6,466.232,49.263,49.263,0,0,1,788.866,515.493Z" transform="translate(-655.815 -429.34)"/><path class="af" d="M787.3,513.816a49.26,49.26,0,1,1-49.261-49.26A49.263,49.263,0,0,1,787.3,513.816Z" transform="translate(-655.815 -429.34)"/><path class="ag" d="M785.726,512.14a49.26,49.26,0,1,1-49.26-49.261A49.26,49.26,0,0,1,785.726,512.14Z" transform="translate(-655.815 -429.34)"/><path class="ah" d="M784.157,510.463A49.26,49.26,0,1,1,734.9,461.2,49.262,49.262,0,0,1,784.157,510.463Z" transform="translate(-655.815 -429.34)"/><path class="ai" d="M782.588,508.786a49.26,49.26,0,1,1-49.261-49.261A49.262,49.262,0,0,1,782.588,508.786Z" transform="translate(-655.815 -429.34)"/><circle class="aj" cx="49.262" cy="49.262" r="49.262" transform="translate(24.756 125.027) rotate(-87.715)"/><path class="ak" d="M779.448,505.433a49.259,49.259,0,1,1-49.261-49.262A49.26,49.26,0,0,1,779.448,505.433Z" transform="translate(-655.815 -429.34)"/><path class="al" d="M777.879,503.755a49.26,49.26,0,1,1-49.261-49.261A49.262,49.262,0,0,1,777.879,503.755Z" transform="translate(-655.815 -429.34)"/><path class="am" d="M776.308,502.078a49.259,49.259,0,1,1-49.259-49.261A49.261,49.261,0,0,1,776.308,502.078Z" transform="translate(-655.815 -429.34)"/><path class="an" d="M774.739,500.4a49.26,49.26,0,1,1-49.26-49.261A49.262,49.262,0,0,1,774.739,500.4Z" transform="translate(-655.815 -429.34)"/><path class="ao" d="M773.17,498.725a49.26,49.26,0,1,1-49.261-49.262A49.261,49.261,0,0,1,773.17,498.725Z" transform="translate(-655.815 -429.34)"/><path class="ap" d="M771.6,497.047a49.259,49.259,0,1,1-49.26-49.26A49.261,49.261,0,0,1,771.6,497.047Z" transform="translate(-655.815 -429.34)"/><path class="aq" d="M770.03,495.371a49.26,49.26,0,1,1-49.26-49.262A49.261,49.261,0,0,1,770.03,495.371Z" transform="translate(-655.815 -429.34)"/><path class="ar" d="M768.461,493.694A49.26,49.26,0,1,1,719.2,444.433,49.262,49.262,0,0,1,768.461,493.694Z" transform="translate(-655.815 -429.34)"/><path class="as" d="M766.892,492.017a49.26,49.26,0,1,1-49.261-49.261A49.262,49.262,0,0,1,766.892,492.017Z" transform="translate(-655.815 -429.34)"/><path class="at" d="M765.321,490.34a49.259,49.259,0,1,1-49.26-49.261A49.261,49.261,0,0,1,765.321,490.34Z" transform="translate(-655.815 -429.34)"/><path class="au" d="M763.752,488.663a49.26,49.26,0,1,1-49.26-49.261A49.262,49.262,0,0,1,763.752,488.663Z" transform="translate(-655.815 -429.34)"/><path class="av" d="M762.183,486.986a49.26,49.26,0,1,1-49.261-49.261A49.263,49.263,0,0,1,762.183,486.986Z" transform="translate(-655.815 -429.34)"/><path class="aw" d="M760.612,485.309a49.259,49.259,0,1,1-49.26-49.261A49.261,49.261,0,0,1,760.612,485.309Z" transform="translate(-655.815 -429.34)"/><path class="ax" d="M759.043,483.632a49.26,49.26,0,1,1-49.26-49.261A49.262,49.262,0,0,1,759.043,483.632Z" transform="translate(-655.815 -429.34)"/><path class="ay" d="M757.474,481.956a49.26,49.26,0,1,1-49.26-49.262A49.262,49.262,0,0,1,757.474,481.956Z" transform="translate(-655.815 -429.34)"/><path class="az" d="M755.9,480.278a49.259,49.259,0,1,1-49.26-49.261A49.261,49.261,0,0,1,755.9,480.278Z" transform="translate(-655.815 -429.34)"/><path class="ba" d="M754.334,478.6a49.259,49.259,0,1,1-49.26-49.261A49.261,49.261,0,0,1,754.334,478.6Z" transform="translate(-655.815 -429.34)"/></g><path class="bb" d="M783.235,479.157a78.3,78.3,0,1,1-78.3-78.3A78.3,78.3,0,0,1,783.235,479.157Z" transform="translate(-626.629 -400.854)"/><path class="bc" d="M763.66,479.157a58.727,58.727,0,1,1-58.729-58.726A58.728,58.728,0,0,1,763.66,479.157Z" transform="translate(-626.629 -400.854)"/><g transform="translate(27.862 28.792)"><g transform="translate(0.001 0.001)"><path class="bd" d="M753.424,479.111a49.466,49.466,0,1,1-49.467-49.464A49.467,49.467,0,0,1,753.424,479.111Z" transform="translate(-654.492 -429.647)"/><path class="be" d="M753.424,479.069c0,4.3-1.638,7.631-5.942,9.348-3.886,1.552-5.861,1.329-8.193,5.3-1.7,2.889-2.049,5.143-5.558,6.3-3.717,1.226-7.254-.067-10.8-.637a15.632,15.632,0,0,0-11.063,2.4c-3.646,2.3-5.367,7.449-8.994,9.313-7.293,3.749-14.107-6.874-20.429-8.177-4.705-.968-5.862.932-9.606,3.065-13.9,7.912-17.851-17.877-17.851-26.911a49.217,49.217,0,0,1,98.434,0Z" transform="translate(-654.492 -429.647)"/><path class="bf" d="M727.975,460.581c-3.541,2.475-3.709,6.953-3.882,10.928-.342,7.69.4,19.7-9.863,19.447-3.583-.088-6.155-2.567-9.567-1.855-3.448.72-6.267,4.277-7.844,7.152-1.208,2.192-2.3,7.535-4.615,8.73-3.006,1.554-6.3-4.135-10.129-4.923-4.468-.919-5.57.887-9.129,2.912-13.207,7.516-16.96-16.987-16.96-25.569a46.773,46.773,0,0,1,72.651-38.95c3.505,2.336,7.818,5.478,10.106,9.1C740.392,450.162,730.573,458.769,727.975,460.581Z" transform="translate(-654.492 -429.647)"/><path class="bg" d="M698.506,468.194c.608,2.453.608,4.782-.773,6.855-1.774,2.663-5.362,1.722-7.623,3.551-2.656,2.146-3.108,6.914-3.488,10.024-.282,2.343-.647,6.9-3.1,8.261-2.065,1.139-4.427-.2-6.582.34-1.538.382-2.855,1.652-4.226,2.431-11.876,6.762-15.249-15.274-15.249-22.994a42.414,42.414,0,0,1,22.268-37.119c3.6-1.925,18.161-8.167,21.32-4.188,3.665,4.616-6.315,12.133-7.119,16.34C692.944,456.87,697.174,462.829,698.506,468.194Z" transform="translate(-654.492 -429.647)"/><path class="bh" d="M677.886,471.367a8.7,8.7,0,0,1-.387,5.073c-.886,1.973-2.68,1.276-3.813,2.629-1.326,1.589-1.551,5.119-1.74,7.422-.14,1.733-.322,5.11-1.554,6.115-1.032.842-2.213-.147-3.29.25-.769.283-1.43,1.224-2.112,1.8-5.939,5.006-7.626-11.307-7.626-17.02,0-11.4,4.345-22.109,11.136-27.479,1.8-1.423,9.078-6.046,10.657-3.1,1.832,3.418-3.158,8.979-3.557,12.1C675.1,462.985,677.222,467.4,677.886,471.367Z" transform="translate(-654.492 -429.647)"/></g><g class="bi"><path class="bd" d="M703.956,429.646a49.465,49.465,0,1,1-49.465,49.465A49.465,49.465,0,0,1,703.956,429.646Z" transform="translate(-654.491 -429.646)"/><path class="be" d="M703.914,429.646c4.3,0,7.629,1.638,9.348,5.942,1.55,3.885,1.33,5.861,5.3,8.193,2.891,1.7,5.146,2.048,6.3,5.557,1.224,3.718-.069,7.253-.64,10.8a15.631,15.631,0,0,0,2.406,11.061c2.3,3.649,7.448,5.368,9.313,8.995,3.746,7.294-6.875,14.107-8.175,20.428-.971,4.7.929,5.862,3.063,9.609,7.912,13.9-17.877,17.848-26.912,17.848a49.216,49.216,0,0,1,0-98.432Z" transform="translate(-654.491 -429.646)"/><path class="bf" d="M685.427,455.093c2.473,3.542,6.953,3.709,10.928,3.884,7.69.34,19.694-.4,19.445,9.863-.087,3.581-2.566,6.153-1.852,9.566.718,3.448,4.277,6.265,7.15,7.845,2.191,1.207,7.537,2.3,8.733,4.614,1.552,3.006-4.137,6.3-4.925,10.128-.92,4.471.887,5.57,2.909,9.129,7.519,13.207-16.985,16.96-25.567,16.96A46.769,46.769,0,0,1,663.3,454.434c2.336-3.506,5.477-7.82,9.1-10.107C675.005,442.676,683.614,452.5,685.427,455.093Z" transform="translate(-654.491 -429.646)"/><path class="bg" d="M693.039,484.564c2.453-.608,4.782-.608,6.854.772,2.663,1.773,1.723,5.36,3.551,7.622,2.147,2.658,6.914,3.11,10.025,3.488,2.344.283,6.907.647,8.259,3.1,1.141,2.065-.194,4.428.34,6.584.385,1.536,1.656,2.854,2.434,4.224,6.76,11.877-15.276,15.252-22.994,15.252a42.414,42.414,0,0,1-37.12-22.271c-1.925-3.6-8.166-18.161-4.186-21.319,4.614-3.664,12.132,6.315,16.338,7.119C681.715,490.126,687.675,485.894,693.039,484.564Z" transform="translate(-654.491 -429.646)"/></g></g></g></svg>